<svg version="1.1" xmlns="http://www.w3.org/2000/svg" xmlns:xlink="http://www.w3.org/1999/xlink" width="270.10563" height="500.6356" viewBox="0,0,270.10563,500.6356"><g transform="translate(-104.94718,70.3178)"><g data-paper-data="{&quot;isPaintingLayer&quot;:true}" fill-rule="nonzero" stroke-linecap="butt" stroke-linejoin="miter" stroke-miterlimit="10" stroke-dasharray="" stroke-dashoffset="0" style="mix-blend-mode: normal"><path d="M208.03905,-69.41064c0.378,-0.01188 0.75599,-0.02374 1.14544,-0.03598c0.50873,-0.02264 0.50873,-0.02264 1.02772,-0.04573c1.95115,0.26693 3.01801,1.92354 4.2076,3.36379c0.66056,0.74822 1.32384,1.49402 1.98925,2.23793c0.36826,0.41464 0.73651,0.8293 1.11593,1.2565c2.10766,2.3053 4.3276,4.49704 6.54473,6.69645c0.82484,0.81831 1.64803,1.63826 2.47076,2.45871c1.68989,1.68466 3.38174,3.36736 5.07388,5.04976c1.98568,1.97437 3.97051,3.94958 5.95336,5.92679c0.78188,0.77885 1.5652,1.55624 2.34861,2.33355c2.55102,2.5386 5.01486,5.11957 7.34666,7.8634c0.60304,0.65395 1.20665,1.30735 1.81133,1.95979c2.02062,2.26931 3.75474,4.71733 5.49334,7.2026c0.81151,1.15821 1.64065,2.29841 2.49428,3.42592c3.47798,4.60384 6.50021,9.43495 9.49459,14.36413c0.79281,1.29416 1.61381,2.56848 2.44231,3.84c3.22225,5.02671 6.68649,10.43866 8.19548,16.2425c0.31357,0 0.62714,0 0.9502,0c0.89708,1.83943 1.79201,3.67987 2.6852,5.5212c0.30257,0.62306 0.60568,1.24587 0.90937,1.86839c1.85535,3.80419 3.60705,7.6257 5.24849,11.5278c0.57469,1.3186 1.19334,2.58583 1.8597,3.85961c1.55971,3.05152 2.66451,6.27983 3.81751,9.50016c0.2246,0.62088 0.44947,1.24167 0.67461,1.86235c0.81311,2.24443 1.62093,4.49073 2.42631,6.73794c0.73674,2.04481 1.49651,4.06786 2.33305,6.074c1.18724,2.9374 2.00688,5.97108 2.8506,9.02134c0.94221,3.37317 1.88721,6.74482 2.89329,10.0996c0.14511,0.48451 0.29022,0.96902 0.43972,1.46821c0.95952,2.76696 2.43244,5.24983 4.2686,7.52529c2.83477,1.2599 6.33289,0.49524 9.15868,-0.41757c2.89032,-1.19013 5.53951,-2.89916 8.14352,-4.61553c3.39477,-1.84888 6.70213,-1.78525 10.49119,-1.76678c0.58255,0.00269 1.16508,0.00536 1.76527,0.00811c4.30751,0.05505 8.58362,0.28883 12.87377,0.67484c0.52669,0.04391 1.05339,0.0878 1.59605,0.13305c4.54778,0.45788 9.00323,1.34026 13.48318,2.21996c0.69043,0.13474 1.38088,0.26939 2.07135,0.40393c1.67711,0.32702 3.35397,0.65539 5.03069,0.98448c0.04441,10.16354 0.07791,20.32706 0.09846,30.49068c0.00979,4.71921 0.02315,9.43836 0.0449,14.15754c0.01896,4.11351 0.0312,8.227 0.03544,12.34056c0.00247,2.17785 0.00828,4.35559 0.02212,6.5334c0.01292,2.0508 0.01687,4.10145 0.01403,6.1523c0.00053,0.75171 0.00429,1.50344 0.0116,2.25511c0.06355,6.88247 0.06355,6.88247 -2.12694,9.78774c-0.35084,0.89998 -0.70026,1.80082 -1.02258,2.71142c-0.48575,1.314 -1.03825,2.59318 -1.59048,3.8806c-0.73277,1.73735 -1.37125,3.43822 -1.87071,5.2558c-0.76624,2.68607 -1.95911,5.12997 -3.15613,7.64684c-0.86605,1.85305 -1.68777,3.72614 -2.51539,5.59658c-0.17006,0.38369 -0.34013,0.76739 -0.51535,1.1627c-0.40269,0.90889 -0.80486,1.81802 -1.2069,2.72719c-0.31357,0 -0.62714,0 -0.9502,0c-0.11329,0.37603 -0.2266,0.75207 -0.34334,1.1395c-0.61793,1.74228 -1.35543,3.37713 -2.13795,5.04969c-2.08516,4.36462 -2.08516,4.36462 -3.45748,8.98434c-1.24388,5.94866 -4.34593,11.74841 -7.10981,17.12219c-2.20492,4.34253 -4.29764,8.7542 -6.0464,13.30096c-0.52529,1.31705 -1.14938,2.55963 -1.80946,3.8138c-0.31357,0 -0.62714,0 -0.9502,0c-0.05557,0.34236 -0.11116,0.6847 -0.16841,1.03743c-0.31692,1.38273 -0.78354,2.4743 -1.41277,3.74328c-0.22243,0.45439 -0.44485,0.90877 -0.67403,1.37693c-0.35351,0.71477 -0.35351,0.71477 -0.71416,1.44397c-1.90203,3.90196 -3.68137,7.77294 -5.10733,11.87752c-0.31357,0 -0.62714,0 -0.9502,0c-0.06998,0.47287 -0.06998,0.47287 -0.14139,0.95531c-0.42405,1.8047 -1.13376,3.44655 -1.87221,5.13935c-0.153,0.35559 -0.30601,0.71117 -0.46364,1.07753c-0.48852,1.13387 -0.98025,2.26634 -1.47202,3.3988c-0.32529,0.75402 -0.65038,1.5081 -0.97526,2.2623c-1.50574,3.49121 -3.02254,6.97702 -4.57748,10.44664c-0.31357,0 -0.62714,0 -0.9502,0c-0.05523,0.33274 -0.11047,0.66549 -0.16738,1.00831c-0.33728,1.49852 -0.84412,2.81862 -1.43052,4.23821c-0.33852,0.8245 -0.33852,0.8245 -0.68389,1.66563c-0.23671,0.57048 -0.47341,1.14096 -0.7173,1.72874c-0.46347,1.12522 -0.92682,2.25049 -1.39005,3.37581c-0.22514,0.5453 -0.45029,1.09059 -0.68226,1.65242c-0.69666,1.69689 -1.37707,3.39971 -2.05282,5.10502c-0.33977,0.83984 -0.68945,1.67571 -1.04577,2.50866c-1.5344,3.58677 -2.79953,7.21611 -3.9748,10.93496c-0.18557,0.58108 -0.37113,1.16216 -0.56233,1.76087c-1.15014,3.63255 -2.22141,7.26941 -3.13456,10.96849c-0.31179,1.13764 -0.31179,1.13764 -0.78688,1.61274c-0.15371,0.72942 -0.28921,1.46272 -0.41571,2.19733c-0.40244,2.12027 -1.10885,3.89383 -1.95979,5.87937c-0.1655,0.70889 -0.31239,1.42226 -0.44541,2.13795c-0.33055,1.72263 -0.67792,3.4386 -1.05413,5.15187c-2.50749,11.4742 -4.76641,22.99907 -7.05227,34.51904c-0.31357,0 -0.62714,0 -0.9502,0c-0.06167,0.54311 -0.12333,1.08623 -0.18686,1.6458c-0.26339,2.10111 -0.66249,4.15758 -1.09926,6.22862c-0.07861,0.37898 -0.1572,0.75795 -0.23818,1.14842c-0.16694,0.80457 -0.33448,1.60902 -0.5026,2.41335c-0.43685,2.09248 -0.86747,4.18625 -1.29881,6.27987c-0.08407,0.40757 -0.16813,0.81513 -0.25475,1.23506c-1.63284,7.9195 -2.92506,15.76991 -4.02115,23.80795c-11.60196,0 -23.20392,0 -35.15744,0c-0.01776,-2.64388 -0.03552,-5.28776 -0.05383,-8.01175c-0.02919,-3.87196 -0.06136,-7.74391 -0.09465,-11.61584c-0.00442,-0.51792 -0.00885,-1.03585 -0.0134,-1.56947c-0.13164,-15.19937 -0.35598,-30.39497 -0.66213,-45.5917c-0.01601,-0.79863 -0.03201,-1.59725 -0.04801,-2.39589c-0.14341,-7.14745 -0.2886,-14.29488 -0.44619,-21.44203c-0.35935,-16.31024 -0.65681,-32.61926 -0.70577,-48.93382c-0.00475,-1.57679 -0.0125,-3.15353 -0.02318,-4.73029c-0.07055,-11.03855 0.58938,-21.63642 2.99735,-32.44665c0.31357,0 0.62714,0 0.9502,0c-0.03919,-0.52915 -0.0784,-1.05829 -0.11878,-1.60346c0.01809,-2.60918 0.97728,-4.59084 2.01917,-6.94834c0.27026,-0.65811 0.53858,-1.31701 0.80544,-1.97649c2.52528,-6.19844 5.40301,-12.20941 8.58151,-18.10022c6.45943,-12.14102 7.73761,-25.89185 5.81628,-39.31087c-0.0741,-0.54262 -0.14821,-1.08523 -0.22456,-1.64429c-0.14888,-1.07341 -0.30302,-2.14611 -0.4621,-3.21807c-0.196,-1.33059 -0.37991,-2.6607 -0.55675,-3.99381c-0.58138,-4.19991 -1.33167,-7.91951 -3.03804,-11.82555c-0.46953,-1.17291 -0.46953,-1.17291 -0.46953,-2.59821c-0.31357,0 -0.62714,0 -0.9502,0c-0.70553,-2.11658 -0.70553,-2.11658 -1.4253,-4.2759c-0.31357,0 -0.62714,0 -0.9502,0c-0.32887,-0.61274 -0.32887,-0.61274 -0.66439,-1.23786c-2.53415,-4.62595 -5.482,-8.66563 -8.8339,-12.74049c-1.16752,-1.49915 -2.22183,-3.05568 -3.27003,-4.63966c-0.20724,-0.31246 -0.41447,-0.62492 -0.62797,-0.94684c-4.65752,-7.06042 -4.65752,-7.06042 -4.65752,-8.46609c-0.31357,0 -0.62714,0 -0.9502,0c-0.17217,-0.30862 -0.34435,-0.61726 -0.52173,-0.93523c-0.79429,-1.42141 -1.59126,-2.8413 -2.38826,-4.26117c-0.2707,-0.48535 -0.54139,-0.97072 -0.82029,-1.47077c-1.49182,-2.65307 -3.03578,-5.21928 -4.7879,-7.70936c-0.50874,-0.82667 -0.50874,-0.82667 -0.50874,-1.77687c-0.31357,0 -0.62714,0 -0.9502,0c-0.57845,-0.79686 -0.57845,-0.79686 -1.22301,-1.91153c-0.23713,-0.4046 -0.47425,-0.80918 -0.71856,-1.22602c-0.25099,-0.43445 -0.50196,-0.86889 -0.76055,-1.3165c-4.29892,-7.28924 -8.92713,-13.2607 -15.35169,-18.82586c-0.61386,-0.53426 -1.22754,-1.06875 -1.84101,-1.60346c-0.30376,-0.26457 -0.60754,-0.52915 -0.92051,-0.80173c-1.54259,-1.3663 -3.05727,-2.76274 -4.57366,-4.15795c-1.49558,-1.3755 -2.99922,-2.74102 -4.51264,-4.09693c-2.11848,-1.90015 -4.21037,-3.82781 -6.29312,-5.76697c-1.35817,-1.2602 -2.73373,-2.4947 -4.13312,-3.70906c-2.00796,-1.74924 -3.94435,-3.56752 -5.87566,-5.40055c-5.85682,-5.53874 -5.85682,-5.53874 -11.87752,-10.89762c-1.25845,-1.0879 -2.43327,-2.2223 -3.59295,-3.41479c-1.39057,-1.41483 -2.83715,-2.66184 -4.39468,-3.88988c-2.26294,-1.80973 -4.27394,-3.7756 -6.29509,-5.84968c-6.23129,-6.35494 -13.12272,-11.32309 -21.34984,-14.7875c-1.05936,-0.45528 -2.11844,-0.91119 -3.17723,-1.36777c-0.5022,-0.21565 -1.00439,-0.43131 -1.5218,-0.6535c-1.6205,-0.70593 -3.21095,-1.45709 -4.80297,-2.22494c-4.21924,-2.00194 -8.55847,-3.73218 -12.88201,-5.49417c-0.29775,-0.12178 -0.5955,-0.24356 -0.90228,-0.36903c-0.82293,-0.33637 -1.64648,-0.67126 -2.47005,-1.00604c-1.20562,-0.52451 -1.20562,-0.52451 -1.68071,-0.99962c-0.04026,-1.05847 -0.04598,-2.11826 -0.03909,-3.17747c0.00153,-0.33605 0.00307,-0.67208 0.00465,-1.01832c0.00577,-1.13441 0.01496,-2.26877 0.02413,-3.40315c0.00482,-0.80983 0.00942,-1.61968 0.01383,-2.42951c0.01262,-2.2056 0.02818,-4.41118 0.04425,-6.61676c0.01628,-2.30235 0.02988,-4.6047 0.04377,-6.90706c0.02671,-4.36302 0.05586,-8.72602 0.08586,-13.08902c0.03403,-4.96578 0.06538,-9.93155 0.09648,-14.89734c0.06406,-10.21795 0.13154,-20.43587 0.20124,-30.65378c12.9347,-0.06207 25.86938,-0.12402 38.80408,-0.18584c6.00589,-0.0287 12.01177,-0.05745 18.01766,-0.08628c5.23512,-0.02514 10.47025,-0.05019 15.70536,-0.07517c2.77158,-0.01323 5.54316,-0.02649 8.31473,-0.03983c2.60996,-0.01256 5.21992,-0.02504 7.82986,-0.03743c0.95663,-0.00456 1.91325,-0.00915 2.86989,-0.01378c1.30922,-0.00634 2.61843,-0.01255 3.92765,-0.01873c0.56362,-0.00277 0.56362,-0.00277 1.13863,-0.0056c0.7052,-0.00328 1.41042,-0.00475 2.11564,-0.00418c0.73595,-0.0058 1.47187,-0.02556 2.20722,-0.05557z" fill="#400000" stroke="none" stroke-width="1"/><path d="M107.10829,9.50338c2.86419,0.5508 5.14101,1.58469 7.72224,2.92299c2.23053,1.1268 4.52986,2.09528 6.82772,3.07516c0.41351,0.17673 0.82701,0.35345 1.25305,0.53553c2.46766,1.04779 4.94767,2.0565 7.44513,3.03121c1.19446,0.50144 2.24744,1.1715 3.35748,1.83754c0.67971,0.27541 1.36326,0.54137 2.04887,0.80173c5.76737,2.27592 10.63238,4.75944 15.05475,9.17538c1.26034,1.1948 2.53142,2.37807 3.8008,3.56325c0.66198,0.62228 1.3239,1.24461 1.98578,1.867c1.75871,1.64872 3.54501,3.26408 5.34303,4.86977c1.5785,1.4228 3.13899,2.86436 4.69718,4.30931c0.27904,0.25822 0.55808,0.51644 0.84558,0.78248c1.60294,1.48933 3.15981,3.01505 4.70716,4.5624c0.73706,0.67885 1.47947,1.35192 2.22703,2.01917c2.06452,1.84574 4.11994,3.70105 6.17074,5.56202c0.74305,0.65313 1.50486,1.28543 2.28271,1.8967c1.28296,1.04427 2.40974,2.17332 3.57253,3.34984c1.46058,1.38279 2.94031,2.74514 4.41695,4.11073c1.51011,1.40224 2.99485,2.81879 4.44108,4.28704c1.30283,1.3131 2.65901,2.48791 4.11816,3.62821c2.24053,1.80037 4.23674,3.74019 6.24126,5.79586c1.64922,1.60881 3.42081,3.03355 5.22982,4.45778c1.67115,1.38364 3.15454,2.9099 4.62295,4.50417c3.50546,3.27177 7.77754,5.68262 11.80908,8.25394c2.00454,1.28266 3.99981,2.57971 5.99617,3.87505c1.61213,1.04508 3.22659,2.08562 4.8511,3.11135c4.71173,2.98126 4.71173,2.98126 6.88896,4.74358c2.1725,1.75018 4.51515,3.18585 6.89615,4.63119c1.76315,1.07587 3.46685,2.20087 5.14839,3.40098c2.71602,1.91958 5.55185,3.61029 8.41448,5.30035c2.90071,1.71881 5.79471,3.4386 8.63161,5.26137c2.10869,1.35307 4.25338,2.62467 6.42464,3.87422c3.95951,2.28293 7.68889,4.6075 11.24687,7.48179c1.78488,1.43678 3.67398,2.71815 5.55831,4.0198c2.46651,1.71268 4.81372,3.47915 7.06712,5.46366c2.80307,2.46816 5.82682,4.54566 8.94502,6.59655c2.20191,1.46107 4.2132,3.00731 6.16668,4.78882c0.88568,0.77885 1.80496,1.46929 2.76395,2.155c3.13574,2.31344 5.68631,5.19129 8.21033,8.13981c0.79967,0.89782 1.63855,1.72138 2.50913,2.54995c2.46088,2.42209 4.17447,5.14606 5.43396,8.34396c0.54532,1.12404 1.09816,2.24121 1.66285,3.35539c1.11571,2.20531 2.2224,4.41319 3.29415,6.64028c2.05131,4.23408 4.15457,8.20665 6.96319,11.98886c2.10209,3.00053 2.94605,5.28527 2.33283,8.89701c-1.73216,6.02651 -4.75843,11.71042 -7.49235,17.32586c-0.89894,1.85069 -1.78396,3.70781 -2.66293,5.56805c-0.23438,0.49595 -0.23438,0.49595 -0.47347,1.00193c-1.00154,2.13713 -1.91753,4.29416 -2.765,6.49761c-0.52529,1.31705 -1.14938,2.55963 -1.80946,3.8138c-0.31357,0 -0.62714,0 -0.9502,0c-0.05557,0.34236 -0.11116,0.6847 -0.16841,1.03743c-0.31692,1.38273 -0.78354,2.4743 -1.41277,3.74328c-0.22243,0.45439 -0.44485,0.90877 -0.67403,1.37693c-0.35351,0.71477 -0.35351,0.71477 -0.71416,1.44397c-1.90203,3.90196 -3.68137,7.77294 -5.10733,11.87752c-0.31357,0 -0.62714,0 -0.9502,0c-0.06998,0.47287 -0.06998,0.47287 -0.14139,0.95531c-0.42405,1.8047 -1.13376,3.44655 -1.87221,5.13935c-0.153,0.35559 -0.30601,0.71117 -0.46364,1.07753c-0.48852,1.13387 -0.98025,2.26634 -1.47202,3.3988c-0.32529,0.75402 -0.65038,1.5081 -0.97526,2.2623c-1.50574,3.49121 -3.02254,6.97702 -4.57748,10.44664c-0.31357,0 -0.62714,0 -0.9502,0c-0.05523,0.33274 -0.11047,0.66549 -0.16738,1.00831c-0.33728,1.49852 -0.84412,2.81862 -1.43052,4.23821c-0.33852,0.8245 -0.33852,0.8245 -0.68389,1.66563c-0.23671,0.57048 -0.47341,1.14096 -0.7173,1.72874c-0.46347,1.12522 -0.92682,2.25049 -1.39005,3.37581c-0.22514,0.5453 -0.45029,1.09059 -0.68226,1.65242c-0.69666,1.69689 -1.37707,3.39971 -2.05282,5.10502c-0.33977,0.83984 -0.68945,1.67571 -1.04577,2.50866c-1.5344,3.58677 -2.79953,7.21611 -3.9748,10.93496c-0.18557,0.58108 -0.37113,1.16216 -0.56233,1.76087c-1.15014,3.63255 -2.22141,7.26941 -3.13456,10.96849c-0.31179,1.13764 -0.31179,1.13764 -0.78688,1.61274c-0.15371,0.72942 -0.28921,1.46272 -0.41571,2.19733c-0.40244,2.12027 -1.10885,3.89383 -1.95979,5.87937c-0.1655,0.70889 -0.31239,1.42226 -0.44541,2.13795c-0.33055,1.72263 -0.67792,3.4386 -1.05413,5.15187c-2.50749,11.4742 -4.76641,22.99907 -7.05227,34.51904c-0.31357,0 -0.62714,0 -0.9502,0c-0.06167,0.54311 -0.12333,1.08623 -0.18686,1.6458c-0.26339,2.10111 -0.66249,4.15758 -1.09926,6.22862c-0.07861,0.37898 -0.1572,0.75795 -0.23818,1.14842c-0.16694,0.80457 -0.33448,1.60902 -0.5026,2.41335c-0.43685,2.09248 -0.86747,4.18625 -1.29881,6.27987c-0.08407,0.40757 -0.16813,0.81513 -0.25475,1.23506c-1.63284,7.9195 -2.92506,15.76991 -4.02115,23.80795c-11.60196,0 -23.20392,0 -35.15744,0c-0.01776,-2.64388 -0.03552,-5.28776 -0.05383,-8.01175c-0.02919,-3.87196 -0.06136,-7.74391 -0.09465,-11.61584c-0.00442,-0.51792 -0.00884,-1.03585 -0.0134,-1.56947c-0.13164,-15.19937 -0.35598,-30.39497 -0.66213,-45.5917c-0.01601,-0.79863 -0.03201,-1.59725 -0.04801,-2.39589c-0.14341,-7.14745 -0.2886,-14.29488 -0.44619,-21.44203c-0.35935,-16.31024 -0.65681,-32.61926 -0.70577,-48.93382c-0.00475,-1.57679 -0.0125,-3.15353 -0.02318,-4.73029c-0.07055,-11.03855 0.58938,-21.63642 2.99735,-32.44665c0.31357,0 0.62714,0 0.9502,0c-0.03919,-0.52915 -0.0784,-1.05829 -0.11878,-1.60346c0.01809,-2.60918 0.97728,-4.59084 2.01917,-6.94834c0.27026,-0.65811 0.53858,-1.31701 0.80544,-1.97649c2.52528,-6.19844 5.40301,-12.20941 8.58151,-18.10022c6.45943,-12.14102 7.73761,-25.89185 5.81628,-39.31087c-0.0741,-0.54262 -0.14821,-1.08523 -0.22456,-1.64429c-0.14888,-1.07341 -0.30302,-2.14611 -0.4621,-3.21807c-0.196,-1.33059 -0.37991,-2.6607 -0.55675,-3.99381c-0.58138,-4.19991 -1.33167,-7.91951 -3.03804,-11.82555c-0.46953,-1.17291 -0.46953,-1.17291 -0.46953,-2.59821c-0.31357,0 -0.62714,0 -0.9502,0c-0.70553,-2.11658 -0.70553,-2.11658 -1.4253,-4.2759c-0.31357,0 -0.62714,0 -0.9502,0c-0.32887,-0.61274 -0.32887,-0.61274 -0.66439,-1.23786c-2.53415,-4.62595 -5.482,-8.66563 -8.8339,-12.74049c-1.16752,-1.49915 -2.22183,-3.05568 -3.27003,-4.63966c-0.20724,-0.31246 -0.41447,-0.62492 -0.62797,-0.94684c-4.65752,-7.06042 -4.65752,-7.06042 -4.65752,-8.46609c-0.31357,0 -0.62714,0 -0.9502,0c-0.17217,-0.30862 -0.34435,-0.61726 -0.52173,-0.93523c-0.79429,-1.42141 -1.59126,-2.8413 -2.38826,-4.26117c-0.40605,-0.72803 -0.40605,-0.72803 -0.82029,-1.47077c-1.49182,-2.65307 -3.03578,-5.21928 -4.7879,-7.70936c-0.50874,-0.82667 -0.50874,-0.82667 -0.50874,-1.77687c-0.31357,0 -0.62714,0 -0.9502,0c-0.57845,-0.79686 -0.57845,-0.79686 -1.22301,-1.91153c-0.35569,-0.60689 -0.35569,-0.60689 -0.71856,-1.22602c-0.25099,-0.43445 -0.50196,-0.86889 -0.76055,-1.3165c-4.29892,-7.28924 -8.92713,-13.2607 -15.35169,-18.82586c-0.61386,-0.53426 -1.22754,-1.06875 -1.84101,-1.60346c-0.30376,-0.26457 -0.60754,-0.52915 -0.92051,-0.80173c-1.54259,-1.3663 -3.05727,-2.76274 -4.57366,-4.15795c-1.49558,-1.3755 -2.99922,-2.74102 -4.51264,-4.09693c-2.11848,-1.90015 -4.21037,-3.82781 -6.29312,-5.76697c-1.35817,-1.2602 -2.73373,-2.4947 -4.13312,-3.70906c-2.00796,-1.74924 -3.94435,-3.56752 -5.87566,-5.40055c-5.85682,-5.53874 -5.85682,-5.53874 -11.87752,-10.89762c-1.25845,-1.0879 -2.43327,-2.2223 -3.59295,-3.41479c-1.39057,-1.41483 -2.83715,-2.66184 -4.39468,-3.88988c-2.26294,-1.80973 -4.27394,-3.7756 -6.29509,-5.84968c-6.23129,-6.35494 -13.12272,-11.32309 -21.34984,-14.7875c-1.05936,-0.45528 -2.11844,-0.91119 -3.17723,-1.36777c-0.5022,-0.21565 -1.00439,-0.43131 -1.5218,-0.6535c-1.6205,-0.70593 -3.21095,-1.45709 -4.80297,-2.22494c-5.70871,-2.70517 -11.61353,-5.0049 -17.45996,-7.39375c0,-1.41105 0,-2.8221 0,-4.2759z" fill="#7f0000" stroke="none" stroke-width="1"/><path d="M207.82964,-68.88822c3.25516,-0.3562 3.25516,-0.3562 4.57586,0.50595c0.79316,0.79525 1.50857,1.62714 2.22402,2.49311c0.62095,0.70445 1.24475,1.40639 1.87071,2.10641c0.35154,0.39495 0.70307,0.78988 1.06527,1.19679c2.34205,2.55409 4.81981,4.97542 7.27869,7.41626c0.55043,0.54836 1.10073,1.09684 1.65091,1.64545c1.69516,1.68982 3.39222,3.37772 5.08959,5.06534c1.9894,1.97809 3.97797,3.95704 5.96456,5.93797c0.78398,0.78096 1.56942,1.56045 2.35494,2.33986c2.55507,2.54268 5.0235,5.12721 7.35884,7.87558c0.60304,0.65395 1.20665,1.30735 1.81133,1.95979c2.02062,2.26931 3.75474,4.71733 5.49334,7.2026c0.81151,1.15821 1.64065,2.29841 2.49428,3.42592c3.47798,4.60384 6.50021,9.43495 9.49459,14.36413c0.79281,1.29416 1.61381,2.56848 2.44231,3.84c3.22225,5.02671 6.68649,10.43866 8.19548,16.2425c0.31357,0 0.62714,0 0.9502,0c0.89708,1.83943 1.79201,3.67987 2.6852,5.5212c0.30257,0.62306 0.60568,1.24587 0.90937,1.86839c1.85535,3.80419 3.60705,7.6257 5.24849,11.5278c0.57469,1.3186 1.19334,2.58583 1.8597,3.85961c1.55971,3.05152 2.66451,6.27983 3.81751,9.50016c0.2246,0.62088 0.44947,1.24167 0.67461,1.86235c0.81311,2.24443 1.62093,4.49073 2.42631,6.73794c0.73674,2.04481 1.49651,4.06786 2.33305,6.074c1.18724,2.9374 2.00688,5.97108 2.8506,9.02134c0.94221,3.37317 1.88721,6.74482 2.89329,10.0996c0.14511,0.48451 0.29022,0.96902 0.43972,1.46821c0.95952,2.76696 2.43244,5.24983 4.2686,7.52529c2.83477,1.2599 6.33289,0.49524 9.15868,-0.41757c2.89032,-1.19013 5.53951,-2.89916 8.14352,-4.61553c3.3949,-1.84895 6.70202,-1.78499 10.49119,-1.76678c0.58081,0.00233 1.16164,0.00468 1.76006,0.00708c26.25776,0.32468 26.25776,0.32468 34.58514,4.8924c0,1.09748 0,2.19496 0,3.32571c-3.07704,0.13238 -5.69195,-0.36715 -8.67059,-1.09867c-8.84966,-2.02395 -17.77641,-2.81303 -26.84318,-2.8803c-0.57362,-0.00662 -1.14724,-0.01324 -1.73824,-0.02006c-4.04167,0.02203 -7.03647,0.58993 -10.43621,2.90037c-1.62694,1.09867 -1.62694,1.09867 -2.67244,1.09867c0,0.31357 0,0.62714 0,0.9502c-3.57421,1.76816 -6.69656,2.62362 -10.66008,2.67244c-0.35942,0.01071 -0.71885,0.02143 -1.08915,0.03248c-1.98172,-0.02634 -2.84895,-0.24295 -4.54895,-1.37426c-2.76144,-2.8695 -6.03156,-7.23192 -6.03156,-11.30777c-0.31357,0 -0.62714,0 -0.9502,0c-0.58493,-2.108 -1.16867,-4.21632 -1.75193,-6.32477c-0.08695,-0.31404 -0.1739,-0.62807 -0.26349,-0.95162c-1.05222,-3.80242 -2.08145,-7.60911 -3.06222,-11.43069c-1.54792,-6.29782 -1.54792,-6.29782 -4.01794,-12.25054c-0.40643,-0.87412 -0.40643,-0.87412 -0.40643,-2.77451c-0.31357,0 -0.62714,0 -0.9502,0c-0.17393,-0.50281 -0.34786,-1.00561 -0.52707,-1.52366c-1.94805,-5.50623 -4.22194,-10.83089 -6.64074,-16.14286c-0.3608,-0.79527 -0.3608,-0.79527 -0.72889,-1.60659c-0.21768,-0.47498 -0.43536,-0.94997 -0.65965,-1.43934c-0.47057,-1.14217 -0.47057,-1.14217 -0.47057,-2.09237c-0.31357,0 -0.62714,0 -0.9502,0c-0.09964,-0.2377 -0.19926,-0.4754 -0.30193,-0.72031c-1.43131,-3.32274 -3.11579,-6.49131 -4.8351,-9.67252c-0.42121,-0.78913 -0.42121,-0.78913 -0.85091,-1.59418c-2.20548,-4.09349 -4.62575,-8.00428 -7.2258,-11.8571c-0.89267,-1.32363 -1.75008,-2.66275 -2.5815,-4.02537c-2.08805,-3.41624 -4.23099,-6.69029 -6.72066,-9.82818c-1.29193,-1.63474 -2.45875,-3.30904 -3.58495,-5.06139c-1.55181,-2.37445 -3.26424,-4.50673 -5.11765,-6.64491c-1.90217,-2.19721 -3.69808,-4.46521 -5.46319,-6.77366c-1.29108,-1.67184 -2.67797,-3.1506 -4.17696,-4.63524c-0.69335,-0.83278 -1.37629,-1.67433 -2.04887,-2.52398c-1.87992,-2.32409 -3.87773,-4.43149 -6.02785,-6.50294c-1.63213,-1.60585 -3.18961,-3.25723 -4.72131,-4.95886c-2.04422,-2.25477 -4.16153,-4.42182 -6.32477,-6.56233c-1.98916,-1.97028 -3.93679,-3.94223 -5.74203,-6.08537c-1.36298,-1.59015 -2.8135,-3.10294 -4.24807,-4.62852c-0.81843,-1.04485 -0.81843,-1.04485 -0.81843,-2.47015z" fill="#7a0000" stroke="none" stroke-width="1"/><path d="M106.19719,429.0678v-498.1356h267.60563v498.1356z" fill="none" stroke="#000000" stroke-width="2.5"/></g></g></svg>