<svg version="1.1" xmlns="http://www.w3.org/2000/svg" xmlns:xlink="http://www.w3.org/1999/xlink" width="270.10563" height="500.6356" viewBox="0,0,270.10563,500.6356"><g transform="translate(-104.94718,70.3178)"><g data-paper-data="{&quot;isPaintingLayer&quot;:true}" fill-rule="nonzero" stroke-linecap="butt" stroke-linejoin="miter" stroke-miterlimit="10" stroke-dasharray="" stroke-dashoffset="0" style="mix-blend-mode: normal"><path d="M106.88646,12.96844c1.90844,0.38169 3.23509,0.78658 4.97286,1.56481c0.4946,0.21983 0.9892,0.43966 1.49879,0.66616c0.52041,0.23407 1.04081,0.46815 1.57699,0.70931c1.07402,0.47856 2.14816,0.95685 3.22243,1.43487c0.51577,0.23009 1.03155,0.46018 1.56295,0.69725c1.72366,0.76367 3.4565,1.50157 5.19375,2.23375c2.12654,0.90404 4.17645,1.8938 6.22767,2.95513c1.54928,0.73678 3.12396,1.37696 4.71391,2.01993c3.82428,1.55334 7.26764,3.11607 10.47196,5.77626c0.51639,0.41899 0.51639,0.41899 1.0432,0.84644c1.68221,1.41529 3.07882,2.85217 4.44383,4.58119c0.881,0.95679 1.85967,1.70647 2.8883,2.50221c1.85035,1.43642 3.5017,2.95701 5.13806,4.63317c1.66893,1.70644 3.35724,3.26892 5.22716,4.75196c2.24068,1.78171 4.22088,3.71285 6.21433,5.7577c1.91188,1.94158 3.96017,3.64009 6.09437,5.33517c1.752,1.46129 3.32278,3.07443 4.91717,4.7037c1.20827,1.21235 2.47305,2.32299 3.77187,3.43589c1.54435,1.35893 3.04285,2.76472 4.54407,4.17096c0.30777,0.28821 0.61554,0.57642 0.93264,0.87336c0.62397,0.58432 1.24794,1.16865 1.8719,1.75298c5.83716,5.45527 11.70069,10.89415 17.79968,16.05668c3.31514,2.81892 6.5375,5.59545 9.24406,9.02688c0.20701,0.26038 0.41401,0.52075 0.62729,0.78902c2.00268,2.58386 3.64979,5.32282 5.28296,8.15062c0.54634,0.93529 1.09331,1.87022 1.64091,2.80477c0.38637,0.65961 0.38637,0.65961 0.78055,1.33255c1.02649,1.73622 2.10321,3.43617 3.19922,5.12901c1.07319,1.66296 2.12204,3.34061 3.17045,5.01926c0.18204,0.29089 0.36409,0.58178 0.55165,0.88148c0.9069,1.45172 1.80909,2.90585 2.70071,4.36703c2.16553,3.54505 4.38858,7.04292 6.68732,10.50282c0.54719,0.82546 1.08961,1.65393 1.6321,2.48248c1.5952,2.41446 3.20109,4.72778 5.17147,6.85508c1.98625,2.15062 3.38247,4.48979 4.78909,7.04627c0.2389,0.42083 0.4778,0.84165 0.72393,1.27523c1.46108,2.6047 2.73696,5.24601 3.90923,7.9911c0.24654,0.54521 0.24654,0.54521 0.49805,1.10144c1.74552,3.88679 2.49152,8.04623 3.30352,12.20406c0.07312,0.35123 0.14625,0.70245 0.22159,1.06432c2.88565,14.11628 1.93527,28.66063 -4.17166,41.76276c-0.7171,1.55115 -1.41586,3.10707 -2.08455,4.67957c-1.30166,3.05236 -2.55491,5.98807 -4.4197,8.74844c-0.70262,1.13627 -1.07329,2.33856 -1.42559,3.61966c-0.31363,0 -0.62726,0 -0.95039,0c-0.12925,0.47044 -0.2585,0.94089 -0.39167,1.42559c-0.35782,1.25411 -0.75305,2.48438 -1.1917,3.71247c-3.08339,8.66242 -4.89474,17.53268 -5.54458,26.7001c-0.04127,0.55494 -0.08254,1.10988 -0.12506,1.68163c-0.29663,4.28428 -0.42471,8.54408 -0.41208,12.83819c0.00246,0.97847 0.00005,1.95682 -0.00302,2.93529c-0.00236,4.74867 0.12035,9.49257 0.25734,14.23885c0.28218,9.79321 0.43709,19.58504 0.53584,29.38173c0.01453,1.43638 0.02965,2.87276 0.04479,4.30914c0.14737,14.25745 0.19777,28.51439 0.2071,42.77248c0.00038,0.55623 0.00038,0.55623 0.00077,1.12369c0.01113,16.9534 -0.01496,33.90682 -0.03047,50.8602c-45.78993,0 -91.57986,0 -138.75737,0c0,-137.36979 0,-274.73959 0,-416.2721z" fill="#00fe19" stroke="none" stroke-width="1"/><path d="M205.72734,-69.24055c53.63067,0 107.26135,0 162.51719,0c0.78407,3.76356 1.56815,7.52711 2.37598,11.40472c0.54351,2.3836 0.54351,2.3836 1.10446,4.7631c0.15896,0.70015 0.15896,0.70015 0.32113,1.41445c0.07763,0.32171 0.15526,0.64342 0.23524,0.97487c0.7187,3.20885 0.84695,6.26404 0.82944,9.54414c0.00122,0.84438 0.00122,0.84438 0.00246,1.70582c0.00129,1.54967 -0.00165,3.09927 -0.00644,4.64893c-0.00413,1.67591 -0.00271,3.35183 -0.00199,5.02774c0.0005,2.89939 -0.00247,5.79877 -0.00783,8.69816c-0.00774,4.19196 -0.0102,8.38392 -0.01139,12.57589c-0.00208,6.80212 -0.00839,13.60422 -0.01739,20.40633c-0.00873,6.60542 -0.01545,13.21083 -0.01949,19.81625c-0.00025,0.40754 -0.0005,0.81508 -0.00076,1.23497c-0.00124,2.04463 -0.00244,4.08926 -0.00362,6.13389c-0.00984,16.94719 -0.02658,33.89436 -0.04783,50.84154c-2.51582,0.02143 -4.73454,-0.1022 -7.21705,-0.594c-3.90353,-0.73771 -7.82585,-1.30098 -11.76111,-1.84139c-0.87812,-0.12152 -0.87812,-0.12152 -1.77398,-0.24549c-5.53706,-0.75412 -10.92791,-1.22593 -16.52108,-1.2692c-0.88806,-0.02067 -0.88806,-0.02067 -1.79405,-0.04177c-5.37404,-0.03667 -9.47095,1.22115 -13.85773,4.28883c-4.33761,2.96937 -7.94711,3.63479 -13.1273,3.02938c-2.06369,-0.95223 -3.01031,-2.21904 -4.00947,-4.21737c-0.08821,-0.33323 -0.17642,-0.66646 -0.2673,-1.00979c-0.31363,0 -0.62726,0 -0.95039,0c-1.5747,-3.94724 -2.98107,-7.83247 -3.95332,-11.97841c-0.79072,-3.31521 -1.73935,-6.58126 -2.69943,-9.85093c-0.15796,-0.54629 -0.31593,-1.09257 -0.47868,-1.65541c-0.90521,-3.06049 -1.9371,-5.95385 -3.32289,-8.82861c-0.20521,-0.44349 -0.41041,-0.88698 -0.62184,-1.34392c-0.26554,-0.56968 -0.26554,-0.56968 -0.53645,-1.15087c-0.8545,-1.86696 -1.60698,-3.74624 -2.31658,-5.67266c-1.04142,-2.76288 -2.28665,-5.37121 -3.6388,-7.99144c-0.91123,-1.76889 -1.76434,-3.55159 -2.57773,-5.36789c-1.22008,-2.70644 -2.55946,-5.33797 -3.94079,-7.96511c-0.2459,-0.47014 -0.49181,-0.94028 -0.74516,-1.42466c-1.77198,-3.3721 -3.59422,-6.71358 -5.481,-10.02286c-0.82683,-1.46103 -1.55038,-2.84256 -2.16217,-4.41216c-0.87143,-1.86999 -1.95401,-3.27866 -3.24215,-4.87726c-1.35359,-1.69351 -2.58608,-3.46414 -3.81341,-5.25036c-0.26355,-0.38319 -0.52711,-0.76639 -0.79865,-1.16119c-1.95504,-2.88959 -3.70966,-5.86118 -5.40861,-8.90703c-2.09745,-3.75588 -4.33616,-7.10832 -7.00915,-10.48402c-0.46825,-0.63125 -0.934,-1.26436 -1.39775,-1.89893c-2.23654,-3.05479 -4.41549,-5.98825 -7.18363,-8.5888c-2.2839,-2.27011 -4.23873,-4.88964 -6.19426,-7.44351c-0.86323,-1.15245 -0.86323,-1.15245 -2.21263,-1.81911c-0.35283,-0.22542 -0.70567,-0.45084 -1.06919,-0.68309c0,-0.62726 0,-1.25452 0,-1.90079c-0.31363,-0.08821 -0.62726,-0.17642 -0.95039,-0.2673c-4.82386,-2.31143 -8.63196,-7.37566 -12.35511,-11.13742c-1.14372,-1.15378 -2.28748,-2.29417 -3.48044,-3.39691c-3.41787,-3.22014 -6.02443,-6.81636 -8.39947,-10.85898c0,-0.31363 0,-0.62726 0,-0.95039z" fill="#00fd0f" stroke="none" stroke-width="1"/><path d="M205.72734,-69.24055c53.63067,0 107.26135,0 162.51719,0c0,0.15681 0,0.31363 0,0.4752c-49.39667,0.23522 -49.39667,0.23522 -99.79126,0.4752c2.77724,3.1825 2.77724,3.1825 5.70236,6.17755c0.23591,0.2307 0.47182,0.46141 0.71488,0.6991c3.2349,3.14545 6.44169,5.95201 10.26475,8.37789c3.75701,2.46411 7.51283,5.05831 8.97861,9.45567c0.05566,1.13886 0.08495,2.27907 0.10024,3.41919c0.01335,0.69052 0.02697,1.38104 0.04084,2.07156c0.0195,1.08218 0.03704,2.16427 0.04965,3.24656c-0.0412,7.15335 -0.0412,7.15335 3.24702,13.31664c2.81467,2.53445 5.98961,4.65746 9.09556,6.81424c6.52049,4.57268 10.05799,11.39027 11.87991,19.12666c0.65196,3.94028 0.85752,7.82534 0.88542,11.8168c0.00384,0.53002 0.00767,1.06004 0.01162,1.60612c0.00654,1.11582 0.01165,2.23164 0.01541,3.34748c0.00548,1.13357 0.01522,2.26713 0.02924,3.40062c0.02037,1.65051 0.02797,3.30066 0.03283,4.95128c0.00832,0.50011 0.01664,1.00022 0.02521,1.51549c-0.02102,7.26421 -3.51639,12.19769 -8.14253,17.47752c-1.70993,1.57884 -3.28567,2.37984 -5.59841,2.63214c-2.28997,-0.24105 -4.17001,-0.6898 -5.76048,-2.40151c-0.73283,-0.98946 -1.41192,-1.99947 -2.08026,-3.03355c-0.49698,-0.73644 -0.99507,-1.47213 -1.49427,-2.20706c-0.23806,-0.35383 -0.47611,-0.70766 -0.72138,-1.07221c-1.09154,-1.58801 -2.30229,-3.06788 -3.52198,-4.55776c-1.12113,-1.37883 -2.20866,-2.78218 -3.29111,-4.19138c-0.30356,-0.39464 -0.30356,-0.39464 -0.61325,-0.79725c-1.28926,-1.68108 -2.55359,-3.37895 -3.81201,-5.0833c-4.40889,-5.89152 -9.08962,-11.85522 -14.38769,-16.97714c-5.65717,-5.85225 -10.18644,-13.59643 -14.1241,-20.65248c-2.09753,-3.75584 -4.33615,-7.1083 -7.00915,-10.48402c-0.46825,-0.63125 -0.934,-1.26436 -1.39775,-1.89893c-2.23654,-3.05479 -4.41549,-5.98825 -7.18363,-8.5888c-2.2839,-2.27011 -4.23873,-4.88964 -6.19426,-7.44351c-0.86323,-1.15245 -0.86323,-1.15245 -2.21263,-1.81911c-0.35283,-0.22542 -0.70567,-0.45084 -1.06919,-0.68309c0,-0.62726 0,-1.25452 0,-1.90079c-0.31363,-0.08821 -0.62726,-0.17642 -0.95039,-0.2673c-4.82386,-2.31143 -8.63196,-7.37566 -12.35511,-11.13742c-1.14372,-1.15378 -2.28748,-2.29417 -3.48044,-3.39691c-3.41787,-3.22014 -6.02443,-6.81636 -8.39947,-10.85898c0,-0.31363 0,-0.62726 0,-0.95039z" fill="#007f0c" stroke="none" stroke-width="1"/><path d="M206.20252,-68.76535c20.38593,0 40.77186,0 61.77554,0c0,0.31363 0,0.62726 0,0.95039c-0.31015,0.00201 -0.6203,0.00402 -0.93985,0.00609c-7.53898,0.04904 -15.07793,0.10066 -22.61687,0.15516c-3.64574,0.02629 -7.29148,0.05171 -10.93725,0.07507c-3.17682,0.02036 -6.35363,0.04235 -9.53043,0.06632c-1.68283,0.01264 -3.36565,0.02445 -5.0485,0.03431c-1.87643,0.01102 -3.75282,0.02569 -5.62922,0.04068c-0.5609,0.00273 -1.1218,0.00547 -1.6997,0.00829c-0.5091,0.00465 -1.0182,0.0093 -1.54273,0.0141c-0.66625,0.0046 -0.66625,0.0046 -1.34596,0.00929c-1.07797,-0.00223 -1.07797,-0.00223 -2.00984,0.54109c-0.15681,-0.62726 -0.31363,-1.25452 -0.4752,-1.90079z" fill="#006e0b" stroke="none" stroke-width="1"/><path d="M269.87886,11.06766c1.60008,0.6621 2.36931,1.41558 3.32638,2.85118c-0.62726,0.15681 -1.25452,0.31363 -1.90079,0.4752c-1.42559,-2.25718 -1.42559,-2.25718 -1.42559,-3.32638z" fill="#00d30e" stroke="none" stroke-width="1"/><path d="M106.19719,429.0678v-498.1356h267.60563v498.1356z" fill="none" stroke="#000000" stroke-width="2.5"/></g></g></svg>