<svg version="1.1" xmlns="http://www.w3.org/2000/svg" xmlns:xlink="http://www.w3.org/1999/xlink" width="685.71454" height="399.47736" viewBox="0,0,685.71454,399.47736"><g transform="translate(101.4532,19.97975)"><g data-paper-data="{&quot;isPaintingLayer&quot;:true}" fill-rule="nonzero" stroke-linecap="butt" stroke-linejoin="miter" stroke-miterlimit="10" stroke-dasharray="" stroke-dashoffset="0" style="mix-blend-mode: normal"><g stroke="none" stroke-width="1"><path d="M-100.61452,-18.27042c53.19276,0 106.38551,0 161.19016,0c0.24069,2.40691 0.48139,4.81383 0.72937,7.29367c0.48139,0 0.96276,0 1.45873,0c0.92123,3.70137 1.65593,7.09526 1.45874,10.94051c0.48139,0 0.96277,0 1.45874,0c0.87004,2.82764 1.45874,5.04446 1.45874,8.02304c0.48139,0 0.96276,0 1.45873,0c0,2.16621 0,4.33244 0,6.5643c0.48139,0 0.96277,0 1.45874,0c0.24069,1.92553 0.48139,3.85105 0.72937,5.83494c0.48139,0 0.96277,0 1.45874,0c0.72208,3.61038 0.72208,3.61038 1.45874,7.29368c0.12541,-6.74094 -0.3587,-13.26874 -1.09406,-19.96643c-0.20806,-1.92001 -0.41232,-3.84032 -0.6154,-5.76087c-0.09166,-0.83807 -0.18333,-1.67615 -0.27778,-2.53961c-0.19193,-2.26141 -0.23692,-4.47456 -0.20086,-6.74272c-0.48139,0 -0.96277,0 -1.45874,0c-0.72208,-3.61038 -1.44415,-7.22074 -2.1881,-10.94051c170.40936,0 340.81873,0 516.39201,0c0,131.17669 0,262.3534 0,397.50515c-161.74448,0 -323.48896,0 -490.1348,0c0,-0.48137 0,-0.96276 0,-1.45873c-0.96276,-0.24069 -1.92552,-0.48137 -2.91746,-0.72936c0,-0.48137 0,-0.96277 0,-1.45874c-0.96276,-0.48137 -1.92553,-0.96276 -2.91747,-1.45873c0,-0.48137 0,-0.96276 0,-1.45873c-1.44415,-0.48137 -2.88829,-0.96277 -4.3762,-1.45874c0,-0.48137 0,-0.96276 0,-1.45873c-0.48139,0 -0.96276,0 -1.45874,0c-0.90497,-1.09549 -1.80825,-2.19257 -2.6924,-3.30495c-1.14069,-1.28029 -2.2692,-1.9364 -3.87191,-2.52999c0,-0.48137 0,-0.96276 0,-1.45873c-1.20345,-0.48137 -2.40691,-0.96277 -3.64684,-1.45874c-0.24069,-1.68484 -0.48139,-3.36967 -0.72937,-5.10557c-0.48139,0 -0.96277,0 -1.45874,0c-0.48139,-1.92553 -0.96277,-3.85105 -1.45874,-5.83494c-0.48139,0 -0.96276,0 -1.45873,0c-0.0198,-1.27633 -0.03389,-2.55276 -0.04558,-3.82917c-0.00846,-0.7108 -0.01694,-1.42158 -0.02565,-2.1539c0.06252,-1.7902 0.28488,-3.25194 0.8006,-4.95742c0.48139,0 0.96277,0 1.45874,0c0.24069,-1.68484 0.48137,-3.36967 0.72936,-5.10557c0.48139,0 0.96277,0 1.45874,0c0.1053,-0.69198 0.21061,-1.38397 0.31909,-2.09693c0.41028,-2.27927 0.41028,-2.27927 1.13964,-3.73801c0.48139,0 0.96276,0 1.45873,0c0.31591,-0.94772 0.31591,-0.94772 0.6382,-1.91458c0.75975,-2.27927 1.51952,-4.55854 2.27927,-6.83781c0.48139,0 0.96276,0 1.45873,0c0.19556,-0.5265 0.39113,-1.05303 0.59261,-1.59549c0.86541,-2.04964 1.79597,-3.86321 3.05423,-5.69818c0.48139,0 0.96276,0 1.45874,0c0.07522,-0.43626 0.15043,-0.8725 0.22794,-1.32198c0.57309,-1.82347 1.20833,-2.59862 2.68955,-3.78359c0.48139,0 0.96276,0 1.45873,0c0.48139,-1.44415 0.96276,-2.88829 1.45874,-4.3762c0.48139,0 0.96276,0 1.45874,0c0.15043,-0.64686 0.30087,-1.29371 0.45586,-1.96018c1.29516,-3.12016 2.64422,-4.12567 5.37908,-6.06286c0.48139,0 0.96276,0 1.45874,0c0.24069,-0.72207 0.48139,-1.44415 0.72937,-2.1881c1.03002,-1.12365 2.12182,-2.12905 3.25936,-3.14254c3.65509,-4.03738 4.24094,-9.81457 4.45882,-15.03751c0.02725,-0.56235 0.05452,-1.12469 0.08261,-1.70408c0.34639,-7.62054 0.4825,-15.24864 0.6325,-22.87501c0.03161,-1.52142 0.06341,-3.04284 0.09544,-4.56425c0.07692,-3.67528 0.15107,-7.35062 0.22365,-11.02598c-0.48139,0 -0.96276,0 -1.45874,0c-0.14949,-0.71174 -0.29897,-1.42346 -0.45301,-2.15677c-0.29476,-1.39196 -0.29476,-1.39196 -0.59546,-2.81205c-0.29194,-1.38351 -0.29193,-1.38351 -0.58976,-2.79495c-0.50194,-2.42581 -0.50194,-2.42581 -1.27923,-4.63548c-0.09323,-1.9503 -0.03202,-3.88092 0,-5.83494c-0.72207,0 -1.44415,0 -2.1881,0c-0.07522,-0.46634 -0.15043,-0.93267 -0.22794,-1.41315c-0.24822,-0.74463 -0.24822,-0.74465 -0.50144,-1.50432c-0.72207,-0.24069 -1.44415,-0.48139 -2.1881,-0.72937c0,-0.48139 0,-0.96276 0,-1.45874c-0.48139,0 -0.96276,0 -1.45874,0c-0.48923,-2.02026 -0.975,-4.04128 -1.45874,-6.06286c-0.20873,-0.85958 -0.20871,-0.85958 -0.42166,-1.73652c-0.19744,-0.82854 -0.19744,-0.82854 -0.39888,-1.67383c-0.12223,-0.508 -0.24445,-1.016 -0.37038,-1.5394c-0.26782,-1.38662 -0.26782,-1.38662 -0.26782,-3.57472c-0.48139,0 -0.96276,0 -1.45873,0c-0.96004,-2.64012 -1.45874,-4.44598 -1.45874,-7.29367c-0.48139,0 -0.96276,0 -1.45874,0c-0.24069,-0.72207 -0.48139,-1.44416 -0.72937,-2.18811c-0.48139,-0.24069 -0.96276,-0.48139 -1.45874,-0.72936c-0.43293,-1.9318 -0.54126,-3.85979 -0.72936,-5.83494c-0.48139,0 -0.96276,0 -1.45874,0c-1.45874,-2.1881 -1.45874,-2.1881 -1.45874,-4.3762c-0.72207,-0.24069 -1.44415,-0.48139 -2.1881,-0.72937c-1.48763,-2.117 -2.44588,-4.01766 -2.91747,-6.56431c-0.48139,0 -0.96276,0 -1.45873,0c-0.43626,-0.7973 -0.87251,-1.59458 -1.32198,-2.41602c-1.10039,-1.92376 -2.1475,-3.37244 -3.78359,-4.87765c-0.89161,-1.07932 -1.78294,-2.15887 -2.6696,-3.24226c-0.94928,-1.10149 -1.98888,-2.12309 -3.02857,-3.13969c-1.59549,-1.64107 -1.59549,-1.64107 -1.59549,-3.09981c-0.72208,0 -1.44415,0 -2.1881,0c-0.24069,-0.96276 -0.48139,-1.92552 -0.72937,-2.91747c-0.48139,0 -0.96277,0 -1.45874,0c-3.64684,-3.99415 -3.64683,-3.99415 -3.64683,-5.83494c-0.48139,0 -0.96277,0 -1.45874,0c0,-0.48139 0,-0.96276 0,-1.45874c-0.72208,0 -1.44415,0 -2.1881,0c0,-0.48139 0,-0.96276 0,-1.45874c-1.20345,-0.48139 -2.40691,-0.96276 -3.64684,-1.45873c0,-0.48139 0,-0.96276 0,-1.45874c-0.48139,0 -0.96277,0 -1.45874,0c-0.07522,-0.46634 -0.15043,-0.93269 -0.22792,-1.41315c-0.16548,-0.49643 -0.33095,-0.99285 -0.50145,-1.50432c-0.72208,-0.24069 -1.44415,-0.48139 -2.1881,-0.72936c0,-0.48139 0,-0.96276 0,-1.45874c-0.72208,0 -1.44416,0 -2.1881,0c-0.93034,-1.06989 -1.85903,-2.14418 -2.71233,-3.27646c-1.01819,-1.30032 -1.01819,-1.30032 -3.12261,-2.55848c0,-0.48139 0,-0.96276 0,-1.45874c-0.43626,-0.21061 -0.8725,-0.4212 -1.32198,-0.63819c-1.59549,-0.82053 -1.59549,-0.82054 -3.78359,-2.27927c0,-0.48139 0,-0.96276 0,-1.45873c-0.67695,-0.19556 -1.3539,-0.39113 -2.05135,-0.59261c-2.15249,-0.8019 -3.19378,-1.22203 -4.51296,-3.05423c0,-0.72207 0,-1.44415 0,-2.1881c-0.48139,0 -0.96276,0 -1.45873,0c0,-0.48139 0,-0.96276 0,-1.45874c-0.54156,-0.06017 -1.08312,-0.12035 -1.64107,-0.18234c-2.40183,-0.65504 -3.36222,-1.55658 -4.92324,-3.4645c0,-0.48139 0,-0.96276 0,-1.45873c-0.58669,-0.21061 -1.17337,-0.42121 -1.77782,-0.6382c-1.86901,-0.82053 -1.86901,-0.82053 -2.59838,-2.27927c-1.47092,-0.82673 -1.47091,-0.82673 -2.91747,-1.45874c0,-0.48139 0,-0.96277 0,-1.45874c-0.72208,0 -1.44416,0 -2.1881,0c0,-0.48139 0,-0.96276 0,-1.45873c-0.72208,-0.24069 -1.44415,-0.48139 -2.1881,-0.72937c0,-0.48139 0,-0.96277 0,-1.45874c-0.97028,-0.24822 -0.97028,-0.24822 -1.96018,-0.50144c-2.75454,-1.09142 -4.15643,-2.36127 -6.06286,-4.60413c0,-0.48139 0,-0.96277 0,-1.45874c-0.72208,-0.24822 -0.72208,-0.24822 -1.45874,-0.50144c-2.83475,-1.24019 -5.57003,-2.70501 -8.02304,-4.60413c0,-0.48139 0,-0.96276 0,-1.45874c-0.65437,-0.31591 -0.65437,-0.31591 -1.32198,-0.6382c-1.59549,-0.82054 -1.59549,-0.82054 -3.78359,-2.27927c0,-0.48139 0,-0.96277 0,-1.45874c-0.96277,-0.24069 -1.92552,-0.48137 -2.91747,-0.72936c0,-0.48137 0,-0.96276 0,-1.45873c-1.20345,-0.24069 -2.40691,-0.48139 -3.64684,-0.72937c0,-0.72208 0,-1.44415 0,-2.1881c-0.43624,-0.07522 -0.8725,-0.15043 -1.32198,-0.22794c-1.87245,-0.58848 -2.40516,-1.3111 -3.78359,-2.68953c-1.66955,-1.04067 -3.37842,-1.97243 -5.10558,-2.91747c0,-0.48137 0,-0.96276 0,-1.45873c-1.01541,-0.29335 -1.01541,-0.29335 -2.05135,-0.59261c-2.24137,-0.83502 -2.96409,-1.36455 -4.51296,-3.05422c-1.53159,-0.85756 -1.53159,-0.85756 -2.91747,-1.45874c0,-0.72207 0,-1.44415 0,-2.1881c-1.44415,-0.36103 -1.44413,-0.36104 -2.91746,-0.72937c0,-0.48139 0,-0.96277 0,-1.45874c-0.4513,-0.1053 -0.9026,-0.21059 -1.36756,-0.31909c-1.54991,-0.41028 -1.54991,-0.41028 -3.00864,-1.13964c0,-0.48139 0,-0.96277 0,-1.45874c-1.03799,-0.27078 -1.03799,-0.27077 -2.09694,-0.54701c-2.66118,-1.06448 -2.54525,-1.44364 -3.73801,-3.82917c-1.01541,-0.33848 -1.01541,-0.33848 -2.05135,-0.68378c-3.33443,-1.11147 -5.20718,-3.07479 -6.929,-6.10844c-0.16548,-0.40616 -0.33095,-0.81233 -0.50144,-1.23081c-0.96276,0 -1.92553,0 -2.91747,0c0,-0.48139 0,-0.96276 0,-1.45874c-0.58669,-0.21061 -1.17337,-0.42121 -1.77784,-0.6382c-1.86901,-0.82054 -1.86901,-0.82054 -2.59836,-2.27927c-1.47092,-0.82675 -1.47092,-0.82675 -2.91747,-1.45874c0,-0.48139 0,-0.96277 0,-1.45874c-0.78978,-0.29335 -0.78976,-0.29333 -1.59549,-0.59261c-3.00772,-1.26992 -5.77909,-2.69153 -7.88628,-5.24233c0,-0.48139 0,-0.96276 0,-1.45873c-0.96276,-0.24069 -1.92552,-0.48139 -2.91747,-0.72937c0,-0.48139 0,-0.96276 0,-1.45873c-0.58668,-0.21061 -1.17337,-0.42121 -1.77784,-0.6382c-1.86901,-0.82054 -1.86901,-0.82054 -2.59838,-2.27927c-0.58669,-0.21061 -1.17337,-0.42121 -1.77784,-0.63819c-2.23012,-0.97908 -2.31138,-1.63754 -3.32775,-3.73801c-0.96276,-0.24069 -1.92552,-0.48139 -2.91747,-0.72937c0,-12.27525 0,-24.55051 0,-37.19773z" fill="#007e0b"/><path d="M67.86931,-18.27042c170.40936,0 340.81873,0 516.39201,0c0,131.17669 0,262.3534 0,397.50515c-161.74448,0 -323.48896,0 -490.1348,0c0,-0.24069 0,-0.48137 0,-0.72936c161.5038,0 323.00759,0 489.40542,0c0,-130.69532 0,-261.39064 0,-396.04642c-169.44659,0 -338.89321,0 -513.47454,0c0.24069,3.36967 0.48139,6.73935 0.72937,10.21115c-0.24069,0 -0.48139,0 -0.72937,0c-0.72208,-3.61038 -1.44415,-7.22074 -2.1881,-10.94051z" fill="#003f05"/><path d="M70.78678,351.51878c0.72208,0 1.44415,0 2.1881,0c0.22565,0.83491 0.22565,0.83489 0.45586,1.68666c1.30973,2.55993 2.77624,3.07318 5.37908,4.14826c0,0.96276 0,1.92553 0,2.91747c0.4212,0.04513 0.84243,0.09026 1.2764,0.13675c2.2886,0.82644 3.11214,2.32645 4.55856,4.23945c0.72207,0.48137 1.44415,0.96277 2.1881,1.45874c0,0.48137 0,0.96276 0,1.45873c0.81234,0.0677 0.81234,0.0677 1.64107,0.13676c2.61119,0.77148 3.31969,2.1014 4.92323,4.23945c0.72207,0.24069 1.44415,0.48139 2.1881,0.72937c0.36103,1.08311 0.36104,1.08311 0.72937,2.1881c1.82668,0.88887 1.82668,0.88889 3.64684,1.45874c0,0.48137 0,0.96276 0,1.45873c0.72207,0.36103 0.72208,0.36104 1.45874,0.72937c-1.15455,0.03966 -2.3095,0.06781 -3.4645,0.09117c-0.96465,0.02539 -0.96465,0.02539 -1.94878,0.05129c-1.96324,-0.14873 -3.11963,-0.60523 -4.79787,-1.60119c0,-0.48137 0,-0.96277 0,-1.45874c-0.96276,-0.48137 -1.92553,-0.96276 -2.91747,-1.45873c0,-0.48137 0,-0.96276 0,-1.45873c-1.44415,-0.48137 -2.88829,-0.96277 -4.3762,-1.45874c0,-0.48137 0,-0.96276 0,-1.45873c-0.48139,0 -0.96276,0 -1.45874,0c-0.90497,-1.09549 -1.80825,-2.19257 -2.6924,-3.30495c-1.14069,-1.28029 -2.2692,-1.9364 -3.87191,-2.52999c0,-0.48137 0,-0.96276 0,-1.45873c-0.57165,-0.13539 -1.14329,-0.27078 -1.73224,-0.41028c-1.9146,-1.04846 -1.9146,-1.04846 -2.87189,-3.41891c-0.45052,-2.45743 -0.62281,-4.62315 -0.50144,-7.11133z" fill="#00d915"/><path d="M72.97488,7.25744c0.24069,0.48137 0.48139,0.96276 0.72937,1.45873c0.48139,0 0.96277,0 1.45874,0c0.95414,8.7813 1.7031,17.41892 1.45873,26.25722c-0.96276,-0.48139 -1.92552,-0.96277 -2.91746,-1.45874c0.01269,-1.37645 0.01269,-1.37645 0.02563,-2.78071c0.04935,-7.86251 -0.14181,-15.63636 -0.755,-23.47651z" fill="#002903"/><path d="M105.79641,226.79698c2.92856,2.92856 3.00918,4.68654 3.02341,8.66248c0.00466,0.88118 0.00932,1.76234 0.0141,2.67022c0.00081,0.95275 0.00162,1.9055 0.00246,2.88712c0.00234,0.98739 0.00479,1.97477 0.00735,2.96217c0.00437,2.06927 0.00573,4.13853 0.00529,6.2078c-0.00007,2.64963 0.00988,5.29909 0.02243,7.94869c0.00811,2.03921 0.00959,4.07837 0.00921,6.1176c0.00129,1.45124 0.00919,2.90248 0.01717,4.35371c-0.00224,0.88346 -0.00448,1.76693 -0.0068,2.67717c0.00104,0.77731 0.00208,1.55461 0.00315,2.35547c-0.18004,2.02197 -0.59614,3.22217 -1.63906,4.94265c-0.06317,-9.60833 0.13682,-19.20484 0.36469,-28.81002c0.03525,-1.52806 0.0704,-3.05611 0.10542,-4.58419c0.08502,-3.6991 0.17168,-7.39816 0.25927,-11.09721c-0.48139,0 -0.96276,0 -1.45874,0c-0.24069,-2.40691 -0.48139,-4.81383 -0.72936,-7.29367z" fill="#004106"/><path d="M75.16299,24.03287c0.48139,0 0.96276,0 1.45873,0c0,3.61038 0,7.22074 0,10.94051c-0.96276,-0.48139 -1.92552,-0.96277 -2.91746,-1.45874c0,-1.44415 0,-2.88828 0,-4.3762c0.24069,0 0.48137,0 0.72936,0c0.24069,-1.68484 0.48139,-3.36968 0.72937,-5.10558z" fill="#004706"/><path d="M64.95184,-0.03624c1.4434,2.6521 1.84174,5.02115 2.18811,8.02304c0.48139,0 0.96276,0 1.45873,0c0,1.68484 0,3.36967 0,5.10557c-0.24069,0 -0.48137,0 -0.72936,0c0,-1.20345 0,-2.40691 0,-3.64684c-0.48139,0 -0.96277,0 -1.45874,0c-1.30126,-2.23366 -1.62562,-3.80786 -1.54991,-6.38197c0.01316,-0.58293 0.02633,-1.16585 0.03989,-1.76644c0.01692,-0.44002 0.03385,-0.88004 0.05128,-1.33338z" fill="#003505"/><path d="M67.86931,-18.27042c0.72208,0 1.44415,0 2.1881,0c0.24069,3.61038 0.48139,7.22074 0.72937,10.94051c-0.24069,0 -0.48139,0 -0.72937,0c-0.72208,-3.61038 -1.44415,-7.22074 -2.1881,-10.94051z" fill="#003a05"/><path d="M105.79641,226.79698c2.1881,2.1881 2.1881,2.1881 2.32486,4.87765c-0.04513,0.7973 -0.09026,1.59458 -0.13676,2.41602c-0.48139,0 -0.96276,0 -1.45874,0c-0.24069,-2.40691 -0.48139,-4.81383 -0.72936,-7.29367z" fill="#003905"/><path d="M68.98768,-18.60252c168.74311,0 337.48621,0 511.34274,0c0,130.83237 0,261.66474 0,396.46172c-159.87038,0 -319.74076,0 -484.45568,0c0,-0.16133 0,-0.32265 0,-0.48885c5.05257,-0.43922 10.06235,-0.55801 15.12988,-0.54901c0.82083,-0.00036 1.64169,-0.00094 2.46252,-0.00171c2.24719,-0.00149 4.49438,0.00004 6.74158,0.0021c2.44789,0.00169 4.89577,0.00052 7.34367,-0.00027c4.2873,-0.00101 8.57462,-0.00022 12.86192,0.00178c6.37504,0.00295 12.75009,0.0031 19.12512,0.00268c10.72452,-0.00064 21.44904,0.00098 32.17357,0.00392c10.61786,0.00289 21.2357,0.00479 31.85356,0.00529c0.32998,0.00001 0.65995,0.00003 0.99995,0.00006c3.01394,0.00016 6.02787,0.00029 9.04182,0.00042c7.49168,0.0003 14.98338,0.00078 22.47506,0.00136c0.34112,0.00003 0.68224,0.00006 1.0337,0.00009c16.58598,0.00129 33.17195,0.00437 49.75794,0.00759c5.75434,0.00111 11.50869,0.00224 17.26303,0.00331c0.53534,0.0001 0.53534,0.0001 1.0815,0.0002c16.5952,0.00311 33.19041,0.00492 49.78563,0.00641c1.08604,0.00009 2.1721,0.0002 3.25814,0.0003c12.51545,0.00114 25.0309,0.0022 37.54634,0.00325c54.51435,0.00459 109.0287,0.01441 163.54304,0.0234c0,-130.02576 0,-260.05152 0,-394.01745c-167.9365,0 -335.87298,0 -508.89846,0c0.16133,2.25851 0.32265,4.51703 0.48885,6.84397c-0.32265,0 -0.64529,0 -0.9777,0c-0.02962,-0.30626 -0.05923,-0.61252 -0.08975,-0.92806c-0.04096,-0.39952 -0.08191,-0.79905 -0.12412,-1.21069c-0.03971,-0.39701 -0.0794,-0.794 -0.1203,-1.20305c-0.10135,-1.07881 -0.10135,-1.07881 -0.64354,-2.03563c0,-0.96794 0,-1.93586 0,-2.93314z" fill="#005608"/><path d="M-100.15631,-18.60252c53.07503,0 106.15006,0 160.83342,0c0,0.64529 0,1.29058 0,1.95542c-0.32265,0 -0.64529,0 -0.9777,0c0,-0.32265 0,-0.64529 0,-0.9777c-52.42974,0 -104.85949,0 -158.878,0c0,11.93786 0,23.8757 0,36.1753c-0.32265,-0.32265 -0.64529,-0.64529 -0.9777,-0.9777c0,-11.93786 0,-23.8757 0,-36.1753z" fill="#004b07"/><path d="M70.9431,349.99444c0.64529,0 1.29058,0 1.95542,0c0,0.64529 0,1.29058 0,1.95542c0.32265,0 0.64529,0 0.9777,0c0,0.32265 0,0.64529 0,0.9777c0.32265,0 0.64529,0 0.9777,0c0,0.32265 0,0.64529 0,0.9777c0.32265,0 0.64529,0 0.9777,0c0,0.32265 0,0.64529 0,0.9777c0.64529,0 1.29058,0 1.95542,0c0.8555,0.61108 0.8555,0.61108 1.46657,1.46657c0,0.64529 0,1.29058 0,1.95542c0.32265,0 0.64529,0 0.9777,0c0,0.32265 0,0.64529 0,0.9777c0.64529,0 1.29058,0 1.95542,0c0,0.32265 0,0.64529 0,0.9777c0.32265,0 0.64529,0 0.9777,0c0,0.32265 0,0.64529 0,0.9777c0.32265,0 0.64529,0 0.9777,0c0,0.32265 0,0.64529 0,0.9777c0.32265,0 0.64529,0 0.9777,0c0,0.32265 0,0.64529 0,0.9777c0.32265,0 0.64529,0 0.9777,0c0,0.32265 0,0.64529 0,0.9777c0.32265,0 0.64529,0 0.9777,0c0,0.32265 0,0.64529 0,0.9777c0.48396,0 0.96794,0 1.46657,0c0,0.32265 0,0.64529 0,0.9777c0.64529,0.16133 1.29058,0.32265 1.95542,0.48885c0,0.32265 0,0.64529 0,0.9777c0.32265,0 0.64529,0 0.9777,0c0,0.32265 0,0.64529 0,0.9777c0.32265,0 0.64529,0 0.9777,0c0,0.32265 0,0.64529 0,0.9777c0.32265,0 0.64529,0 0.9777,0c0,0.32265 0,0.64529 0,0.9777c0.64529,0 1.29058,0 1.95542,0c0.24198,0.96794 0.24198,0.96794 0.48885,1.95542c0.32265,0 0.64529,0 0.9777,0c0,0.32265 0,0.64529 0,0.9777c0.32265,0 0.64529,0 0.9777,0c0,0.32265 0,0.64529 0,0.9777c0.64529,0 1.29058,0 1.95542,0c0,0.32265 0,0.64529 0,0.9777c0.64529,0.16133 1.29058,0.32265 1.95542,0.48885c0,0.48396 0,0.96794 0,1.46657c-0.94701,0.02643 -1.89423,0.04538 -2.84147,0.06111c-0.52744,0.01134 -1.05489,0.02268 -1.59833,0.03437c-1.42647,-0.09548 -1.42647,-0.09548 -2.89304,-1.0732c0,-0.32265 0,-0.64529 0,-0.9777c-0.32265,0 -0.64529,0 -0.9777,0c0,-0.32265 0,-0.64529 0,-0.9777c-0.64529,0 -1.29058,0 -1.95542,0c0,-0.32265 0,-0.64529 0,-0.9777c-0.32265,0 -0.64529,0 -0.9777,0c0,-0.32265 0,-0.64529 0,-0.9777c-0.32265,0 -0.64529,0 -0.9777,0c0,-0.32265 0,-0.64529 0,-0.9777c-0.32265,0 -0.64529,0 -0.9777,0c0,-0.32265 0,-0.64529 0,-0.9777c-0.32265,0 -0.64529,0 -0.9777,0c0,-0.32265 0,-0.64529 0,-0.9777c-0.38314,-0.15123 -0.76629,-0.30249 -1.16103,-0.4583c-1.28324,-0.51942 -1.28324,-0.51942 -2.26096,-1.00827c0,-0.32265 0,-0.64529 0,-0.9777c-0.32265,0 -0.64529,0 -0.9777,0c0,-0.32265 0,-0.64529 0,-0.9777c-0.32265,0 -0.64529,0 -0.9777,0c0,-0.32265 0,-0.64529 0,-0.9777c-0.32265,0 -0.64529,0 -0.9777,0c0,-0.32265 0,-0.64529 0,-0.9777c-0.32265,0 -0.64529,0 -0.9777,0c0,-0.32265 0,-0.64529 0,-0.9777c-0.32265,0 -0.64529,0 -0.9777,0c0,-0.32265 0,-0.64529 0,-0.9777c-0.64529,0 -1.29058,0 -1.95542,0c0,-0.32265 0,-0.64529 0,-0.9777c-0.32265,0 -0.64529,0 -0.9777,0c0,-0.32265 0,-0.64529 0,-0.9777c-0.48396,0 -0.96794,0 -1.46657,0c0,-0.32265 0,-0.64529 0,-0.9777c-0.64529,-0.16133 -1.29058,-0.32265 -1.95542,-0.48885c0,-0.96794 0,-1.93586 0,-2.93314c-0.32265,0 -0.64529,0 -0.9777,0c0,-0.64529 0,-1.29058 0,-1.95542c-0.32265,0 -0.64529,0 -0.9777,0c0,-1.29058 0,-2.58115 0,-3.91085z" fill="#00ed18"/><path d="M106.14067,225.33631c1.62141,3.11811 2.62203,5.48608 2.69444,9.04c0.01326,0.5305 0.01326,0.5305 0.02679,1.07169c0.02701,1.1717 0.04345,2.34325 0.05915,3.51515c0.01552,0.8273 0.03132,1.65458 0.04739,2.48188c0.04954,2.7779 0.07889,5.55586 0.10539,8.33406c0.00535,0.52394 0.01072,1.04786 0.01623,1.58768c0.03275,3.29938 0.05625,6.59867 0.06894,9.89818c0.00432,1.08121 0.00997,2.16242 0.01691,3.24362c0.00865,1.51981 0.01065,3.03947 0.01057,4.55929c0.00349,0.45843 0.00697,0.91689 0.01056,1.38922c-0.00148,0.41864 -0.00295,0.83726 -0.00447,1.26857c0.00069,0.36586 0.0014,0.73173 0.00211,1.10867c-0.12087,0.89867 -0.12087,0.89867 -1.09858,1.87637c0,-13.87372 0,-27.74744 0,-42.04156c-0.32265,0 -0.64529,0 -0.9777,0c0,-1.12925 0,-2.25851 0,-3.42199c-0.32265,0 -0.64529,0 -0.9777,0c0,-1.29058 0,-2.58115 0,-3.91085z" fill="#004507"/><path d="M73.87623,10.23994c0.32265,0 0.64529,0 0.9777,0c0.02962,0.518 0.05923,1.036 0.08975,1.56969c0.04127,0.67854 0.08264,1.35708 0.12412,2.03563c0.01922,0.34156 0.03843,0.6831 0.05824,1.035c0.09101,1.89744 0.09101,1.89744 0.70559,3.67025c0.15399,1.50569 0.24972,3.01184 0.35136,4.52192c0.0553,1.32415 0.0553,1.32415 0.62634,2.32207c0.04094,0.74379 0.05245,1.48932 0.04775,2.23421c-0.00236,0.65695 -0.00236,0.65695 -0.00477,1.32717c-0.00409,0.45813 -0.00819,0.91626 -0.01241,1.38827c-0.0022,0.4619 -0.00441,0.92382 -0.00668,1.39974c-0.00577,1.1426 -0.01381,2.28514 -0.02387,3.42771c-0.93952,-0.15849 -0.93952,-0.15849 -1.95542,-0.48885c-0.7814,-1.75818 -0.9777,-2.94974 -0.9777,-4.88855c0.32265,0 0.64529,0 0.9777,0c0.16133,-3.38776 0.32265,-6.77554 0.48885,-10.26596c-0.32265,0 -0.64529,0 -0.9777,0c-0.16133,-3.06513 -0.32265,-6.13025 -0.48885,-9.28824z" fill="#001d02"/><path d="M75.83164,24.41674c0.9777,0.9777 0.9777,0.9777 1.0887,1.98621c-0.00512,0.40448 -0.01024,0.80897 -0.01552,1.22572c-0.00315,0.43796 -0.00631,0.87593 -0.00955,1.32717c-0.00819,0.45813 -0.01639,0.91626 -0.02482,1.38827c-0.00441,0.4619 -0.00882,0.92382 -0.01337,1.39974c-0.01154,1.1427 -0.02764,2.28514 -0.04775,3.42771c-0.93952,-0.15849 -0.93952,-0.15849 -1.95542,-0.48885c-0.7814,-1.75818 -0.9777,-2.94974 -0.9777,-4.88855c0.32265,0 0.64529,0 0.9777,0c0,1.29058 0,2.58115 0,3.91085c0.32265,0 0.64529,0 0.9777,0c0,-3.06513 0,-6.13025 0,-9.28824z" fill="#005308"/><path d="M73.87623,10.23994c0.32265,0 0.64529,0 0.9777,0c0.02962,0.518 0.05923,1.036 0.08975,1.56969c0.04127,0.67854 0.08264,1.35708 0.12412,2.03563c0.01922,0.34156 0.03843,0.6831 0.05824,1.035c0.09101,1.89744 0.09101,1.89744 0.70559,3.67025c0.06558,1.3064 0.0211,2.60194 0,3.91085c-0.16133,0 -0.32265,0 -0.48885,0c0,-0.96794 0,-1.93586 0,-2.93314c-0.32265,0 -0.64529,0 -0.9777,0c-0.16133,-3.06513 -0.32265,-6.13025 -0.48885,-9.28824z" fill="#003405"/><path d="M65.56569,3.88482c0.48396,0.24198 0.48396,0.24198 0.9777,0.48885c0,0.64529 0,1.29058 0,1.95542c0.32265,0 0.64529,0 0.9777,0c0,0.96794 0,1.93586 0,2.93314c0.32265,0 0.64529,0 0.9777,0c0,0.96794 0,1.93586 0,2.93314c-0.16133,-0.64529 -0.32265,-1.29058 -0.48885,-1.95542c-0.32265,0 -0.64529,0 -0.9777,0c0,-0.64529 0,-1.29058 0,-1.95542c-0.32265,0 -0.64529,0 -0.9777,0c-0.16133,-1.4519 -0.32265,-2.9038 -0.48885,-4.3997z" fill="#003d06"/><path d="M106.14067,225.33631c1.29287,2.21635 1.95542,4.77758 1.95542,7.33282c-0.32265,0 -0.64529,0 -0.9777,0c0,-1.12925 0,-2.25851 0,-3.42199c-0.32265,0 -0.64529,0 -0.9777,0c0,-1.29058 0,-2.58115 0,-3.91085z" fill="#003605"/></g><path d="M-100.20319,378.24761v-396.97736h682.25463v396.97736z" fill="none" stroke="#000000" stroke-width="2.5"/></g></g></svg>