<svg version="1.1" xmlns="http://www.w3.org/2000/svg" xmlns:xlink="http://www.w3.org/1999/xlink" width="684.75463" height="399.47736" viewBox="0,0,684.75463,399.47736"><g transform="translate(101.4532,19.97975)"><g data-paper-data="{&quot;isPaintingLayer&quot;:true}" fill-rule="nonzero" stroke-linecap="butt" stroke-linejoin="miter" stroke-miterlimit="10" stroke-dasharray="" stroke-dashoffset="0" style="mix-blend-mode: normal"><g stroke="none" stroke-width="1"><path d="M-100.64515,14.15078c0.64529,0.16133 1.29058,0.32265 1.95542,0.48887c0,0.32265 0,0.64529 0,0.97772c0.30249,0.1109 0.60496,0.22182 0.9166,0.33609c1.03882,0.64163 1.03883,0.64163 1.52768,1.89432c0.16133,0.39322 0.32264,0.78645 0.48885,1.19158c0.64603,0.18458 1.29956,0.3431 1.95542,0.48885c1.08179,0.73976 1.96737,1.54437 2.93314,2.44427c0,0.32265 0,0.64529 0,0.97772c0.26214,0.04033 0.5243,0.08067 0.79439,0.12221c1.588,0.50148 2.76815,1.32755 4.09416,2.32206c0,0.32265 0,0.64529 0,0.97772c0.80661,0.16133 1.61323,0.32264 2.44427,0.48885c0,0.48396 0,0.96794 0,1.46657c0.32265,0 0.64529,0 0.97772,0c0,0.32265 0,0.64529 0,0.97772c0.26214,0.06049 0.5243,0.12098 0.79439,0.18331c1.38778,0.36521 2.73623,0.82033 4.09416,1.28324c0,0.32265 0,0.64529 0,0.97772c0.30249,0.13107 0.60496,0.26214 0.9166,0.39719c1.03882,0.58053 1.03882,0.58053 2.01653,2.04708c0.90565,0.50698 0.90565,0.50699 1.92487,0.9166c1.7989,0.84884 2.65845,1.59714 3.45254,3.48309c0,0.32265 0,0.64529 0,0.97772c0.51422,0.04538 0.51422,0.04538 1.03882,0.09166c1.9379,0.54766 2.88286,1.45345 4.3386,2.84147c0,0.32265 0,0.64529 0,0.97772c0.26466,0.04096 0.52932,0.08193 0.80203,0.12412c1.55302,0.49109 2.65224,1.32983 3.96431,2.2896c0.48145,0.34723 0.96289,0.69445 1.45893,1.0522c0.3655,0.30816 0.73099,0.6163 1.10757,0.93379c0,0.32265 0,0.64529 0,0.9777c0.25206,0.04033 0.50413,0.08067 0.76383,0.12221c3.01512,0.92774 4.87535,2.58384 7.05785,4.76634c0.84512,0.4917 1.6907,0.98324 2.55121,1.44747c1.42931,0.83376 2.59039,1.82751 3.8039,2.95223c0,0.32265 0,0.64529 0,0.97772c0.32265,0 0.64529,0 0.97772,0c0,0.32265 0,0.64529 0,0.97772c0.31255,0.05041 0.62512,0.10082 0.94715,0.15276c0.33272,0.1109 0.66545,0.22182 1.00827,0.33609c0.16133,0.48396 0.32264,0.96794 0.48885,1.46657c0.64607,0.18438 1.29953,0.34323 1.95542,0.48887c1.15339,0.65498 1.15339,0.65498 2.32206,1.436c0.39071,0.25647 0.7814,0.51295 1.18394,0.77721c0.29491,0.23757 0.58984,0.47515 0.89369,0.71991c0,0.32265 0,0.64529 0,0.97772c0.49909,0.15123 0.49909,0.15123 1.00827,0.30554c1.88399,0.88186 3.42951,2.09036 4.858,3.60531c0,0.32265 0,0.64529 0,0.97772c0.30249,0.07059 0.60496,0.14116 0.9166,0.21388c1.03882,0.27498 1.03882,0.27499 2.01653,0.76384c0,0.32265 0,0.64529 0,0.97772c0.26971,0.04096 0.53942,0.08191 0.8173,0.12412c1.50681,0.48288 2.47711,1.29719 3.70461,2.2896c0.43608,0.34723 0.87215,0.69444 1.32144,1.05218c0.3302,0.30816 0.6604,0.6163 1.00063,0.93379c0,0.32265 0,0.64529 0,0.97772c0.48396,0 0.96794,0 1.46657,0c0,0.32265 0,0.64529 0,0.97772c0.46885,0.07562 0.46885,0.07562 0.94715,0.15276c0.33272,0.1109 0.66545,0.2218 1.00827,0.33609c0.16133,0.48396 0.32264,0.96794 0.48885,1.46657c0.48396,0 0.96794,0 1.46657,0c0,0.32265 0,0.64529 0,0.97772c0.27412,0.04348 0.54824,0.08696 0.83067,0.13176c1.44056,0.45736 2.31397,1.19788 3.47737,2.15975c0.42537,0.351 0.85073,0.702 1.28898,1.06364c0.41151,0.3447 0.82299,0.68939 1.24696,1.04454c0.35605,0.28925 0.71207,0.57849 1.07893,0.87651c0.80168,0.66126 1.57563,1.35593 2.34307,2.05664c0,0.32265 0,0.64529 0,0.9777c0.42443,0.08696 0.42441,0.08696 0.8574,0.17569c3.03197,0.86478 5.30238,2.99285 7.45314,5.20173c0.37305,0.21174 0.74612,0.42347 1.13048,0.64163c1.7057,1.07101 2.97109,2.43455 4.35959,3.88411c0.8139,0.88902 0.81392,0.88902 1.84275,1.34054c0,0.32265 0,0.64529 0,0.97772c0.32265,0 0.64529,0 0.97772,0c0,0.32265 0,0.64529 0,0.9777c0.27223,0.04033 0.54447,0.08067 0.82494,0.12221c1.49067,0.48346 2.42687,1.26983 3.57475,2.32206c0,0.32265 0,0.64529 0,0.97772c0.32265,0 0.64529,0 0.97772,0c0,0.32265 0,0.64529 0,0.97772c0.26214,0.03025 0.5243,0.06049 0.79439,0.09166c1.73312,0.59291 2.75432,1.59299 4.09416,2.84149c0,0.32265 0,0.64529 0,0.9777c0.32265,0 0.64529,0 0.97772,0c0,0.32265 0,0.64529 0,0.97772c0.27223,0.03025 0.54447,0.06049 0.82494,0.09166c1.59169,0.55924 2.40498,1.64318 3.57476,2.84149c0.37494,0.21487 0.7499,0.42976 1.13619,0.65116c1.54906,0.96561 2.66862,2.10001 3.93567,3.41244c1.54109,1.58334 3.08885,3.11652 4.79689,4.52192c0.45372,0.39322 0.90743,0.78645 1.3749,1.19158c0,0.32265 0,0.64529 0,0.97772c0.32265,0 0.64529,0 0.97772,0c0,0.32265 0,0.64529 0,0.9777c0.28483,0.04601 0.56967,0.092 0.86314,0.1394c1.3362,0.42749 1.95188,1.02925 2.92548,2.0299c0.29996,0.30185 0.59993,0.6037 0.90897,0.91469c0.67981,0.82685 0.67981,0.82685 0.67981,1.80457c0.32265,0 0.64529,0 0.97772,0c0,0.32265 0,0.64529 0,0.97772c0.32265,0 0.64529,0 0.97772,0c0,0.32265 0,0.64529 0,0.97772c0.32265,0 0.64529,0 0.97772,0c0,0.32265 0,0.64529 0,0.97772c0.32265,0 0.64529,0 0.97772,0c0,0.32265 0,0.64529 0,0.97772c0.38314,0.15123 0.76629,0.30247 1.16103,0.45829c1.28324,0.51942 1.28324,0.51942 2.26094,1.00827c0,0.32265 0,0.64529 0,0.97772c0.64529,0.16133 1.29058,0.32264 1.95542,0.48885c0,0.32265 0,0.64529 0,0.97772c0.32265,0 0.64529,0 0.97772,0c0,0.32265 0,0.64529 0,0.97772c0.32265,0 0.64529,0 0.97772,0c0,0.32265 0,0.64529 0,0.97772c0.32265,0 0.64529,0 0.9777,0c0,0.32265 0,0.64529 0,0.9777c0.32265,0 0.64529,0 0.97772,0c0,0.32265 0,0.64529 0,0.97772c0.32265,0 0.64529,0 0.97772,0c0.93787,1.40678 1.71138,2.87753 2.44427,4.3997c0.32265,0 0.64529,0 0.97772,0c0,0.32265 0,0.64529 0,0.97772c0.32265,0 0.64529,0 0.97772,0c0,0.32265 0,0.64529 0,0.97772c0.32265,0 0.64529,0 0.97772,0c0,0.32265 0,0.64529 0,0.9777c0.32265,0 0.64529,0 0.9777,0c0.50797,0.80298 0.99306,1.6205 1.46657,2.44427c0.62653,0.84651 1.26866,1.68167 1.92487,2.50538c0.32706,0.41465 0.65411,0.82929 0.99107,1.25651c0.93743,1.13867 0.93745,1.13867 2.03372,1.90385c0.97199,0.73101 1.37402,1.29911 1.92487,2.36981c0.55662,1.04284 1.08445,1.92297 1.80266,2.87204c0.61108,0.82494 0.61108,0.82494 0.61108,1.80266c0.48396,0.16133 0.96794,0.32264 1.46657,0.48885c0.51942,0.86887 0.5194,0.86887 0.9777,1.92487c0.696,1.59789 0.9163,1.94503 2.44427,2.96369c0.50402,1.13405 0.99208,2.27529 1.46657,3.42199c0.48029,0.65815 0.96635,1.31229 1.46657,1.95542c0,0.32265 0,0.64529 0,0.97772c0.32265,0 0.64529,0 0.97772,0c0.41077,0.86408 0.81735,1.73013 1.22213,2.59705c0.22687,0.48207 0.45372,0.96415 0.68745,1.46084c0.53468,1.31953 0.53468,1.31953 0.53468,2.7861c0.32265,0 0.64529,0 0.97772,0c0,0.64529 0,1.29058 0,1.95542c0.32265,0 0.64529,0 0.9777,0c0.22212,0.59456 0.22212,0.59456 0.44875,1.20114c1.20979,3.19755 2.48957,6.3153 3.99104,9.38754c0.44875,1.14384 0.44875,1.14384 0.44875,3.09928c0.32265,0 0.64529,0 0.97772,0c0.0649,0.52367 0.12982,1.04734 0.19669,1.58687c0.08709,0.68301 0.1743,1.36601 0.26161,2.04899c0.04254,0.34564 0.08508,0.69129 0.1289,1.04742c0.08848,1.71496 0.08848,1.71496 0.87937,3.13842c0.10244,0.87366 0.17996,1.75031 0.24443,2.6276c0.11359,1.53755 0.24383,2.748 0.73328,4.21638c0.06249,1.30718 0.02147,2.60117 0,3.91085c0.32265,0 0.64529,0 0.97772,0c0.13328,0.4868 0.13328,0.4868 0.26925,0.98344c0.66739,2.34443 1.37269,4.27227 2.66389,6.34938c1.31958,3.37247 1.10169,6.8137 1.07318,10.38626c-0.00184,0.67465 -0.00323,1.34929 -0.00419,2.02394c-0.00372,1.76566 -0.01331,3.53124 -0.02416,5.29687c-0.01004,1.80569 -0.01448,3.6114 -0.01938,5.41713c-0.01046,3.53564 -0.02711,7.07123 -0.04775,10.60682c0.32265,0 0.64529,0 0.97772,0c0,5.32364 0,10.64727 0,16.13223c-0.32265,0 -0.64529,0 -0.97772,0c-0.05041,0.40331 -0.10082,0.80661 -0.15276,1.22213c-0.39302,2.00084 -1.05154,3.72771 -1.80266,5.62183c-0.32265,0 -0.64529,0 -0.97772,0c0.05041,0.34281 0.10082,0.68562 0.15276,1.03883c-0.21146,1.94547 -1.21704,3.042 -2.59705,4.33859c-0.80922,0.49798 -1.62426,0.98655 -2.44427,1.46657c-1.55725,1.3574 -2.76046,2.41511 -3.42199,4.3997c-0.32265,0 -0.64529,0 -0.97772,0c-0.121,0.26971 -0.24198,0.53942 -0.36664,0.8173c-0.72954,1.35878 -1.60675,2.49785 -2.5665,3.70461c-0.34281,0.43608 -0.68562,0.87215 -1.03883,1.32144c-0.30249,0.3302 -0.60496,0.6604 -0.9166,1.00063c-0.32265,0 -0.64529,0 -0.97772,0c-0.05608,0.35416 -0.11216,0.70831 -0.16995,1.0732c-0.32974,1.41771 -0.82245,2.47618 -1.51048,3.75426c-1.01885,1.97017 -1.70406,3.77812 -2.23039,5.92737c-0.16133,0.48396 -0.32264,0.96794 -0.48885,1.46657c-0.32265,0 -0.64529,0 -0.97772,0c-0.0523,0.35605 -0.10461,0.71207 -0.15849,1.07893c-0.35536,1.46868 -0.88244,2.39658 -1.70527,3.65687c-1.49505,2.39567 -2.55504,4.83532 -3.51365,7.4856c-0.32265,0 -0.64529,0 -0.97772,0c-0.14116,0.35288 -0.28231,0.70578 -0.42774,1.06938c-0.50923,1.27307 -1.01845,2.54612 -1.52768,3.81919c-0.32265,0 -0.64529,0 -0.97772,0c-0.07059,0.29241 -0.14116,0.5848 -0.21388,0.88605c-0.21986,0.85501 -0.48467,1.69842 -0.76384,2.53593c-0.32265,0 -0.64529,0 -0.97772,0c-0.06049,0.44363 -0.12098,0.88727 -0.18331,1.34436c-0.30554,1.58878 -0.30554,1.58878 -0.80321,2.49536c-0.98911,2.16121 -0.66066,4.7006 -0.66334,7.03732c-0.01196,0.54131 -0.02394,1.08262 -0.03628,1.64033c-0.01716,4.80872 1.10648,7.60055 4.40542,11.10046c0.3737,0.40141 0.74738,0.80282 1.13239,1.21641c0.34218,0.35478 0.68436,0.70957 1.03691,1.07509c0.38472,0.41875 0.38472,0.41875 0.77721,0.84596c0.73417,0.74413 0.73417,0.74413 2.15593,1.10948c0,0.32265 0,0.64529 0,0.97772c0.64529,0.32265 1.29058,0.64529 1.95542,0.97772c0,0.48396 0,0.96794 0,1.46657c0.35288,0.13107 0.70578,0.26214 1.06938,0.39719c1.37376,0.58004 2.58929,1.20374 3.81919,2.04708c0,0.32265 0,0.64529 0,0.97772c0.32265,0 0.64529,0 0.9777,0c0,0.32265 0,0.64529 0,0.9777c0.32265,0 0.64529,0 0.97772,0c0,0.32265 0,0.64529 0,0.97772c0.32265,0 0.64529,0 0.97772,0c0,0.32265 0,0.64529 0,0.97772c0.32265,0 0.64529,0 0.97772,0c0,0.32265 0,0.64529 0,0.97772c0.35288,0.04033 0.70578,0.08067 1.06938,0.12221c1.65199,0.44052 2.53703,1.21317 3.81919,2.32206c0.32265,0.16133 0.64529,0.32264 0.97772,0.48885c0,0.64529 0,1.29058 0,1.95542c-0.57409,-0.00505 -1.14817,-0.01007 -1.73966,-0.01527c-64.76308,-0.56191 -129.52565,-0.7143 -194.29137,-0.96244c-0.16133,-119.86246 -0.32264,-239.72491 -0.48885,-363.21955z" fill="#3f0000"/><path d="M-99.17858,16.1062c1.98914,0.712 2.51343,1.05544 3.42199,2.93314c0.42347,0.10587 0.42347,0.10587 0.8555,0.21388c1.74788,0.43697 2.72227,1.49784 4.03305,2.71925c0,0.32265 0,0.64529 0,0.97772c0.26214,0.04033 0.5243,0.08067 0.79439,0.12221c1.588,0.50148 2.76815,1.32755 4.09416,2.32206c0,0.32265 0,0.64529 0,0.97772c0.80661,0.16133 1.61323,0.32264 2.44427,0.48885c0,0.48396 0,0.96794 0,1.46657c0.32265,0 0.64529,0 0.97772,0c0,0.32265 0,0.64529 0,0.97772c0.26214,0.06049 0.5243,0.12098 0.79439,0.18331c1.38778,0.36521 2.73623,0.82033 4.09416,1.28324c0,0.32265 0,0.64529 0,0.97772c0.30249,0.13107 0.60496,0.26214 0.9166,0.39719c1.03882,0.58053 1.03882,0.58053 2.01653,2.04708c0.90565,0.50698 0.90565,0.50699 1.92487,0.9166c1.7989,0.84884 2.65845,1.59714 3.45254,3.48309c0,0.32265 0,0.64529 0,0.97772c0.51422,0.04538 0.51422,0.04538 1.03882,0.09166c1.9379,0.54766 2.88286,1.45345 4.3386,2.84147c0,0.32265 0,0.64529 0,0.97772c0.26466,0.04096 0.52932,0.08193 0.80203,0.12412c1.55302,0.49109 2.65224,1.32983 3.96431,2.2896c0.48145,0.34723 0.96289,0.69445 1.45893,1.0522c0.3655,0.30816 0.73099,0.6163 1.10757,0.93379c0,0.32265 0,0.64529 0,0.9777c0.25206,0.04033 0.50413,0.08067 0.76383,0.12221c3.01512,0.92774 4.87535,2.58384 7.05785,4.76634c0.84512,0.4917 1.6907,0.98324 2.55121,1.44747c1.42931,0.83376 2.59039,1.82751 3.8039,2.95223c0,0.32265 0,0.64529 0,0.97772c0.32265,0 0.64529,0 0.97772,0c0,0.32265 0,0.64529 0,0.97772c0.31255,0.05041 0.62512,0.10082 0.94715,0.15276c0.33272,0.1109 0.66545,0.22182 1.00827,0.33609c0.16133,0.48396 0.32264,0.96794 0.48885,1.46657c0.64607,0.18438 1.29953,0.34323 1.95542,0.48887c1.15339,0.65498 1.15339,0.65498 2.32206,1.436c0.39071,0.25647 0.7814,0.51295 1.18394,0.77721c0.29491,0.23757 0.58984,0.47515 0.89369,0.71991c0,0.32265 0,0.64529 0,0.97772c0.49909,0.15123 0.49909,0.15123 1.00827,0.30554c1.88399,0.88186 3.42951,2.09036 4.858,3.60531c0,0.32265 0,0.64529 0,0.97772c0.30249,0.07059 0.60496,0.14116 0.9166,0.21388c1.03882,0.27498 1.03882,0.27499 2.01653,0.76384c0,0.32265 0,0.64529 0,0.97772c0.26971,0.04096 0.53942,0.08191 0.8173,0.12412c1.50681,0.48288 2.47711,1.29719 3.70461,2.2896c0.43608,0.34723 0.87215,0.69444 1.32144,1.05218c0.4953,0.46222 0.49532,0.46222 1.00063,0.93379c0,0.32265 0,0.64529 0,0.97772c0.48396,0 0.96794,0 1.46657,0c0,0.32265 0,0.64529 0,0.97772c0.46885,0.07562 0.46885,0.07562 0.94715,0.15276c0.33272,0.1109 0.66545,0.2218 1.00827,0.33609c0.16133,0.48396 0.32264,0.96794 0.48885,1.46657c0.48396,0 0.96794,0 1.46657,0c0,0.32265 0,0.64529 0,0.97772c0.27412,0.04348 0.54824,0.08696 0.83067,0.13176c1.44056,0.45736 2.31397,1.19788 3.47737,2.15975c0.42537,0.351 0.85073,0.702 1.28898,1.06364c0.41151,0.3447 0.82299,0.68939 1.24696,1.04454c0.35605,0.28925 0.71207,0.57849 1.07893,0.87651c0.80168,0.66126 1.57563,1.35593 2.34307,2.05664c0,0.32265 0,0.64529 0,0.9777c0.42443,0.08696 0.42441,0.08696 0.8574,0.17569c3.03197,0.86478 5.30238,2.99285 7.45314,5.20173c0.37305,0.21174 0.74612,0.42347 1.13048,0.64163c1.7057,1.07101 2.97109,2.43455 4.35959,3.88411c0.8139,0.88902 0.81392,0.88902 1.84275,1.34054c0,0.32265 0,0.64529 0,0.97772c0.32265,0 0.64529,0 0.97772,0c0,0.32265 0,0.64529 0,0.9777c0.27223,0.04033 0.54447,0.08067 0.82494,0.12221c1.49067,0.48346 2.42687,1.26983 3.57475,2.32206c0,0.32265 0,0.64529 0,0.97772c0.32265,0 0.64529,0 0.97772,0c0,0.32265 0,0.64529 0,0.97772c0.26214,0.03025 0.5243,0.06049 0.79439,0.09166c1.73312,0.59291 2.75432,1.59299 4.09416,2.84149c0,0.32265 0,0.64529 0,0.9777c0.32265,0 0.64529,0 0.97772,0c0,0.32265 0,0.64529 0,0.97772c0.27223,0.03025 0.54447,0.06049 0.82494,0.09166c1.59169,0.55924 2.40498,1.64318 3.57476,2.84149c0.37494,0.21487 0.7499,0.42976 1.13619,0.65116c1.54906,0.96561 2.66862,2.10001 3.93567,3.41244c1.54109,1.58334 3.08885,3.11652 4.79689,4.52192c0.45372,0.39322 0.90743,0.78645 1.3749,1.19158c0,0.32265 0,0.64529 0,0.97772c0.32265,0 0.64529,0 0.97772,0c0,0.32265 0,0.64529 0,0.9777c0.28483,0.04601 0.56968,0.092 0.86314,0.1394c1.3362,0.42749 1.95189,1.02925 2.92548,2.0299c0.29996,0.30185 0.59993,0.6037 0.90897,0.91469c0.67981,0.82685 0.67981,0.82685 0.67981,1.80457c0.32265,0 0.64529,0 0.97772,0c0,0.32265 0,0.64529 0,0.97772c0.32265,0 0.64529,0 0.97772,0c0,0.32265 0,0.64529 0,0.97772c0.32265,0 0.64529,0 0.97772,0c0,0.32265 0,0.64529 0,0.97772c0.32265,0 0.64529,0 0.97772,0c0,0.32265 0,0.64529 0,0.97772c0.38314,0.15123 0.76629,0.30247 1.16103,0.45829c1.28324,0.51942 1.28324,0.51942 2.26094,1.00827c0,0.32265 0,0.64529 0,0.97772c0.64529,0.16133 1.29058,0.32264 1.95542,0.48885c0,0.32265 0,0.64529 0,0.97772c0.32265,0 0.64529,0 0.97772,0c0,0.32265 0,0.64529 0,0.97772c0.32265,0 0.64529,0 0.97772,0c0,0.32265 0,0.64529 0,0.97772c0.32265,0 0.64529,0 0.9777,0c0,0.32265 0,0.64529 0,0.9777c0.32265,0 0.64529,0 0.97772,0c0,0.32265 0,0.64529 0,0.97772c0.32265,0 0.64529,0 0.97772,0c0.93787,1.40678 1.71138,2.87753 2.44427,4.3997c0.32265,0 0.64529,0 0.97772,0c0,0.32265 0,0.64529 0,0.97772c0.32265,0 0.64529,0 0.97772,0c0,0.32265 0,0.64529 0,0.97772c0.32265,0 0.64529,0 0.97772,0c0,0.32265 0,0.64529 0,0.9777c0.32265,0 0.64529,0 0.9777,0c0.50797,0.80298 0.99306,1.6205 1.46657,2.44427c0.62653,0.84651 1.26866,1.68167 1.92487,2.50538c0.32706,0.41465 0.65411,0.82929 0.99107,1.25651c0.93743,1.13867 0.93745,1.13867 2.03372,1.90385c0.97199,0.73101 1.37402,1.29911 1.92487,2.36981c0.55662,1.04284 1.08445,1.92297 1.80266,2.87204c0.61108,0.82494 0.61108,0.82494 0.61108,1.80266c0.48396,0.16133 0.96794,0.32264 1.46657,0.48885c0.51942,0.86887 0.5194,0.86887 0.9777,1.92487c0.696,1.59789 0.9163,1.94503 2.44427,2.96369c0.50402,1.13405 0.99208,2.27529 1.46657,3.42199c0.48029,0.65815 0.96635,1.31229 1.46657,1.95542c0,0.32265 0,0.64529 0,0.97772c0.32265,0 0.64529,0 0.97772,0c0.41077,0.86408 0.81735,1.73013 1.22213,2.59705c0.22687,0.48207 0.45372,0.96415 0.68745,1.46084c0.53468,1.31953 0.53468,1.31953 0.53468,2.7861c0.32265,0 0.64529,0 0.97772,0c0,0.64529 0,1.29058 0,1.95542c0.32265,0 0.64529,0 0.9777,0c0.22212,0.59456 0.22212,0.59456 0.44875,1.20114c1.20979,3.19755 2.48957,6.3153 3.99104,9.38754c0.44875,1.14384 0.44875,1.14384 0.44875,3.09928c0.32265,0 0.64529,0 0.97772,0c0.0649,0.52367 0.12982,1.04734 0.19669,1.58687c0.08709,0.68301 0.1743,1.36601 0.26161,2.04899c0.04254,0.34564 0.08508,0.69129 0.1289,1.04742c0.08848,1.71496 0.08848,1.71496 0.87937,3.13842c0.10244,0.87366 0.17996,1.75031 0.24443,2.6276c0.11359,1.53755 0.24383,2.748 0.73328,4.21638c0.06249,1.30718 0.02147,2.60117 0,3.91085c0.32265,0 0.64529,0 0.97772,0c0.13328,0.4868 0.13328,0.4868 0.26925,0.98344c0.66739,2.34443 1.37269,4.27227 2.66389,6.34938c1.31958,3.37247 1.10169,6.8137 1.07318,10.38626c-0.00184,0.67465 -0.00323,1.34929 -0.00419,2.02394c-0.00372,1.76566 -0.01331,3.53124 -0.02416,5.29687c-0.01004,1.80569 -0.01448,3.6114 -0.01938,5.41713c-0.01046,3.53564 -0.02711,7.07123 -0.04775,10.60682c0.32265,0 0.64529,0 0.97772,0c0,5.32364 0,10.64727 0,16.13223c-0.32265,0 -0.64529,0 -0.97772,0c-0.05041,0.40331 -0.10082,0.80661 -0.15276,1.22213c-0.39302,2.00084 -1.05154,3.72771 -1.80266,5.62183c-0.32265,0 -0.64529,0 -0.97772,0c0.05041,0.34281 0.10082,0.68562 0.15276,1.03883c-0.21146,1.94547 -1.21704,3.042 -2.59705,4.33859c-0.80922,0.49798 -1.62426,0.98655 -2.44427,1.46657c-1.55725,1.3574 -2.76046,2.41511 -3.42199,4.3997c-0.32265,0 -0.64529,0 -0.97772,0c-0.121,0.26971 -0.24198,0.53942 -0.36664,0.8173c-0.72954,1.35878 -1.60675,2.49785 -2.5665,3.70461c-0.34281,0.43608 -0.68562,0.87215 -1.03883,1.32144c-0.30249,0.3302 -0.60496,0.6604 -0.9166,1.00063c-0.32265,0 -0.64529,0 -0.97772,0c-0.05608,0.35416 -0.11216,0.70831 -0.16995,1.0732c-0.32974,1.41771 -0.82245,2.47618 -1.51048,3.75426c-1.01885,1.97017 -1.70406,3.77812 -2.23039,5.92737c-0.16133,0.48396 -0.32264,0.96794 -0.48885,1.46657c-0.32265,0 -0.64529,0 -0.97772,0c-0.0523,0.35605 -0.10461,0.71207 -0.15849,1.07893c-0.35536,1.46868 -0.88244,2.39658 -1.70527,3.65687c-1.49505,2.39567 -2.55504,4.83532 -3.51365,7.4856c-0.32265,0 -0.64529,0 -0.97772,0c-0.14116,0.35288 -0.28231,0.70578 -0.42774,1.06938c-0.50923,1.27307 -1.01845,2.54612 -1.52768,3.81919c-0.32265,0 -0.64529,0 -0.97772,0c-0.07059,0.29241 -0.14116,0.5848 -0.21388,0.88605c-0.21986,0.85501 -0.48467,1.69842 -0.76384,2.53593c-0.32265,0 -0.64529,0 -0.97772,0c-0.06049,0.44363 -0.12098,0.88727 -0.18331,1.34436c-0.30554,1.58878 -0.30554,1.58878 -0.80321,2.49536c-0.98911,2.16121 -0.66066,4.7006 -0.66334,7.03732c-0.01196,0.54131 -0.02394,1.08262 -0.03628,1.64033c-0.01716,4.80872 1.10648,7.60055 4.40542,11.10046c0.3737,0.40141 0.74738,0.80282 1.13239,1.21641c0.34218,0.35478 0.68436,0.70957 1.03691,1.07509c0.38472,0.41875 0.38472,0.41875 0.77721,0.84596c0.73417,0.74413 0.73417,0.74413 2.15593,1.10948c0,0.32265 0,0.64529 0,0.97772c0.64529,0.32265 1.29058,0.64529 1.95542,0.97772c0,0.48396 0,0.96794 0,1.46657c0.35288,0.13107 0.70578,0.26214 1.06938,0.39719c1.37376,0.58004 2.58929,1.20374 3.81919,2.04708c0,0.32265 0,0.64529 0,0.97772c0.32265,0 0.64529,0 0.9777,0c0,0.32265 0,0.64529 0,0.9777c0.32265,0 0.64529,0 0.97772,0c0,0.32265 0,0.64529 0,0.97772c0.32265,0 0.64529,0 0.97772,0c0,0.32265 0,0.64529 0,0.97772c0.32265,0 0.64529,0 0.97772,0c0,0.32265 0,0.64529 0,0.97772c0.29241,0.13107 0.5848,0.26214 0.88605,0.39719c1.06863,0.58011 1.76029,1.11629 2.53593,2.04708c0,0.32265 0,0.64529 0,0.97772c-2.30487,0.44136 -4.58196,0.73618 -6.84397,0c-2.41068,-1.64599 -4.3062,-3.92581 -6.15784,-6.16022c-0.71549,-0.81457 -0.71549,-0.81457 -2.1527,-1.1726c-0.83981,-0.78891 -1.65062,-1.60896 -2.44427,-2.44427c-0.9533,-1.00205 -1.91158,-1.99904 -2.87204,-2.99423c-0.24009,-0.25647 -0.48019,-0.51295 -0.72755,-0.77721c-1.76502,-1.81086 -3.33581,-2.64858 -5.68867,-3.56138c-0.32265,-0.32265 -0.64529,-0.64529 -0.9777,-0.97772c0,-0.48396 0,-0.96794 0,-1.46657c-0.32265,0 -0.64529,0 -0.97772,0c-0.40546,-2.82208 -0.56628,-5.55291 -0.54996,-8.4022c0.00095,-0.40225 0.00189,-0.80449 0.00286,-1.21892c0.02335,-3.3286 0.21401,-6.62007 0.5471,-9.9331c0.32265,0 0.64529,0 0.97772,0c0.14116,-0.54447 0.28231,-1.08892 0.42774,-1.64988c0.54996,-1.77209 0.54996,-1.77209 1.52767,-2.74981c0.3141,-1.01132 0.3141,-1.01132 0.48887,-1.95542c0.32265,0 0.64529,0 0.9777,0c0.02016,-0.47388 0.04033,-0.94777 0.06111,-1.43602c0.29971,-2.1279 1.35076,-3.528 2.5703,-5.25519c2.12821,-3.04324 3.55567,-6.17002 4.70523,-9.69501c0.4986,-1.24649 1.12724,-2.11781 1.9516,-3.16801c0.34472,-1.04974 0.34472,-1.04974 0.48887,-1.95542c0.32265,0 0.64529,0 0.9777,0c0.1109,-0.39322 0.22182,-0.78645 0.33609,-1.19158c0.52519,-1.42552 1.07638,-2.55037 1.83321,-3.84974c1.23567,-2.15422 2.01415,-4.31861 2.71925,-6.69121c0.16133,-0.48396 0.32265,-0.96794 0.48887,-1.46657c0.32265,0 0.64529,0 0.97772,0c0,-0.32265 0,-0.64529 0,-0.97772c0.9166,-1.03882 0.9166,-1.03882 1.95542,-1.95542c0.32265,0 0.64529,0 0.97772,0c0,-0.32265 0,-0.64529 0,-0.97772c0.32265,0 0.64529,0 0.97772,0c0,-0.32265 0,-0.64529 0,-0.97772c0.32265,0 0.64529,0 0.97772,0c0,-0.32265 0,-0.64529 0,-0.97772c0.32265,0 0.64529,0 0.97772,0c0.16133,-0.48396 0.32264,-0.96794 0.48885,-1.46657c0.48396,0 0.96794,0 1.46657,0c0.18149,-0.40834 0.18149,-0.40834 0.36664,-0.82494c0.61108,-1.13048 0.61108,-1.13048 1.46657,-2.13875c2.36716,-3.09047 4.1059,-6.45141 5.01077,-10.23541c0.16133,-0.16133 0.32264,-0.32265 0.48885,-0.48887c0.04225,-1.27581 0.05255,-2.53818 0.04166,-3.81392c-0.00155,-0.39992 -0.00311,-0.79983 -0.00472,-1.21187c-0.00619,-1.33173 -0.0164,-2.6634 -0.0274,-3.99511c-0.0034,-0.45545 -0.0068,-0.91089 -0.01031,-1.38014c-0.01833,-2.41631 -0.03985,-4.83256 -0.0638,-7.24883c-0.02398,-2.48348 -0.03689,-4.96688 -0.04714,-7.45045c-0.01002,-1.91848 -0.02857,-3.83681 -0.04931,-5.7552c-0.00842,-0.91436 -0.0137,-1.82874 -0.01562,-2.74314c-0.01671,-6.13968 -0.62103,-11.10121 -3.12314,-16.784c-0.61108,-1.43602 -0.61108,-1.436 -0.61108,-3.39144c-0.32265,0 -0.64529,0 -0.97772,0c-1.1695,-2.96016 -1.3031,-5.8943 -1.52671,-9.03429c-0.23531,-2.79407 -0.82218,-4.996 -1.89527,-7.58681c-0.25457,-0.83209 -0.50081,-1.66686 -0.73328,-2.50538c-0.42152,-1.45855 -0.85205,-2.6119 -1.55823,-3.97195c-0.73213,-1.53399 -0.76156,-2.59842 -0.64163,-4.27749c-0.32265,0 -0.64529,0 -0.97772,0c-0.33079,-0.60843 -0.65553,-1.22016 -0.97772,-1.83321c-0.18149,-0.34028 -0.36298,-0.68058 -0.54996,-1.03118c-0.42774,-1.04645 -0.42774,-1.04645 -0.42774,-3.00187c-0.32265,0 -0.64529,0 -0.9777,0c-0.16133,-1.4519 -0.32265,-2.9038 -0.48887,-4.3997c-0.32265,0 -0.64529,0 -0.97772,0c0,-0.48396 0,-0.96794 0,-1.46657c-0.32265,0 -0.64529,0 -0.9777,0c-0.32952,-0.61934 -0.65459,-1.24106 -0.97772,-1.86376c-0.18149,-0.34597 -0.36298,-0.69192 -0.54996,-1.04838c-0.42774,-0.99872 -0.42774,-0.99872 -0.42774,-2.46529c-0.32265,0 -0.64529,0 -0.97772,0c-0.84403,-1.12475 -0.84403,-1.12475 -1.77209,-2.59705c-0.46318,-0.72311 -0.46318,-0.72311 -0.9357,-1.46084c-0.71418,-1.31953 -0.71418,-1.31953 -0.71418,-2.7861c-0.32265,0 -0.64529,0 -0.97772,0c-0.97772,-1.46657 -0.9777,-1.46657 -0.9777,-2.93314c-0.32265,0 -0.64529,0 -0.97772,0c0,-0.32265 0,-0.64529 0,-0.9777c-0.32265,0 -0.64529,0 -0.97772,0c-0.32265,-0.80661 -0.64529,-1.61323 -0.97772,-2.44427c-0.32265,0 -0.64529,0 -0.97772,0c-0.66131,-0.97131 -1.31291,-1.94929 -1.95542,-2.93314c-0.32265,-0.16133 -0.64529,-0.32264 -0.97772,-0.48885c-0.49798,-0.80922 -0.98655,-1.62426 -1.46657,-2.44427c-0.32265,-0.32265 -0.64529,-0.64529 -0.97772,-0.97772c0,-0.48396 0,-0.96794 0,-1.46657c-0.32265,0 -0.64529,0 -0.97772,0c0,-0.32265 0,-0.64529 0,-0.97772c-0.32265,0 -0.64529,0 -0.97772,0c0,-0.32265 0,-0.64529 0,-0.97772c-0.29241,-0.121 -0.58478,-0.24198 -0.88605,-0.36664c-1.21482,-0.69419 -1.71156,-1.45534 -2.53595,-2.56648c-0.48396,-0.16133 -0.96794,-0.32265 -1.46657,-0.48887c-0.82303,-0.83449 -0.82303,-0.83449 -1.68043,-1.86376c-0.94766,-1.12433 -1.86458,-2.1638 -2.93314,-3.17756c-0.76384,-0.82494 -0.76384,-0.82495 -0.76384,-2.29151c-0.32265,0 -0.64529,0 -0.97772,0c0,-0.32265 0,-0.64529 0,-0.97772c-0.29241,-0.13107 -0.5848,-0.26214 -0.88605,-0.39719c-1.06863,-0.58011 -1.76029,-1.11629 -2.53593,-2.04708c0,-0.32265 0,-0.64529 0,-0.97772c-0.28987,-0.05105 -0.57976,-0.10208 -0.87842,-0.15467c-1.23545,-0.38333 -1.77267,-0.84775 -2.6658,-1.77018c-0.25458,-0.25647 -0.50916,-0.51295 -0.77146,-0.77719c-0.57288,-0.71991 -0.57288,-0.71991 -0.57288,-1.69763c-0.26466,-0.10335 -0.52932,-0.20669 -0.80203,-0.31318c-1.57625,-0.90817 -2.72001,-2.17107 -3.96431,-3.47546c-1.9378,-1.98979 -3.86629,-3.77445 -6.13934,-5.38313c-1.24048,-0.90816 -2.24986,-1.90068 -3.27113,-3.04961c0,-0.32265 0,-0.64529 0,-0.97772c-0.39795,-0.03498 -0.39795,-0.03498 -0.80394,-0.07066c-1.70846,-0.62048 -2.71984,-1.89857 -3.93186,-3.19856c-1.99868,-2.07347 -3.93204,-3.8052 -6.39713,-5.32011c-2.12079,-1.36177 -4.02841,-3.01602 -5.97701,-4.60976c-1.90285,-1.53295 -3.83358,-3.02503 -5.77652,-4.50664c-1.08789,-0.88744 -2.08129,-1.78424 -3.02289,-2.8262c0,-0.32265 0,-0.64529 0,-0.97772c-0.28231,-0.06049 -0.56463,-0.12098 -0.8555,-0.18331c-2.22365,-0.61767 -3.4138,-1.59734 -5.01077,-3.23866c-3.00573,-2.75749 -6.17454,-5.21233 -9.52123,-7.53906c-0.30334,-0.21247 -0.6067,-0.42497 -0.91922,-0.64388c-0.60386,-0.42218 -1.20993,-0.84126 -1.81841,-1.25676c-1.77797,-1.24388 -3.04162,-2.50057 -4.36223,-4.24823c-0.32265,-0.16133 -0.64529,-0.32265 -0.97772,-0.48887c0,-0.32265 0,-0.64529 0,-0.97772c-0.42726,-0.03717 -0.85451,-0.07436 -1.2947,-0.11267c-1.95198,-0.44818 -2.87811,-1.18481 -4.38825,-2.48438c-0.44994,-0.38125 -0.89987,-0.7625 -1.36343,-1.1553c-0.78215,-0.70299 -1.54582,-1.42798 -2.27623,-2.18458c-0.964,-0.92695 -1.83306,-1.46558 -3.02098,-2.06808c-3.2994,-1.76869 -6.07142,-4.05544 -8.87769,-6.5117c-0.82562,-0.70999 -0.82562,-0.70999 -2.06045,-1.40164c-1.42391,-0.86184 -2.44809,-1.95851 -3.60531,-3.14701c-0.32265,-0.16133 -0.64529,-0.32264 -0.97772,-0.48885c0,-0.32265 0,-0.64529 0,-0.97772c-0.43355,-0.03025 -0.8671,-0.06049 -1.31381,-0.09166c-2.02514,-0.49673 -2.62913,-1.35165 -4.06361,-2.84147c-2.65583,-2.29245 -5.35986,-4.45357 -8.31054,-6.35512c-1.77117,-1.26513 -3.49045,-2.50106 -5.01077,-4.0636c-0.9379,-0.90441 -1.53652,-1.13175 -2.81091,-1.31381c0,-0.32265 0,-0.64529 0,-0.97772c-0.35288,-0.13107 -0.70578,-0.26214 -1.06938,-0.39719c-1.37376,-0.58004 -2.58929,-1.20374 -3.81919,-2.04708c0,-0.32265 0,-0.64529 0,-0.97772c-0.32265,0 -0.64529,0 -0.97772,0c0,-0.32265 0,-0.64529 0,-0.97772c-0.26214,-0.1109 -0.5243,-0.2218 -0.79439,-0.33609c-1.16103,-0.64163 -1.16103,-0.64163 -2.65815,-1.89432c-1.33925,-1.25777 -1.33925,-1.25777 -2.90259,-1.68043c0,-0.32265 0,-0.64529 0,-0.97772c-0.32265,0 -0.64529,0 -0.97772,0c-0.32265,-0.48396 -0.64529,-0.96794 -0.97772,-1.46657c-0.97506,-0.53424 -1.9713,-0.95389 -2.99423,-1.38827c-1.12388,-0.69541 -1.33142,-1.35082 -1.89432,-2.52257c-0.84092,-0.49186 -1.68393,-0.98126 -2.54549,-1.43602c-1.31249,-0.77777 -2.25941,-1.87578 -3.32078,-2.96369c-0.61404,-0.44799 -1.23561,-0.88581 -1.86376,-1.31379c-0.51422,-0.37305 -1.02843,-0.74612 -1.55823,-1.13048c0,-0.32265 0,-0.64529 0,-0.97772c-0.31255,-0.07059 -0.62512,-0.14116 -0.94715,-0.21388c-1.00827,-0.27498 -1.00827,-0.27498 -1.49712,-0.76383c-0.03532,-0.90578 -0.04098,-1.81284 -0.03055,-2.71926c0.00441,-0.49468 0.00882,-0.98936 0.01337,-1.49904c0.00567,-0.38251 0.01134,-0.76503 0.01718,-1.15912z" fill="#f20000"/><path d="M90.00846,291.82065c0,0.32265 0,0.64529 0,0.97772c-0.32265,0 -0.64529,0 -0.97772,0c0,0.32265 0,0.64529 0,0.97772c-0.32265,0 -0.64529,0 -0.97772,0c-0.32265,0.64529 -0.64529,1.29058 -0.97772,1.95542c-0.32265,0 -0.64529,0 -0.9777,0c0,0.32265 0,0.64529 0,0.97772c-0.32265,0 -0.64529,0 -0.97772,0c-0.06932,0.28358 -0.13863,0.56715 -0.21006,0.85932c-1.12424,4.41998 -3.07654,8.31281 -5.16736,12.33977c-0.32265,0 -0.64529,0 -0.9777,0c-0.05734,0.35605 -0.11469,0.71209 -0.17378,1.07893c-0.31905,1.38257 -0.77943,2.40915 -1.44556,3.65687c-0.87144,1.67567 -1.61085,3.32969 -2.26096,5.10243c-0.80492,2.08758 -1.87353,3.6678 -3.26159,5.40986c-1.4797,1.92444 -2.28396,3.87284 -2.63525,6.26156c-0.32265,0 -0.64529,0 -0.9777,0c-0.04033,0.32265 -0.08067,0.64529 -0.12221,0.97772c-0.48768,1.95072 -1.37939,3.61043 -2.32206,5.37741c-0.32265,0 -0.64529,0 -0.97772,0c0,6.45289 0,12.90578 0,19.55422c0.32265,0 0.64529,0 0.97772,0c0.28736,0.55958 0.28734,0.55958 0.58051,1.13048c0.79925,1.45035 0.79925,1.45035 2.46338,1.94587c2.08087,0.83498 3.36259,2.14515 4.86946,3.76762c1.88943,2.01273 1.88943,2.01274 3.99677,3.78864c0.26404,0.20165 0.52808,0.40331 0.80012,0.61108c0,0.32265 0,0.64529 0,0.97772c0.29499,0.05136 0.58999,0.10271 0.89392,0.15563c1.47329,0.4625 2.15872,1.47351 3.14642,2.61196c2.61034,3.06672 2.61034,3.06672 6.20844,4.60533c1.66498,0.09973 3.24578,0.11171 4.90575,-0.04011c-0.80661,-1.12925 -1.61323,-2.25851 -2.44427,-3.42199c1.64069,0.6789 2.47995,1.42588 3.42199,2.93314c0,0.32265 0,0.64529 0,0.97772c-21.93983,0 -43.87967,0 -66.48434,0c0.24198,-0.96794 0.24198,-0.96794 0.48887,-1.95542c0.64529,-0.16133 1.29058,-0.32265 1.95542,-0.48887c0,-0.32265 0,-0.64529 0,-0.97772c2.81092,-1.46657 2.81091,-1.46657 3.91085,-1.46657c0.02016,-0.27223 0.04033,-0.54447 0.06111,-0.82494c0.77644,-2.05201 2.69494,-3.20775 4.55628,-4.23356c1.40939,-0.91157 2.23949,-1.8673 3.26539,-3.19093c0.32391,-0.41212 0.6478,-0.82426 0.98154,-1.24887c0.93972,-1.24627 0.93972,-1.24627 1.70336,-2.63523c0.22308,-0.35164 0.44617,-0.70326 0.676,-1.06556c0.32265,0 0.64529,0 0.97772,0c0,-0.48396 0,-0.96794 0,-1.46657c0.32265,0 0.64529,0 0.9777,0c0,-0.32265 0,-0.64529 0,-0.97772c0.32265,0 0.64529,0 0.97772,0c0,-0.48396 0,-0.96794 0,-1.46657c0.32265,0 0.64529,0 0.97772,0c0.03025,-0.35288 0.06049,-0.70578 0.09166,-1.06938c0.5182,-1.79375 1.53002,-2.50773 2.84149,-3.81919c0.51502,-1.12909 1.00566,-2.26975 1.46657,-3.42199c0.76384,-1.19158 0.76384,-1.19158 1.46657,-1.95542c0.32265,0 0.64529,0 0.97772,0c0,-0.48396 0,-0.96794 0,-1.46657c0.48396,-0.32265 0.96794,-0.64529 1.46657,-0.97772c0.24198,-0.72596 0.24198,-0.72596 0.48885,-1.46657c0.32265,0 0.64529,0 0.97772,0c0.05041,-0.31255 0.10083,-0.62512 0.15276,-0.94715c0.1109,-0.33272 0.22182,-0.66545 0.33609,-1.00827c0.48396,-0.16133 0.96794,-0.32264 1.46657,-0.48885c0.59894,-1.4707 0.59894,-1.4707 0.97772,-2.93314c0.32265,0 0.64529,0 0.9777,0c0.13107,-0.37305 0.26214,-0.74612 0.39719,-1.13048c0.58053,-1.31381 0.58051,-1.31381 1.28898,-2.01079c0.82867,-0.8412 1.238,-1.59773 1.73581,-2.66387c0.52643,-1.09657 1.04982,-2.13566 1.68044,-3.17756c1.54054,-2.58809 2.87581,-5.30366 4.0025,-8.09667c0.67218,-1.49712 0.67218,-1.49712 1.34245,-2.15402c2.67329,-2.71816 4.28741,-6.63732 5.60083,-10.16857c0.92232,-2.24739 2.04377,-4.39447 3.14975,-6.55611c0.69622,-1.36482 1.33746,-2.67195 1.82282,-4.12806c0.32265,0 0.64529,0 0.97772,0c0.18149,-0.55958 0.18149,-0.55958 0.36664,-1.13048c1.06403,-2.28766 2.01582,-2.78036 4.52192,-2.78036z" fill="#800000"/><path d="M53.34432,-18.11367c1.4519,0 2.9038,0 4.3997,0c0.02962,0.45308 0.05923,0.90617 0.08975,1.373c0.04096,0.58542 0.08193,1.17085 0.12412,1.77402c0.03971,0.58416 0.0794,1.16833 0.1203,1.77018c-0.00344,1.38205 -0.00344,1.38205 0.64354,1.92678c0.17288,0.80048 0.32128,1.60633 0.4583,2.41372c0.08508,0.48523 0.17013,0.97046 0.25779,1.47037c0.1295,0.73918 0.1295,0.73918 0.26162,1.4933c0.49413,2.68898 1.072,5.23031 1.95542,7.82168c0.18049,0.97462 0.34869,1.9519 0.48887,2.93314c0.32265,0 0.64529,0 0.9777,0c0.85915,2.20158 1.07204,3.99706 0.97772,6.35512c0.32265,0 0.64529,0 0.97772,0c0.14116,0.45372 0.28231,0.90743 0.42774,1.3749c0.49497,1.60608 0.49497,1.60609 1.52768,3.0248c0.18943,1.13655 0.35078,2.27806 0.48885,3.42199c0.15626,0.81607 0.31645,1.63147 0.48887,2.44427c0.32265,0 0.64529,0 0.9777,0c0.04222,0.46128 0.08445,0.92256 0.12794,1.39782c0.42571,3.89001 1.11886,7.09342 2.79374,10.68035c0.50031,1.12093 0.50031,1.12093 0.50031,2.09863c0.32265,0 0.64529,0 0.97772,0c0,-3.71041 0,-7.42083 0,-11.24368c-0.32265,0 -0.64529,0 -0.97772,0c0,-2.58115 0,-5.16231 0,-7.82168c-0.32265,0 -0.64529,0 -0.97772,0c0,-1.61323 0,-3.22645 0,-4.88857c-0.32265,0 -0.64529,0 -0.9777,0c0,-2.74248 0,-5.48495 0,-8.31053c-0.32265,0 -0.64529,0 -0.97772,0c0,-0.80661 0,-1.61323 0,-2.44428c-0.32265,0 -0.64529,0 -0.97772,0c-0.0393,-0.34718 -0.07862,-0.69437 -0.11912,-1.05207c-0.18195,-1.59483 -0.36748,-3.18923 -0.55307,-4.78364c-0.06175,-0.54604 -0.12351,-1.09208 -0.18713,-1.65465c-0.36401,-3.1031 -0.87374,-6.08959 -1.58496,-9.13071c-0.06111,-1.49712 -0.06111,-1.49712 0,-2.44427c3.0076,-0.04773 3.0076,-0.04773 3.91085,0c0.48885,0.48885 0.48885,0.48885 0.51942,1.98597c-0.01008,0.47388 -0.02015,0.94777 -0.03055,1.436c0.32265,0 0.64529,0 0.9777,0c0.6575,3.46943 1.09549,6.73278 0.97772,10.26596c0.32265,0 0.64529,0 0.97772,0c0.74492,6.53787 1.14985,13.07606 1.46657,19.64588c0.27795,5.73897 0.57415,11.47186 1.00827,17.2016c0.03877,0.5282 0.0775,1.05639 0.11744,1.6006c0.03749,0.47376 0.07499,0.94753 0.11362,1.43566c0.03217,0.40859 0.06435,0.81716 0.09751,1.23813c0.03636,0.92434 0.03636,0.92434 0.61859,1.40856c0.04331,1.33895 0.05633,2.66551 0.04773,4.00442c-0.00069,0.40079 -0.00139,0.80156 -0.0021,1.21449c-0.00275,1.28518 -0.00888,2.5703 -0.01509,3.85547c-0.00246,0.86919 -0.00467,1.73836 -0.00668,2.60755c-0.00541,2.13524 -0.01384,4.27048 -0.02387,6.40572c-0.48396,0 -0.96794,0 -1.46657,0c-1.02343,-1.66307 -1.06542,-2.95891 -0.97772,-4.88857c-0.32265,0 -0.64529,0 -0.97772,0c0,-0.80661 0,-1.61323 0,-2.44427c-0.32265,0 -0.64529,0 -0.97772,0c-0.63182,-2.0139 -1.10605,-3.74869 -0.97772,-5.86626c-0.32265,0 -0.64529,0 -0.9777,0c0,-0.96794 0,-1.93586 0,-2.93314c-0.32265,0 -0.64529,0 -0.97772,0c-0.1002,-0.34723 -0.20039,-0.69444 -0.30363,-1.05218c-0.1317,-0.4493 -0.26342,-0.89861 -0.39911,-1.36154c-0.13044,-0.44805 -0.26089,-0.89611 -0.39528,-1.35772c-0.26602,-1.08789 -0.26602,-1.08789 -0.85741,-1.60596c-0.15858,-0.91398 -0.29783,-1.83133 -0.42774,-2.74981c-0.38119,-2.39448 -0.99444,-4.33071 -2.01653,-6.53843c-0.2335,-0.77122 -0.45677,-1.54559 -0.67218,-2.32206c-0.66756,-2.31892 -1.62065,-4.41812 -2.65051,-6.59573c-0.75523,-1.73117 -1.27822,-3.48822 -1.77209,-5.30867c-0.20184,-0.92395 -0.20186,-0.92395 -0.77148,-1.41692c-0.28143,-1.51265 -0.50366,-3.03115 -0.73328,-4.55247c-0.10801,-1.26959 -0.10801,-1.26959 -0.73328,-1.80266c-0.01986,-0.81451 -0.02089,-1.62979 0,-2.44428c-0.32265,0 -0.64529,0 -0.97772,0c-0.07059,-0.55455 -0.14116,-1.10909 -0.21388,-1.68043c-0.08517,-1.64758 -0.08517,-1.64758 -0.76384,-2.23039c-0.02,-1.14049 -0.02074,-2.28151 0,-3.42199c-0.32265,0 -0.64529,0 -0.9777,0c-0.9232,-3.88999 -1.24828,-7.74598 -1.46657,-11.73253z" fill="#f40000"/><path d="M52.85546,-18.60253c1.13045,-0.01312 2.26094,-0.02265 3.39144,-0.03056c0.62954,-0.00567 1.25907,-0.01134 1.90769,-0.01718c1.54485,0.04773 1.54487,0.04775 2.03372,0.5366c1.71099,0.08147 1.71099,0.08147 3.42199,0c0.16133,-0.16133 0.32264,-0.32265 0.48885,-0.48887c1.06883,-0.03548 2.13875,-0.04095 3.20811,-0.03056c0.87814,0.00661 0.87814,0.00661 1.77402,0.01338c0.45308,0.00567 0.90619,0.01134 1.373,0.01718c-0.16133,0.32265 -0.32265,0.64529 -0.48887,0.97772c-1.29058,-0.16133 -2.58115,-0.32264 -3.91085,-0.48885c0.09453,0.41465 0.18905,0.82929 0.28643,1.25651c1.31359,5.91768 2.38146,11.72106 2.15784,17.80886c0.32265,0 0.64529,0 0.97772,0c0,0.80661 0,1.61323 0,2.44428c0.32265,0 0.64529,0 0.97772,0c0,2.74248 0,5.48495 0,8.31053c0.32265,0 0.64529,0 0.9777,0c0,1.61323 0,3.22645 0,4.88857c0.32265,0 0.64529,0 0.97772,0c0,2.58115 0,5.16231 0,7.82168c0.32265,0 0.64529,0 0.97772,0c0,3.71041 0,7.42083 0,11.24368c-0.32265,0 -0.64529,0 -0.97772,0c-0.38784,-0.99776 -0.77466,-1.99591 -1.16103,-2.99423c-0.21551,-0.55579 -0.43102,-1.11162 -0.65308,-1.68426c-1.7395,-4.62813 -1.7395,-4.62813 -1.66899,-7.23734c0.00882,-0.42726 0.01765,-0.85451 0.02673,-1.2947c0.01134,-0.31888 0.02268,-0.63772 0.03437,-0.96625c-0.32265,0 -0.64529,0 -0.9777,0c-0.86741,-1.92072 -1.29292,-3.81326 -1.68044,-5.872c-0.21866,-1.07469 -0.21866,-1.07469 -1.25269,-1.94969c-0.06111,-1.28324 -0.06111,-1.28324 0,-2.44427c-0.32265,0 -0.64529,0 -0.97772,0c-0.07059,-0.55455 -0.14116,-1.10909 -0.21388,-1.68043c-0.08517,-1.64758 -0.08517,-1.64758 -0.76384,-2.23039c-0.01986,-0.81451 -0.02089,-1.62979 0,-2.44427c-0.32265,0 -0.64529,0 -0.9777,0c-0.1002,-0.38251 -0.20039,-0.76503 -0.30363,-1.15913c-0.1317,-0.49468 -0.26342,-0.98936 -0.39911,-1.49903c-0.13044,-0.49342 -0.26089,-0.98684 -0.39528,-1.49521c-0.25112,-1.18372 -0.25112,-1.18372 -0.85741,-1.7129c-0.1734,-0.70818 -0.32162,-1.42257 -0.4583,-2.13875c-0.12667,-0.65505 -0.12667,-0.65505 -0.25588,-1.32335c-0.35368,-1.91451 -0.68825,-3.83224 -1.01399,-5.7517c-0.1247,-1.03796 -0.1247,-1.03796 -0.71609,-1.54105c-0.03548,-1.06883 -0.04095,-2.13875 -0.03056,-3.20811c0.00441,-0.58542 0.00882,-1.17085 0.01337,-1.77402c0.00567,-0.45308 0.01134,-0.90617 0.01718,-1.373c-1.4519,0 -2.9038,0 -4.3997,0c0.15068,1.12057 0.30393,2.24081 0.4583,3.36089c0.08508,0.62387 0.17013,1.24773 0.25779,1.89049c0.17086,1.53179 0.17086,1.53177 0.75048,2.5703c0.06558,1.3064 0.02112,2.60194 0,3.91085c-0.16133,0 -0.32265,0 -0.48887,0c-0.07059,-0.55455 -0.14116,-1.10909 -0.21388,-1.68043c-0.08517,-1.64758 -0.08517,-1.64758 -0.76384,-2.23039c-0.11586,-1.39753 -0.2064,-2.78591 -0.27498,-4.18583c-0.0211,-0.39416 -0.04222,-0.78833 -0.06398,-1.19444c-0.05202,-0.97665 -0.10121,-1.95345 -0.1499,-2.93027z" fill="#860000"/><path d="M-53.71503,56.6812c3.36089,1.77209 3.36089,1.77211 3.91085,3.42199c1.4519,0.24198 1.4519,0.24198 2.93314,0.48885c0,0.32265 0,0.64529 0,0.97772c0.38314,0.121 0.76629,0.24198 1.16103,0.36664c1.51054,0.7193 1.54557,1.1357 2.26096,2.56648c0.80544,0.3483 1.62185,0.67169 2.44427,0.97772c1.3749,0.97772 1.3749,0.97772 2.44427,1.95542c0,0.32265 0,0.64529 0,0.97772c0.34281,0.1109 0.68562,0.22182 1.03882,0.33609c1.39155,0.63528 2.34342,1.4124 3.48119,2.41945c1.33974,1.04136 2.83573,1.76286 4.35005,2.51875c0.90706,0.59197 0.90706,0.59197 1.39592,2.05854c0.64082,0.347 1.29499,0.66966 1.95542,0.97772c0.72306,0.55741 1.43556,1.12871 2.13875,1.71099c1.67221,1.32947 3.0791,2.20063 5.19409,2.6887c0,0.32265 0,0.64529 0,0.97772c0.45372,0.18149 0.45372,0.18149 0.9166,0.36664c1.03882,0.61108 1.03882,0.61108 1.49712,1.58878c0.4382,1.08332 0.4382,1.08332 1.60787,1.394c1.61347,0.66811 2.68778,1.56773 4.01396,2.70017c1.40233,1.17736 2.75306,2.28349 4.27748,3.29977c1.57543,1.0503 2.93808,2.2494 4.34241,3.51556c0.94189,0.84957 0.94189,0.84957 2.03944,1.60024c0.28358,0.22749 0.56715,0.45497 0.85932,0.68936c0,0.32265 0,0.64529 0,0.97772c0.42347,0.09075 0.42347,0.09075 0.8555,0.18331c2.09869,0.58296 3.24375,1.3731 4.58302,3.0859c1.65574,1.96485 3.47027,3.30139 5.59892,4.7205c1.64772,1.12683 3.11778,2.41671 4.60594,3.7428c1.48034,1.29529 2.80271,2.37449 4.5391,3.30359c1.96378,1.10304 3.41782,2.53062 4.96302,4.15146c0.26436,0.27097 0.52872,0.54194 0.80107,0.82114c0.64286,0.65993 1.28103,1.32438 1.91819,1.98979c-0.48396,0.16133 -0.96794,0.32264 -1.46657,0.48885c-0.32265,-0.16133 -0.64529,-0.32264 -0.9777,-0.48885c0,-0.32265 0,-0.64529 0,-0.97772c-0.41339,0 -0.82678,0 -1.25269,0c-2.18752,-0.63638 -2.9466,-1.75362 -4.31377,-3.51365c-0.77242,-1.01599 -0.77242,-1.01599 -2.25523,-1.3749c-0.28231,-0.45372 -0.56463,-0.90743 -0.8555,-1.3749c-1.36582,-1.93491 -2.42037,-2.46287 -4.5219,-3.51365c-0.39322,-0.20165 -0.78645,-0.40331 -1.19158,-0.61108c-0.37809,-0.18149 -0.37809,-0.18149 -0.76384,-0.36664c0,-0.32265 0,-0.64529 0,-0.97772c-1.14008,-0.5897 -2.19809,-1.0586 -3.42199,-1.46657c-0.14116,-0.30249 -0.28231,-0.60496 -0.42774,-0.9166c-0.73908,-1.39602 -1.61379,-1.76702 -2.99423,-2.50538c-1.3749,-0.76384 -1.3749,-0.76384 -2.44427,-1.46657c0,-0.32265 0,-0.64529 0,-0.97772c-0.31255,-0.05041 -0.62512,-0.10082 -0.94715,-0.15276c-0.33272,-0.1109 -0.66545,-0.22182 -1.00827,-0.33609c-0.16133,-0.48396 -0.32265,-0.96794 -0.48887,-1.46657c-0.64216,-0.34451 -1.29578,-0.66798 -1.95542,-0.97772c-0.64691,-0.53167 -1.27798,-1.08306 -1.89432,-1.64988c-2.12301,-1.89808 -4.30891,-3.507 -6.90509,-4.70523c0,-0.32265 0,-0.64529 0,-0.9777c-0.32265,0 -0.64529,0 -0.97772,0c-0.81476,-0.81476 -1.62951,-1.62951 -2.44427,-2.44427c-0.81124,-0.49467 -1.62584,-0.98391 -2.44427,-1.46657c-0.65181,-0.65181 -1.30362,-1.30362 -1.95542,-1.95542c-0.72596,-0.24198 -0.72596,-0.24198 -1.46657,-0.48887c0,-0.32265 0,-0.64529 0,-0.9777c-0.48396,0 -0.96794,0 -1.46657,0c0,-0.32265 0,-0.64529 0,-0.97772c-0.48396,0 -0.96794,0 -1.46657,0c-0.32265,-0.48396 -0.64529,-0.96794 -0.97772,-1.46657c-0.48396,-0.16133 -0.96794,-0.32264 -1.46657,-0.48885c0,-0.32265 0,-0.64529 0,-0.97772c-0.27981,-0.13107 -0.55958,-0.26214 -0.84785,-0.39719c-1.1461,-0.60072 -2.14592,-1.27725 -3.1852,-2.04708c-0.34533,-0.25206 -0.69066,-0.50413 -1.04645,-0.76384c-0.25963,-0.2319 -0.51926,-0.4638 -0.78675,-0.70273c0,-0.32265 0,-0.64529 0,-0.97772c-0.36298,-0.1109 -0.72596,-0.22182 -1.09993,-0.33609c-1.59914,-0.76323 -2.23181,-1.69754 -3.29977,-3.0859c-0.48396,-0.16133 -0.96794,-0.32264 -1.46657,-0.48885c0,-0.32265 0,-0.64529 0,-0.97772c-0.48396,0 -0.96794,0 -1.46657,0c-0.16133,-0.48396 -0.32264,-0.96794 -0.48885,-1.46657c-1.24468,-0.72467 -1.24469,-0.72467 -2.74981,-1.3749c-2.57529,-1.23233 -4.52092,-2.47384 -6.53843,-4.49135c0,-0.32265 0,-0.64529 0,-0.97772c-0.48396,0 -0.96794,0 -1.46657,0c0,-0.32265 0,-0.64529 0,-0.97772c-0.32265,0 -0.64529,0 -0.97772,0c-1.03882,-0.9166 -1.03883,-0.9166 -1.95542,-1.95542c0,-0.32265 0,-0.64529 0,-0.97772z" fill="#910000"/><path d="M54.32202,145.16404c0.54043,0.45752 1.08005,0.91602 1.61934,1.3749c0.30059,0.25522 0.60117,0.51043 0.91088,0.77339c1.6346,1.43859 1.6346,1.43859 2.35833,2.2514c0,0.32265 0,0.64529 0,0.97772c0.28231,0.03025 0.56463,0.06049 0.8555,0.09166c1.53137,0.553 2.09456,1.56043 3.05535,2.84149c0.32265,0.16133 0.64529,0.32264 0.97772,0.48885c0,0.32265 0,0.64529 0,0.97772c0.32265,0 0.64529,0 0.97772,0c0,0.32265 0,0.64529 0,0.97772c0.32265,0 0.64529,0 0.97772,0c0.50738,0.80336 0.99515,1.6193 1.46657,2.44427c0.32265,0.32265 0.64529,0.64529 0.97772,0.9777c0,0.48396 0,0.96794 0,1.46657c0.30249,0.1109 0.60496,0.22182 0.9166,0.33609c1.33902,0.82704 1.55223,1.61563 2.01653,3.0859c0.32265,0 0.64529,0 0.97772,0c0.32265,0.80661 0.64529,1.61323 0.97772,2.44427c0.32265,0 0.64529,0 0.97772,0c0,0.32265 0,0.64529 0,0.9777c0.32265,0 0.64529,0 0.97772,0c0.32265,0.96794 0.64529,1.93586 0.9777,2.93314c0.32265,0 0.64529,0 0.97772,0c0.48016,0.86486 0.95848,1.73072 1.43602,2.59705c0.26656,0.48207 0.53311,0.96415 0.80776,1.46084c0.68936,1.31953 0.68936,1.31953 1.17821,2.7861c0.32265,0 0.64529,0 0.97772,0c0.32812,0.7119 0.65352,1.42505 0.97772,2.13875c0.18149,0.39701 0.36298,0.79401 0.54996,1.20305c0.42774,1.05791 0.42774,1.05791 0.42774,2.03563c0.32265,0 0.64529,0 0.9777,0c0,0.48396 0,0.96794 0,1.46657c0.32265,0 0.64529,0 0.97772,0c0.24198,2.17784 0.24198,2.17784 0.48887,4.3997c0.32265,0 0.64529,0 0.9777,0c0.32796,0.79354 0.65339,1.58813 0.97772,2.38317c0.18149,0.44238 0.36298,0.88475 0.54996,1.34054c0.42774,1.16485 0.42774,1.16485 0.42774,2.14256c0.32265,0 0.64529,0 0.97772,0c0.18149,0.83183 0.18149,0.83183 0.36664,1.68043c0.3784,1.53237 0.87907,2.88466 1.55823,4.30804c1.06231,2.26731 1.62447,4.576 2.17502,7.01202c0.18521,1.1449 0.18521,1.1449 0.78866,1.66517c0.10474,0.7201 0.1811,1.44438 0.24443,2.16929c0.04033,0.43733 0.08067,0.87467 0.12221,1.32525c0.08147,0.92933 0.16295,1.85866 0.24443,2.788c0.04033,0.43733 0.08067,0.87467 0.12221,1.32525c0.05293,0.6059 0.05293,0.6059 0.10694,1.22405c0.0415,0.9467 0.0415,0.9467 0.62634,1.43411c0.01986,0.81451 0.02089,1.62979 0,2.44427c0.32265,0 0.64529,0 0.97772,0c1.02283,2.16601 1.02285,2.166 0.79439,3.57475c-0.10083,0.27223 -0.20167,0.54447 -0.30554,0.82494c-1.44235,-2.25368 -2.22416,-3.60057 -1.95542,-6.35512c-0.32265,0 -0.64529,0 -0.97772,0c-0.08319,-0.55455 -0.16637,-1.10909 -0.25206,-1.68043c-0.60794,-3.84583 -1.17183,-7.1442 -3.16991,-10.54095c-0.56297,-1.80368 -0.52507,-3.49388 -0.48885,-5.37742c-0.32265,0 -0.64529,0 -0.97772,0c0,-0.80661 0,-1.61323 0,-2.44427c-0.32265,0 -0.64529,0 -0.97772,0c-0.05041,-0.51422 -0.10082,-1.02843 -0.15276,-1.55823c-0.32996,-1.82979 -0.84144,-2.76174 -1.80266,-4.30804c0,-0.64529 0,-1.29058 0,-1.95542c-0.32265,0 -0.64529,0 -0.9777,0c-1.0245,-2.78354 -1.68663,-5.35393 -1.95542,-8.31054c-0.32265,0 -0.64529,0 -0.97772,0c-0.71404,-1.29419 -0.97772,-1.90384 -0.97772,-3.42199c-0.32265,0 -0.64529,0 -0.9777,0c0,-0.64529 0,-1.29058 0,-1.95542c-0.80661,-0.32265 -1.61323,-0.64529 -2.44427,-0.9777c0,-0.32265 0,-0.64529 0,-0.97772c-0.32265,0 -0.64529,0 -0.97772,0c0,-0.64529 0,-1.29058 0,-1.95542c-0.32265,0 -0.64529,0 -0.97772,0c0,-0.32265 0,-0.64529 0,-0.97772c-0.32265,0 -0.64529,0 -0.97772,0c-0.99808,-1.42035 -1.46657,-2.15166 -1.46657,-3.91085c-0.32265,0 -0.64529,0 -0.97772,0c-0.121,-0.38314 -0.24198,-0.76629 -0.36664,-1.16103c-0.72181,-1.51578 -1.10386,-1.57267 -2.56648,-2.26096c-1.95542,-2.17269 -1.95542,-2.17269 -1.95542,-3.42199c-0.32265,0 -0.64529,0 -0.97772,0c-0.77499,-0.83757 -1.5132,-1.70947 -2.23039,-2.59705c-0.39385,-0.48207 -0.78771,-0.96415 -1.19349,-1.46084c-0.97581,-1.31953 -0.97581,-1.31953 -1.46466,-2.7861c-0.48396,-0.16133 -0.96794,-0.32265 -1.46657,-0.48887c0,-0.48396 0,-0.96794 0,-1.46657c-0.48396,-0.16133 -0.96794,-0.32264 -1.46657,-0.48885c0,-0.48396 0,-0.96794 0,-1.46657c-0.32265,0 -0.64529,0 -0.97772,0c-0.93379,-1.00063 -0.93379,-1.00063 -1.98598,-2.32206c-0.34847,-0.43104 -0.69696,-0.86207 -1.056,-1.30617c-0.78529,-1.13911 -1.15307,-1.86821 -1.35772,-3.21575z" fill="#860000"/><path d="M52.85546,-18.60253c1.13045,-0.01312 2.26094,-0.02265 3.39144,-0.03056c0.62954,-0.00567 1.25907,-0.01134 1.90769,-0.01718c1.54485,0.04773 1.54487,0.04775 2.03372,0.5366c1.71099,0.08147 1.71099,0.08147 3.42199,0c0.16133,-0.16133 0.32264,-0.32265 0.48885,-0.48887c1.06883,-0.03548 2.13875,-0.04095 3.20811,-0.03056c0.87814,0.00661 0.87814,0.00661 1.77402,0.01338c0.45308,0.00567 0.90619,0.01134 1.373,0.01718c-0.16133,0.32265 -0.32265,0.64529 -0.48887,0.97772c-1.93586,0 -3.87174,0 -5.86627,0c0.16133,0.47388 0.32265,0.94777 0.48887,1.43602c0.62023,2.1315 0.57874,4.18364 0.48885,6.38567c0.32265,0 0.64529,0 0.97772,0c0.02962,0.38251 0.05923,0.76503 0.08975,1.15912c0.06145,0.74201 0.06145,0.74203 0.12412,1.49904c0.05955,0.74013 0.05955,0.74013 0.1203,1.49521c0.02372,1.19297 0.02372,1.19297 0.64354,1.7129c0.10188,0.80224 0.17965,1.60764 0.24443,2.41372c0.12327,1.79315 0.12327,1.79315 0.73329,3.45254c0.09551,0.73672 0.16788,1.47653 0.22724,2.21703c0.03813,0.43575 0.07624,0.87152 0.11553,1.32047c0.07717,0.92279 0.15226,1.84578 0.22533,2.76892c0.03877,0.43513 0.0775,0.87024 0.11744,1.31858c0.03273,0.40083 0.06545,0.80165 0.09918,1.21462c0.06369,0.30937 0.12738,0.61874 0.19299,0.93749c0.48396,0.24198 0.48396,0.24198 0.97772,0.48887c0.60518,3.19719 0.54201,6.53467 0.48887,9.77711c-0.32265,0 -0.64529,0 -0.97772,0c-0.58251,-1.86402 -1.03527,-3.61801 -1.25269,-5.56073c-0.01731,-1.67613 -0.01731,-1.67613 -0.70273,-2.26096c-0.01995,-0.97751 -0.0208,-1.95564 0,-2.93314c-0.32265,0 -0.64529,0 -0.97772,0c-0.85915,-2.20158 -1.07203,-3.99706 -0.9777,-6.35512c-0.32265,0 -0.64529,0 -0.97772,0c-0.70592,-2.35109 -1.24516,-4.66853 -1.68044,-7.08841c-0.1257,-0.68689 -0.25173,-1.3737 -0.37809,-2.06045c-0.06349,-0.3465 -0.12699,-0.69302 -0.1924,-1.05004c-0.30798,-1.66427 -0.62965,-3.32565 -0.95718,-4.98618c-0.11154,-0.57029 -0.22308,-1.1406 -0.338,-1.72818c-0.37814,-1.72437 -0.8403,-3.39351 -1.34243,-5.08525c-2.09719,-0.32265 -4.19438,-0.64529 -6.35512,-0.9777c0.15068,1.12057 0.30393,2.24081 0.4583,3.36089c0.08508,0.62387 0.17013,1.24773 0.25779,1.89049c0.17086,1.53179 0.17086,1.53177 0.75048,2.5703c0.06558,1.3064 0.02112,2.60194 0,3.91085c-0.16133,0 -0.32265,0 -0.48887,0c-0.07059,-0.55455 -0.14116,-1.10909 -0.21388,-1.68043c-0.08517,-1.64758 -0.08517,-1.64758 -0.76384,-2.23039c-0.11586,-1.39753 -0.2064,-2.78591 -0.27498,-4.18583c-0.0211,-0.39416 -0.04222,-0.78833 -0.06398,-1.19444c-0.05202,-0.97665 -0.10121,-1.95345 -0.1499,-2.93027z" fill="#4d0000"/><path d="M-100.1563,15.1285c1.16103,0.15276 1.16103,0.15276 2.44427,0.48887c0.32265,0.48396 0.64529,0.96794 0.97772,1.46657c-1.20992,-0.48396 -1.20992,-0.48396 -2.44427,-0.97772c0.02931,0.87633 0.0727,1.75217 0.12221,2.6276c0.02268,0.48775 0.04538,0.9755 0.06874,1.47802c0.1618,1.34641 0.1618,1.34641 1.29852,1.93251c0.31509,0.10461 0.63017,0.2092 0.95479,0.31698c0,0.32265 0,0.64529 0,0.97772c0.25206,0.1109 0.50413,0.22182 0.76384,0.33609c2.73731,1.47394 4.86551,3.33785 7.05785,5.53017c0.45372,0.26214 0.90743,0.5243 1.3749,0.79439c0.35288,0.22182 0.70578,0.44363 1.06938,0.67218c0,0.48396 0,0.96794 0,1.46657c0.26214,0.04033 0.5243,0.08066 0.79439,0.12221c1.588,0.50148 2.76815,1.32756 4.09416,2.32207c0,0.32265 0,0.64529 0,0.9777c0.32265,0 0.64529,0 0.97772,0c0,0.32265 0,0.64529 0,0.97772c0.27474,0.04601 0.5495,0.092 0.83258,0.1394c1.39919,0.43546 2.29498,1.12611 3.4449,2.0299c0.39071,0.30185 0.7814,0.6037 1.18394,0.91469c0.29491,0.27286 0.58984,0.54573 0.89369,0.82685c0,0.32265 0,0.64529 0,0.97772c0.32265,0 0.64529,0 0.97772,0c0,0.32265 0,0.64529 0,0.97772c0.26214,0.04033 0.5243,0.08067 0.79439,0.12221c1.588,0.50148 2.76815,1.32755 4.09416,2.32206c0,0.32265 0,0.64529 0,0.97772c0.34281,0.02016 0.68562,0.04033 1.03882,0.06111c1.70307,0.51833 2.38747,1.28534 3.5442,2.59323c0.9858,0.95262 2.05442,1.54485 3.23866,2.23421c0.92431,0.63045 1.8408,1.27252 2.74981,1.92487c0.46002,0.32706 0.92003,0.65411 1.394,0.99108c1.13086,0.91203 1.89902,1.74862 2.70017,2.95032c-0.65181,-0.32591 -1.30362,-0.65181 -1.95542,-0.97772c-0.4638,-0.22182 -0.9276,-0.44363 -1.40545,-0.67218c-1.57842,-0.82079 -3.02915,-1.69311 -4.4608,-2.74981c0,-0.32265 0,-0.64529 0,-0.97772c-0.65034,-0.18149 -0.65034,-0.18149 -1.31381,-0.36664c-1.69394,-0.63921 -2.67753,-1.42297 -4.06361,-2.5665c-0.48396,-0.24198 -0.96794,-0.48396 -1.46657,-0.73328c-1.49881,-0.7494 -2.67398,-1.56098 -3.91085,-2.6887c0,-0.32265 0,-0.64529 0,-0.97772c-0.80661,-0.16133 -1.61323,-0.32264 -2.44427,-0.48885c0,-0.32265 0,-0.64529 0,-0.97772c-0.48396,0 -0.96794,0 -1.46657,0c-0.32265,-0.48396 -0.64529,-0.96794 -0.9777,-1.46657c-0.48396,-0.16133 -0.96794,-0.32265 -1.46657,-0.48887c0,-0.32265 0,-0.64529 0,-0.9777c-0.32265,0 -0.64529,0 -0.9777,0c-0.81476,-0.81476 -1.62953,-1.62951 -2.44428,-2.44427c-0.48396,-0.24198 -0.48396,-0.24198 -0.9777,-0.48887c-1.40451,-0.70225 -2.31806,-1.8292 -3.42199,-2.93314c-0.72594,-0.24198 -0.72594,-0.24198 -1.46657,-0.48887c0,-0.32265 0,-0.64529 0,-0.9777c-0.48396,0 -0.96794,0 -1.46657,0c-0.32265,-0.48396 -0.64529,-0.96794 -0.9777,-1.46657c-0.48396,-0.16133 -0.96794,-0.32264 -1.46657,-0.48885c-0.16133,-0.48396 -0.32264,-0.96794 -0.48885,-1.46657c-1.75009,-1.71911 -1.75009,-1.71911 -3.9414,-2.6887c-1.61,-0.41549 -2.36,-1.43425 -3.39144,-2.6887c-0.81654,-2.63801 -0.53278,-5.56802 -0.48887,-8.31054z" fill="#970000"/><path d="M98.319,226.80288c1.43417,0.71708 1.48854,1.58133 1.99576,3.08661c1.30889,4.46631 1.2522,8.90033 1.26964,13.52301c0.00982,0.93 0.02034,1.85998 0.03152,2.78996c0.02128,1.93512 0.03628,3.87015 0.0463,5.80536c0.01306,2.48176 0.03901,4.96319 0.06917,7.44481c0.02241,1.91398 0.03968,3.82794 0.05521,5.74199c0.00775,0.91569 0.01675,1.8314 0.02699,2.74708c0.01316,1.27397 0.01982,2.54779 0.02455,3.82182c0.00752,0.5668 0.00752,0.5668 0.0152,1.14505c-0.0003,1.84916 -0.03761,2.66778 -1.09006,4.24645c-0.24211,0.68644 -0.46481,1.37991 -0.67218,2.07763c-1.25065,3.83863 -3.43198,7.18144 -6.17181,10.14375c-0.48396,0.16133 -0.96794,0.32264 -1.46657,0.48885c-0.24198,0.48396 -0.24198,0.48396 -0.48885,0.97772c-0.32265,0 -0.64529,0 -0.97772,0c-0.24198,0.48396 -0.24198,0.48396 -0.48887,0.97772c0.2852,-1.87974 1.16026,-2.88579 2.38317,-4.30804c1.59828,-1.9334 2.66182,-3.59674 3.48309,-5.95792c0.32265,0 0.64529,0 0.97772,0c0.13107,-0.55455 0.26214,-1.10909 0.39719,-1.68043c0.19157,-0.57471 0.38314,-1.14941 0.58053,-1.74154c0.72596,-0.24198 0.72596,-0.24198 1.46657,-0.48885c0.01135,-5.33336 0.02003,-10.66675 0.02533,-16.00012c0.00255,-2.47686 0.00599,-4.9537 0.01156,-7.43056c0.00534,-2.39312 0.00824,-4.78625 0.0095,-7.17937c0.0009,-0.91014 0.00265,-1.82026 0.00529,-2.7304c0.09571,-8.36452 0.09571,-8.36452 -1.51826,-16.52281c0,-0.32265 0,-0.64529 0,-0.97772z" fill="#7b0000"/><path d="M66.05455,-18.11367c1.44195,6.32531 2.68375,12.54629 2.44427,19.06535c0.32265,0 0.64529,0 0.97772,0c0.06111,3.72751 0.06111,3.72751 -0.48887,5.37742c0.32265,0 0.64529,0 0.97772,0c0,1.93586 0,3.87174 0,5.86627c-0.48396,-0.16133 -0.96794,-0.32265 -1.46657,-0.48887c-0.02706,-0.29106 -0.05411,-0.58211 -0.08199,-0.88199c-0.12341,-1.31535 -0.24984,-2.6304 -0.37632,-3.94545c-0.04254,-0.45813 -0.08508,-0.91626 -0.1289,-1.38827c-0.04254,-0.43796 -0.08508,-0.87593 -0.1289,-1.32717c-0.03839,-0.40448 -0.07681,-0.80897 -0.11635,-1.22573c-0.09526,-1.03694 -0.09526,-1.03694 -0.63411,-1.98621c-0.15178,-1.26684 -0.24918,-2.5341 -0.35136,-3.80581c-0.02338,-1.06843 -0.02338,-1.06841 -0.62634,-1.5716c-0.03532,-0.90578 -0.04098,-1.81284 -0.03056,-2.71925c0.00441,-0.49468 0.00882,-0.98936 0.01337,-1.49904c0.00567,-0.38251 0.01134,-0.76501 0.01718,-1.15912c-0.32265,0 -0.64529,0 -0.97772,0c-0.04442,-0.46791 -0.04442,-0.46791 -0.08975,-0.94526c-0.04096,-0.40393 -0.08193,-0.80787 -0.12412,-1.22405c-0.03971,-0.40267 -0.0794,-0.80535 -0.1203,-1.22023c-0.05168,-1.00362 -0.05168,-1.00364 -0.64354,-1.49904c-0.01995,-0.97751 -0.0208,-1.95564 0,-2.93314c1.46657,-0.48885 1.46657,-0.48885 1.95542,-0.48885z" fill="#810000"/><path d="M97.34125,225.82518c0.48396,0.24198 0.48396,0.24198 0.97772,0.48885c0.29217,0.99299 0.29217,0.99299 0.51942,2.19984c0.19365,1.48501 0.19365,1.48501 0.94715,2.6887c0.64128,4.5528 0.56006,9.12391 0.55378,13.71087c0.00033,0.85184 0.00081,1.7037 0.00142,2.55555c0.00071,1.77663 -0.0003,3.55324 -0.0026,5.32987c-0.00279,2.27272 -0.00117,4.54542 0.00175,6.81812c0.00176,1.75554 0.0012,3.51108 -0.00006,5.26662c-0.00032,0.83807 0.00006,1.67613 0.00122,2.51421c0.00124,1.17079 -0.00067,2.34154 -0.00337,3.51232c0.001,0.3429 0.00198,0.68579 0.00301,1.03908c-0.00835,1.94803 -0.18107,3.78297 -0.55511,5.69462c-0.16133,0 -0.32264,0 -0.48885,0c-0.00395,-0.5115 -0.00791,-1.02301 -0.01198,-1.55001c-0.03807,-4.84672 -0.081,-9.69337 -0.12859,-14.54001c-0.0243,-2.49103 -0.04695,-4.98207 -0.06567,-7.47315c-0.01817,-2.40902 -0.04088,-4.81798 -0.06658,-7.22693c-0.00898,-0.91396 -0.0164,-1.82794 -0.02213,-2.74193c-0.03386,-5.21297 -0.26029,-10.20864 -1.17163,-15.35352c-0.16326,-0.97766 -0.3263,-1.95535 -0.48885,-2.93314z" fill="#600000"/><path d="M28.41268,120.72126c0.64529,0.16133 1.29058,0.32265 1.95542,0.48887c0,0.32265 0,0.64529 0,0.97772c0.42347,0.16636 0.42347,0.16636 0.8555,0.33609c1.09993,0.64163 1.09993,0.64163 1.95542,1.74154c0.94977,1.16084 1.64535,1.78471 2.84147,2.6276c2.8117,2.02716 5.13628,4.55202 7.5467,7.02729c0.43545,0.43545 0.87089,0.87089 1.31953,1.31953c0.73145,0.73145 1.4533,1.47264 2.16357,2.22468c0.90672,0.9652 0.90672,0.9652 2.38317,1.34436c0.82659,0.96772 1.64174,1.94538 2.44427,2.93314c0.48396,0.24198 0.48396,0.24198 0.97772,0.48885c0,0.32265 0,0.64529 0,0.97772c0.32265,0 0.64529,0 0.97772,0c0.24198,0.96794 0.24198,0.96794 0.48885,1.95542c-2.08907,-0.23212 -2.98359,-1.48161 -4.3997,-2.93314c-0.31445,-0.15062 -0.62891,-0.30121 -0.95288,-0.45639c-1.17159,-0.60923 -1.77791,-1.28227 -2.62187,-2.29342c-0.2943,-0.34723 -0.58857,-0.69444 -0.89178,-1.05218c-0.45088,-0.53784 -0.45088,-0.53784 -0.91088,-1.08656c-1.55712,-1.80944 -3.10829,-3.59714 -4.79689,-5.28574c-1.06938,-1.06938 -1.06938,-1.06938 -2.04708,-2.53593c-0.96831,-0.58226 -0.96831,-0.58226 -2.07763,-1.09993c-2.24214,-1.19169 -3.877,-2.62068 -5.25519,-4.76634c0,-0.32265 0,-0.64529 0,-0.97772c-0.32265,0 -0.64529,0 -0.97772,0c0,-0.32265 0,-0.64529 0,-0.97772c-0.32265,0 -0.64529,0 -0.9777,0c0,-0.32265 0,-0.64529 0,-0.97772z" fill="#910000"/><path d="M31.83467,373.4595c0,0.48396 0,0.96794 0,1.46657c-0.48396,0.48396 -0.96794,0.96794 -1.46657,1.46657c20.81057,0.16133 41.62115,0.32265 63.06234,0.48887c-0.80661,-1.12925 -1.61323,-2.25851 -2.44427,-3.42199c1.64069,0.6789 2.47995,1.42588 3.42199,2.93314c0,0.32265 0,0.64529 0,0.97772c-21.93983,0 -43.87967,0 -66.48434,0c0.16133,-0.64529 0.32265,-1.29058 0.48887,-1.95542c0.64529,-0.16133 1.29058,-0.32265 1.95542,-0.48887c0,-0.32265 0,-0.64529 0,-0.97772c0.48396,-0.16133 0.96794,-0.32264 1.46657,-0.48885z" fill="#6e0000"/><path d="M93.9193,375.90378c0.96794,0.24198 0.96794,0.24198 1.95542,0.48885c0,0.64529 0,1.29058 0,1.95542c-22.58512,-0.16133 -45.17024,-0.32264 -68.43975,-0.48885c0,-0.16133 0,-0.32265 0,-0.48887c22.10116,0 44.2023,0 66.97319,0c-0.16133,-0.48396 -0.32265,-0.96794 -0.48887,-1.46657z" fill="#2d0000"/><path d="M9.83616,105.56675c2.65327,0.74624 4.37135,2.58843 6.35512,4.3997c1.43888,1.28446 2.82416,2.38603 4.53719,3.30168c1.96418,1.10407 3.41912,2.53191 4.96494,4.15335c0.26436,0.27097 0.52872,0.54194 0.80107,0.82114c0.64286,0.65993 1.28103,1.32438 1.91819,1.98979c-0.48396,0.16133 -0.96794,0.32264 -1.46657,0.48885c-0.32265,-0.16133 -0.64529,-0.32264 -0.9777,-0.48885c0,-0.32265 0,-0.64529 0,-0.97772c-0.41339,0 -0.82678,0 -1.25269,0c-2.18752,-0.63638 -2.9466,-1.75362 -4.31377,-3.51365c-0.7724,-1.01599 -0.7724,-1.01599 -2.25523,-1.3749c-0.30249,-0.4638 -0.60496,-0.9276 -0.9166,-1.40545c-1.08529,-1.596 -1.8499,-2.05515 -3.4831,-2.99423c-0.65423,-0.81283 -1.30617,-1.62747 -1.95542,-2.44427c-1.03472,-0.64121 -1.03472,-0.64121 -1.95542,-0.97772c0,-0.32265 0,-0.64529 0,-0.9777z" fill="#950000"/><path d="M66.05455,-18.11367c3.0076,-0.04773 3.0076,-0.04773 3.91085,0c0.48885,0.48885 0.48885,0.48885 0.51942,1.98597c-0.01008,0.47388 -0.02015,0.94777 -0.03055,1.436c0.32265,0 0.64529,0 0.9777,0c0.6575,3.46943 1.09549,6.73278 0.97772,10.26596c-0.16133,0 -0.32264,0 -0.48885,0c-0.67501,-2.47501 -1.12802,-4.8336 -1.34626,-7.39012c-0.07474,-0.9627 -0.07474,-0.9627 -0.60917,-1.89814c-0.01967,-1.14049 -0.02112,-2.28151 0,-3.42199c-0.96794,0 -1.93586,0 -2.93314,0c0,1.29058 0,2.58116 0,3.91085c0.32265,0 0.64529,0 0.97772,0c0,1.77455 0,3.54909 0,5.37741c0.32265,0 0.64529,0 0.9777,0c0.02962,0.34723 0.05923,0.69445 0.08975,1.0522c0.04096,0.4493 0.08191,0.89861 0.12412,1.36154c0.03971,0.44805 0.0794,0.89611 0.1203,1.35772c0.03756,1.09834 0.03758,1.09834 0.64354,1.60598c0.03541,0.98731 0.04095,1.97579 0.03056,2.96369c-0.00441,0.54006 -0.00882,1.0801 -0.01337,1.63653c-0.00567,0.4178 -0.01134,0.8356 -0.01718,1.26606c-0.16133,0 -0.32264,0 -0.48885,0c0,-0.80661 0,-1.61323 0,-2.44428c-0.32265,0 -0.64529,0 -0.97772,0c-0.05897,-0.52077 -0.05896,-0.52077 -0.11912,-1.05207c-0.18195,-1.59483 -0.36748,-3.18923 -0.55307,-4.78364c-0.06175,-0.54604 -0.12351,-1.09208 -0.18713,-1.65465c-0.36401,-3.1031 -0.87374,-6.08959 -1.58496,-9.13071c-0.06111,-1.49712 -0.06111,-1.49712 0,-2.44427z" fill="#ca0000"/><path d="M98.319,226.80288c1.43357,0.71679 1.48957,1.57896 1.9979,3.0834c1.3145,4.48509 1.23101,8.93682 1.23312,13.5778c0.00733,0.9335 0.01552,1.86701 0.02449,2.80049c0.02121,2.43585 0.0311,4.87162 0.03849,7.30754c0.00962,2.4941 0.03013,4.98812 0.04969,7.48217c0.03665,4.87802 0.06133,9.75602 0.0783,14.63416c-0.48396,0.24198 -0.48396,0.24198 -0.97772,0.48887c0,-13.22843 0,-26.45686 0,-40.08615c-0.32265,0 -0.64529,0 -0.97772,0c-0.03592,-0.4698 -0.03592,-0.46979 -0.07257,-0.94906c-0.22322,-2.58245 -0.62181,-4.89049 -1.394,-7.36148c0,-0.32265 0,-0.64529 0,-0.97772z" fill="#a30000"/><path d="M74.36511,8.77338c0.32265,0 0.64529,0 0.97772,0c0.41076,2.22545 0.63382,4.43254 0.76193,6.6893c0.02066,0.35909 0.04131,0.71819 0.06259,1.08817c0.22344,4.26102 0.20676,8.51954 0.18375,12.78503c-0.00246,0.80998 -0.00469,1.61997 -0.00668,2.42995c-0.00529,1.95002 -0.01367,3.90003 -0.02387,5.85004c-0.16133,0 -0.32264,0 -0.48885,0c-1.61336,-19.90502 -1.61336,-19.90502 -1.46657,-28.84246z" fill="#610000"/><path d="M84.63105,185.73902c0.73328,0.64163 0.73329,0.64163 1.46657,1.46657c0,0.48396 0,0.96794 0,1.46657c0.32265,0 0.64529,0 0.9777,0c0.32796,0.79354 0.65339,1.58813 0.97772,2.38317c0.18149,0.44238 0.36298,0.88475 0.54996,1.34054c0.42774,1.16485 0.42774,1.16485 0.42774,2.14256c0.32265,0 0.64529,0 0.97772,0c0.05923,0.37809 0.11847,0.7562 0.17951,1.14575c0.52872,3.28613 1.15951,6.46798 2.0719,9.67017c0.49762,1.81682 0.7539,3.02896 0.19287,4.82746c-1.02941,-2.70221 -1.6516,-4.92276 -1.46657,-7.82169c-0.32265,0 -0.64529,0 -0.97772,0c0,-0.80661 0,-1.61323 0,-2.44427c-0.32265,0 -0.64529,0 -0.97772,0c-0.05041,-0.51422 -0.10082,-1.02843 -0.15276,-1.55823c-0.32996,-1.82979 -0.84144,-2.76174 -1.80266,-4.30804c0,-0.64529 0,-1.29058 0,-1.95542c-0.32265,0 -0.64529,0 -0.9777,0c-0.24813,-0.69123 -0.49167,-1.38412 -0.73328,-2.07765c-0.20417,-0.57849 -0.20417,-0.57849 -0.41248,-1.16868c-0.32081,-1.15339 -0.32081,-1.15339 -0.32081,-3.10881z" fill="#6f0000"/><path d="M63.61028,-1.49258c0.16133,0 0.32264,0 0.48885,0c0,0.80661 0,1.61323 0,2.44427c0.32265,0 0.64529,0 0.97772,0c0,0.96794 0,1.93586 0,2.93314c0.32265,0 0.64529,0 0.97772,0c0.08886,0.44174 0.1777,0.88349 0.26925,1.33863c0.18432,0.86489 0.18432,0.86489 0.37237,1.74729c0.17865,0.85924 0.17865,0.85922 0.36091,1.73581c0.45118,1.49096 0.71245,2.08243 1.9306,2.99996c0.32265,0.16133 0.64529,0.32265 0.97772,0.48887c0.60518,3.19719 0.54201,6.53467 0.48887,9.77711c-0.32265,0 -0.64529,0 -0.97772,0c-0.58251,-1.86402 -1.03527,-3.61801 -1.25269,-5.56073c-0.01731,-1.67613 -0.01731,-1.67613 -0.70273,-2.26096c-0.01995,-0.97751 -0.0208,-1.95564 0,-2.93314c-0.32265,0 -0.64529,0 -0.97772,0c-0.85915,-2.20158 -1.07203,-3.99706 -0.9777,-6.35512c-0.32265,0 -0.64529,0 -0.97772,0c-0.70974,-2.21794 -1.09264,-3.99915 -0.97772,-6.35512z" fill="#610000"/><path d="M54.32202,145.16404c0.54043,0.45752 1.08005,0.91602 1.61934,1.3749c0.30059,0.25522 0.60117,0.51043 0.91088,0.77339c1.6346,1.43859 1.6346,1.43859 2.35833,2.2514c0,0.32265 0,0.64529 0,0.97772c0.3069,0.0416 0.61378,0.08319 0.92997,0.12603c1.02545,0.36282 1.02545,0.36282 1.48566,1.2145c0.1002,0.34407 0.20039,0.68815 0.30363,1.04263c0.46964,1.58103 0.9922,2.34186 2.16929,3.48309c0,0.32265 0,0.64529 0,0.97772c0.32265,0 0.64529,0 0.97772,0c0.13107,0.31255 0.26214,0.62512 0.39719,0.94715c0.52511,1.17023 0.52511,1.17023 2.04708,1.49712c0.58053,1.49712 0.58053,1.49712 0.97772,2.93314c-0.32265,0 -0.64529,0 -0.97772,0c-0.77499,-0.83757 -1.5132,-1.70947 -2.23039,-2.59705c-0.39385,-0.48207 -0.78771,-0.96415 -1.19349,-1.46084c-0.97581,-1.31953 -0.97581,-1.31953 -1.46466,-2.7861c-0.48396,-0.16133 -0.96794,-0.32265 -1.46657,-0.48887c0,-0.48396 0,-0.96794 0,-1.46657c-0.48396,-0.16133 -0.96794,-0.32264 -1.46657,-0.48885c0,-0.48396 0,-0.96794 0,-1.46657c-0.32265,0 -0.64529,0 -0.97772,0c-0.93379,-1.00063 -0.93379,-1.00063 -1.98598,-2.32206c-0.34847,-0.43104 -0.69696,-0.86207 -1.056,-1.30617c-0.78529,-1.13911 -1.15307,-1.86821 -1.35772,-3.21575z" fill="#6c0000"/><path d="M101.25211,219.95891c0.32265,0 0.64529,0 0.97772,0c0.13328,0.4868 0.13328,0.4868 0.26925,0.98344c0.66739,2.34443 1.37269,4.27227 2.66389,6.34938c1.31958,3.37247 1.10169,6.8137 1.07318,10.38626c-0.00184,0.67465 -0.00323,1.34929 -0.00419,2.02394c-0.00372,1.76566 -0.01331,3.53124 -0.02416,5.29687c-0.01004,1.80569 -0.01448,3.6114 -0.01938,5.41713c-0.01046,3.53564 -0.02711,7.07123 -0.04775,10.60682c-0.16133,0 -0.32264,0 -0.48885,0c0,-9.84065 0,-19.68132 0,-29.82018c-0.32265,0 -0.64529,0 -0.97772,0c-0.05041,-0.51422 -0.10082,-1.02843 -0.15276,-1.55823c-0.32876,-1.82308 -0.8244,-2.77686 -1.80266,-4.30804c0,-0.48396 0,-0.96794 0,-1.46657c-0.32265,0 -0.64529,0 -0.9777,0c-0.16133,-1.29058 -0.32265,-2.58115 -0.48887,-3.91085z" fill="#840000"/><path d="M-24.3837,80.14626c0.32265,0 0.64529,0 0.9777,0c0,0.32265 0,0.64529 0,0.97772c0.48396,0 0.96794,0 1.46657,0c0,0.32265 0,0.64529 0,0.97772c1.4519,0.24198 1.4519,0.24198 2.93314,0.48887c0,0.32265 0,0.64529 0,0.9777c0.31255,0.05041 0.62512,0.10083 0.94715,0.15276c0.33272,0.1109 0.66545,0.22182 1.00827,0.33609c0.16133,0.48396 0.32264,0.96794 0.48885,1.46657c0.81322,0.32968 1.62823,0.65508 2.44427,0.97772c1.13048,0.97772 1.13048,0.9777 1.95542,1.95542c0,0.32265 0,0.64529 0,0.97772c0.29241,0.05041 0.58478,0.10083 0.88605,0.15276c1.22355,0.38455 1.66242,0.89116 2.53595,1.80266c0.48396,0.16133 0.96794,0.32264 1.46657,0.48885c0.24198,0.72594 0.24198,0.72594 0.48885,1.46657c-1.75378,-0.65141 -3.34204,-1.38381 -4.88855,-2.44427c0,-0.32265 0,-0.64529 0,-0.9777c-0.32265,0 -0.64529,0 -0.97772,0c-0.81476,-0.81476 -1.62951,-1.62951 -2.44427,-2.44427c-0.81124,-0.49467 -1.62584,-0.98391 -2.44427,-1.46657c-0.65181,-0.65181 -1.30362,-1.30362 -1.95542,-1.95542c-0.48396,-0.16133 -0.96794,-0.32265 -1.46657,-0.48887c0,-0.32265 0,-0.64529 0,-0.9777c-0.48396,0 -0.96794,0 -1.46657,0c0,-0.32265 0,-0.64529 0,-0.97772c-0.48396,0 -0.96794,0 -1.46657,0c-0.16133,-0.48396 -0.32264,-0.96794 -0.48885,-1.46657z" fill="#6d0000"/><path d="M-67.40297,45.92639c1.87683,0.76464 2.98171,2.00399 4.3997,3.42199c0.81024,0.4963 1.62567,0.98418 2.44427,1.46657c0.92431,0.63045 1.8408,1.27252 2.74981,1.92487c0.46002,0.32706 0.92003,0.65411 1.394,0.99108c1.13086,0.91203 1.89902,1.74862 2.70017,2.95032c-0.65181,-0.32591 -1.30362,-0.65181 -1.95542,-0.97772c-0.4638,-0.22182 -0.9276,-0.44363 -1.40545,-0.67218c-1.57842,-0.82079 -3.02915,-1.69311 -4.4608,-2.74981c0,-0.32265 0,-0.64529 0,-0.97772c-0.44363,-0.1109 -0.88728,-0.2218 -1.34436,-0.33609c-1.82162,-0.73566 -2.41711,-1.51604 -3.5442,-3.0859c-0.32265,-0.16133 -0.64529,-0.32265 -0.97772,-0.48887c0,-0.48396 0,-0.96794 0,-1.46657z" fill="#9f0000"/><path d="M74.85394,318.21885c0,3.0743 -2.03733,5.52513 -3.91085,7.82168c-1.00471,1.78614 -1.65694,3.34771 -1.95542,5.37742c-0.32265,0 -0.64529,0 -0.9777,0c-0.16133,0.80661 -0.32265,1.61323 -0.48887,2.44427c-0.76827,-1.53653 -0.05722,-2.62294 0.4583,-4.21638c0.1859,-0.58101 0.3718,-1.16203 0.56333,-1.76065c0.14683,-0.44742 0.29365,-0.89483 0.44492,-1.35581c0.32265,0 0.64529,0 0.97772,0c0.10587,-0.43859 0.10587,-0.43859 0.21388,-0.88605c0.21986,-0.85501 0.48467,-1.69842 0.76384,-2.53593c0.32265,0 0.64529,0 0.97772,0c0.18149,-0.66545 0.18149,-0.66545 0.36664,-1.34436c0.63053,-1.63938 1.25622,-2.40863 2.5665,-3.5442z" fill="#b00000"/><path d="M65.5657,336.79535c0.27498,0.94715 0.27498,0.94715 0.48885,1.95542c-0.16133,0.16133 -0.32264,0.32264 -0.48885,0.48885c-0.43794,3.88742 -0.6265,7.8222 -0.48887,11.73253c0.01386,0.45939 0.02773,0.91879 0.04201,1.39209c0.16523,2.92304 0.53858,4.64708 2.40226,6.91845c0.16133,0.32265 0.32265,0.64529 0.48887,0.97772c-0.94715,-0.36664 -0.94715,-0.36664 -1.95542,-0.97772c-0.36664,-1.03882 -0.36664,-1.03883 -0.48885,-1.95542c-0.32265,0 -0.64529,0 -0.97772,0c-0.40546,-2.82208 -0.56628,-5.55291 -0.54996,-8.4022c0.00095,-0.40225 0.00189,-0.80449 0.00286,-1.21892c0.02335,-3.3286 0.21401,-6.62007 0.5471,-9.9331c0.32265,0 0.64529,0 0.97772,0c0,-0.32265 0,-0.64529 0,-0.97772z" fill="#c50000"/><path d="M-91.84576,29.3053c1.19158,0.39719 1.19158,0.39719 2.44427,0.97772c0.16133,0.48396 0.32265,0.96794 0.48887,1.46657c0.48396,0 0.96794,0 1.46657,0c0,0.32265 0,0.64529 0,0.97772c0.26214,0.05041 0.5243,0.10083 0.79439,0.15276c2.50143,0.72409 4.073,1.63275 5.56072,3.75806c0.48396,0.16133 0.96794,0.32265 1.46657,0.48887c0.33609,1.00827 0.33609,1.00827 0.48885,1.95542c0.64529,0.16133 1.29058,0.32265 1.95542,0.48887c0,0.48396 0,0.96794 0,1.46657c-0.48396,-0.16133 -0.96794,-0.32265 -1.46657,-0.48887c0,-0.32265 0,-0.64529 0,-0.9777c-0.32265,0 -0.64529,0 -0.9777,0c-0.81476,-0.81476 -1.62953,-1.62951 -2.44428,-2.44427c-0.32265,-0.16133 -0.64529,-0.32265 -0.9777,-0.48887c-1.40451,-0.70225 -2.31806,-1.8292 -3.42199,-2.93314c-0.48396,-0.16133 -0.96794,-0.32265 -1.46657,-0.48887c0,-0.32265 0,-0.64529 0,-0.9777c-0.48396,0 -0.96794,0 -1.46657,0c-0.32265,-0.48396 -0.64529,-0.96794 -0.9777,-1.46657c-0.48396,-0.16133 -0.96794,-0.32264 -1.46657,-0.48885c0,-0.32265 0,-0.64529 0,-0.97772z" fill="#6c0000"/><path d="M-76.69124,41.03784c0.48396,0 0.96794,0 1.46657,0c0,0.32265 0,0.64529 0,0.97772c0.32265,0 0.64529,0 0.97772,0c0,0.32265 0,0.64529 0,0.97772c0.51422,0.05041 1.02843,0.10082 1.55823,0.15276c1.80817,0.32606 2.85608,0.70268 4.30804,1.80266c0,0.32265 0,0.64529 0,0.97772c0.32265,0 0.64529,0 0.97772,0c0,0.48396 0,0.96794 0,1.46657c0.64529,0.32265 1.29058,0.64529 1.95542,0.97772c-2.7353,0 -4.87431,-1.62613 -6.84397,-3.42199c0,-0.32265 0,-0.64529 0,-0.97772c-0.80661,-0.16133 -1.61323,-0.32264 -2.44427,-0.48885c0,-0.32265 0,-0.64529 0,-0.97772c-0.48396,0 -0.96794,0 -1.46657,0c-0.16133,-0.48396 -0.32264,-0.96794 -0.48885,-1.46657z" fill="#720000"/><path d="M75.83166,313.33029c0.16133,0.48396 0.32264,0.96794 0.48885,1.46657c-0.48396,0.72596 -0.48396,0.72596 -0.9777,1.46657c-0.13107,0.43355 -0.26214,0.8671 -0.39719,1.31381c-0.72162,2.01293 -1.69307,3.84845 -3.02478,5.53017c-0.32265,0 -0.64529,0 -0.97772,0c-0.07059,0.29241 -0.14116,0.5848 -0.21388,0.88605c-0.21986,0.85501 -0.48467,1.69842 -0.76384,2.53593c-0.32265,0 -0.64529,0 -0.97772,0c1.13605,-3.82379 2.43062,-7.951 5.37742,-10.75483c0.50527,-0.80467 0.99756,-1.61793 1.46657,-2.44427z" fill="#6b0000"/><path d="M106.6295,261.02276c0.16133,0 0.32264,0 0.48885,0c0,5.32364 0,10.64727 0,16.13223c-0.32265,0 -0.64529,0 -0.97772,0c-0.06049,0.45372 -0.12098,0.90743 -0.18331,1.3749c-0.30554,1.55823 -0.30554,1.55823 -1.28324,3.02478c-0.0208,-0.97749 -0.01995,-1.95562 0,-2.93314c0.24198,-0.24198 0.24198,-0.24198 0.48887,-0.48887c0.11337,-0.74047 0.20148,-1.48492 0.27498,-2.23039c0.04096,-0.40393 0.08193,-0.80787 0.12412,-1.22405c0.02962,-0.31193 0.05923,-0.62387 0.08975,-0.94524c0.32265,0 0.64529,0 0.97772,0c0,-4.19438 0,-8.38877 0,-12.71024z" fill="#780000"/><path d="M90.49731,198.44927c1.14505,1.38678 1.73625,2.54451 2.19984,4.27749c0.4429,1.59348 0.93141,3.11392 1.55823,4.64413c0.60982,1.74234 0.77836,2.94303 0.64163,4.76634c-0.95087,-1.42631 -1.19904,-2.26113 -1.46657,-3.91085c-0.32265,0 -0.64529,0 -0.97772,0c-0.23229,-0.92919 -0.46435,-1.85843 -0.69509,-2.788c-0.1836,-0.72941 -0.37174,-1.4577 -0.56523,-2.18457c-0.44115,-1.67636 -0.69509,-3.05771 -0.69509,-4.80453z" fill="#9f0000"/><path d="M34.27895,127.56524c0.65181,0.32591 1.30362,0.65181 1.95542,0.97772c0.32265,0.121 0.64529,0.24198 0.97772,0.36664c1.41021,0.88138 2.02343,2.16587 2.93314,3.5442c0.81046,0.65713 1.62582,1.30828 2.44427,1.95542c1.75063,1.86269 3.37275,3.80844 4.88855,5.86627c-1.57605,-0.69192 -2.61864,-1.52237 -3.81919,-2.74981c-0.50854,-0.51894 -0.50854,-0.51894 -1.02736,-1.04836c-0.97413,-1.04162 -1.90103,-2.11026 -2.82238,-3.19856c-1.24089,-1.4529 -2.40977,-2.30448 -4.0636,-3.26921c-0.88605,-1.31381 -0.88605,-1.31381 -1.46657,-2.44427z" fill="#5e0000"/><path d="M3.481,101.6559c2.77313,0.61009 4.31443,1.42989 6.35512,3.42199c0.16133,0.48396 0.32264,0.96794 0.48885,1.46657c0.80922,0.49798 1.62428,0.98657 2.44428,1.46657c0.48396,0.72594 0.48396,0.72594 0.9777,1.46657c-0.96794,-0.32265 -1.93586,-0.64529 -2.93314,-0.97772c0,-0.32265 0,-0.64529 0,-0.97772c-1.14008,-0.5897 -2.19809,-1.0586 -3.42199,-1.46657c-0.14116,-0.30249 -0.28231,-0.60496 -0.42774,-0.9166c-0.72555,-1.37048 -1.66494,-1.75553 -2.99423,-2.50538c-0.16133,-0.32265 -0.32264,-0.64529 -0.48885,-0.97772z" fill="#7d0000"/><path d="M97.34125,282.5324c0.32265,0.16133 0.64529,0.32265 0.97772,0.48887c-3.70822,6.12461 -3.70822,6.12461 -5.86627,6.84397c-0.16133,0.32265 -0.32264,0.64529 -0.48885,0.97772c-0.32265,0 -0.64529,0 -0.97772,0c-0.16133,0.32265 -0.32265,0.64529 -0.48887,0.97772c0.28969,-1.55855 0.76056,-2.43977 1.80266,-3.62632c0.26089,-0.30027 0.52177,-0.60055 0.79057,-0.90992c0.41024,-0.46174 0.41024,-0.46174 0.82877,-0.93283c0.41024,-0.47026 0.41024,-0.47026 0.82877,-0.95003c1.91995,-2.1959 1.91995,-2.1959 2.59323,-2.86916z" fill="#960000"/><path d="M95.8747,196.49385c0.97772,0.48885 0.9777,0.48887 1.52767,1.61934c0.42774,1.31381 0.42774,1.31381 0.42774,3.26922c0.32265,0 0.64529,0 0.97772,0c0.0649,0.52367 0.12982,1.04734 0.19669,1.58687c0.08709,0.68301 0.1743,1.36601 0.26161,2.04899c0.04254,0.34564 0.08508,0.69129 0.1289,1.04742c0.08848,1.71496 0.08848,1.71496 0.87937,3.13842c0.01995,0.97751 0.0208,1.95564 0,2.93314c-1.37418,-0.96493 -1.48488,-1.56279 -1.80648,-3.25203c-0.07643,-0.69761 -0.14624,-1.39595 -0.21006,-2.09483c-0.27366,-2.98051 -0.27366,-2.98051 -0.9166,-5.89682c-0.32265,0 -0.64529,0 -0.97772,0c-0.16133,-1.4519 -0.32264,-2.9038 -0.48885,-4.3997z" fill="#830000"/><path d="M-12.65117,87.4791c1.8707,1.02358 3.41399,1.8804 4.88855,3.42199c0.58984,0.33272 0.58984,0.33273 1.19158,0.67218c1.41462,0.89708 2.2266,1.89364 3.20811,3.23866c-1.36005,-0.18379 -2.24283,-0.32909 -3.33034,-1.19158c-0.58053,-0.76384 -0.58051,-0.76384 -0.58051,-1.74154c-0.43859,-0.07562 -0.43859,-0.07561 -0.88605,-0.15276c-1.22355,-0.38455 -1.66242,-0.89116 -2.53593,-1.80266c-0.48396,-0.16133 -0.96794,-0.32265 -1.46657,-0.48887c-0.33609,-1.00827 -0.33609,-1.00827 -0.48887,-1.95542z" fill="#9d0000"/><path d="M52.85546,-19.09138c5.8076,0 11.6152,0 17.5988,0c0,0.16133 0,0.32264 0,0.48885c-0.45308,0.02962 -0.90619,0.05923 -1.373,0.08975c-0.87814,0.06145 -0.87814,0.06145 -1.77402,0.12412c-0.58416,0.03971 -1.16832,0.0794 -1.77018,0.1203c-1.38205,-0.00344 -1.38205,-0.00344 -1.92678,0.64354c-1.71099,0.06111 -1.71099,0.06111 -3.42199,0c-0.16133,-0.16133 -0.32264,-0.32264 -0.48885,-0.48885c-1.14875,-0.11502 -2.30035,-0.20232 -3.45254,-0.27499c-0.63079,-0.04096 -1.2616,-0.08191 -1.9115,-0.12412c-0.73257,-0.04442 -0.73257,-0.04444 -1.47993,-0.08975c0,-0.16133 0,-0.32264 0,-0.48885z" fill="#1f0000"/><path d="M-100.1563,15.1285c1.16103,0.15276 1.16103,0.15276 2.44427,0.48887c0.32265,0.48396 0.64529,0.96794 0.97772,1.46657c-1.20992,-0.48396 -1.20992,-0.48396 -2.44427,-0.97772c0.05546,1.04932 0.11784,2.09827 0.18333,3.14701c0.03402,0.58416 0.06806,1.16832 0.10312,1.77018c0.0668,0.47452 0.1336,0.94903 0.20242,1.43793c0.32265,0.16133 0.64529,0.32265 0.9777,0.48887c0,0.32265 0,0.64529 0,0.97772c0.32265,0 0.64529,0 0.97772,0c0.16133,0.64529 0.32265,1.29058 0.48887,1.95542c-0.97772,0 -0.97772,0 -2.23039,-1.03882c-2.33458,-2.75361 -1.7356,-6.27208 -1.68044,-9.71601z" fill="#6f0000"/><path d="M53.34432,-18.11367c1.4519,0 2.9038,0 4.3997,0c0.02962,0.45308 0.05923,0.90617 0.08975,1.373c0.04096,0.58542 0.08193,1.17085 0.12412,1.77402c0.03971,0.58416 0.0794,1.16833 0.1203,1.77018c-0.00344,1.38205 -0.00344,1.38205 0.64354,1.92678c0.11421,0.90386 0.20191,1.81115 0.27498,2.71926c0.04096,0.49468 0.08193,0.98936 0.12412,1.49903c0.02962,0.38251 0.05923,0.76503 0.08975,1.15913c-0.32265,-0.16133 -0.64529,-0.32265 -0.97772,-0.48887c-0.18283,-1.13765 -0.34594,-2.27863 -0.48885,-3.42199c-0.16133,-0.16133 -0.32264,-0.32265 -0.48885,-0.48887c-0.11563,-1.23483 -0.20618,-2.45946 -0.27499,-3.69696c-0.0211,-0.34753 -0.04222,-0.69508 -0.06396,-1.05314c-0.05199,-0.86078 -0.10121,-1.72174 -0.14991,-2.58273c-1.12925,0 -2.25851,0 -3.42199,0c0,-0.16133 0,-0.32264 0,-0.48885z" fill="#be0000"/><path d="M89.03074,196.49385c1.30404,1.52561 1.78878,2.8182 2.23039,4.76634c0.17865,0.77511 0.17865,0.77511 0.36091,1.56587c0.1128,0.49153 0.22561,0.98305 0.34182,1.48948c0.20235,0.73365 0.40582,1.467 0.61108,2.19984c0.34679,1.61842 0.33863,2.16537 -0.12221,3.66641c-1.02941,-2.70221 -1.6516,-4.92276 -1.46657,-7.82169c-0.32265,0 -0.64529,0 -0.97772,0c0,-0.80661 0,-1.61323 0,-2.44427c-0.32265,0 -0.64529,0 -0.97772,0c0,-1.12925 0,-2.25851 0,-3.42199z" fill="#620000"/><path d="M79.7425,175.96193c0.48396,0.24198 0.48396,0.24198 0.97772,0.48887c0,0.32265 0,0.64529 0,0.97772c0.32265,0 0.64529,0 0.97772,0c0.32812,0.7119 0.65352,1.42505 0.97772,2.13875c0.27223,0.59551 0.27223,0.59551 0.54996,1.20305c0.42774,1.05791 0.42774,1.05791 0.42774,2.03563c0.32265,0 0.64529,0 0.9777,0c0,0.48396 0,0.96794 0,1.46657c0.32265,0 0.64529,0 0.97772,0c-0.16133,0.64529 -0.32264,1.29058 -0.48885,1.95542c-0.32265,-0.80661 -0.64529,-1.61323 -0.97772,-2.44427c-0.32265,0 -0.64529,0 -0.97772,0c-0.71404,-1.29419 -0.97772,-1.90384 -0.97772,-3.42199c-0.32265,0 -0.64529,0 -0.9777,0c0,-0.64529 0,-1.29058 0,-1.95542c-0.48396,-0.16133 -0.96794,-0.32264 -1.46657,-0.48885c0,-0.64529 0,-1.29058 0,-1.95542z" fill="#a60000"/><path d="M61.65485,152.49686c1.22214,0.67218 1.22213,0.67218 2.44427,1.46657c0,0.32265 0,0.64529 0,0.97772c0.32265,0 0.64529,0 0.97772,0c0,0.32265 0,0.64529 0,0.97772c0.32265,0 0.64529,0 0.97772,0c0.48396,0.96794 0.96794,1.93586 1.46657,2.93314c-0.80661,-0.16133 -1.61323,-0.32264 -2.44427,-0.48885c0,-0.32265 0,-0.64529 0,-0.97772c-0.32265,0 -0.64529,0 -0.97772,0c-0.06049,-0.45372 -0.06049,-0.45373 -0.12221,-0.9166c-0.27502,-1.12895 -0.27502,-1.12895 -1.3749,-1.64989c-0.31255,-0.121 -0.62512,-0.24198 -0.94715,-0.36664c0,-0.64529 0,-1.29058 0,-1.95542z" fill="#a10000"/><path d="M94.89697,212.62608c0.48396,0.24198 0.48396,0.24198 0.97772,0.48885c0,1.12925 0,2.25851 0,3.42199c0.32265,0 0.64529,0 0.97772,0c0,1.29058 0,2.58115 0,3.91085c0.32265,0 0.64529,0 0.9777,0c0.16133,1.29058 0.32265,2.58116 0.48887,3.91085c-0.32265,-0.16133 -0.64529,-0.32265 -0.97772,-0.48887c0,-0.64529 0,-1.29058 0,-1.95542c-0.32265,0 -0.64529,0 -0.97772,0c-0.79611,-2.12942 -1.1445,-4.02784 -1.28324,-6.29401c-0.03655,-0.56337 -0.07309,-1.12673 -0.11076,-1.70717c-0.03592,-0.6371 -0.03592,-0.6371 -0.07257,-1.28706z" fill="#c10000"/><path d="M74.36511,170.58452c0.32265,0 0.64529,0 0.97772,0c0,0.32265 0,0.64529 0,0.97772c0.32265,0 0.64529,0 0.9777,0c0,0.32265 0,0.64529 0,0.9777c0.38314,0.13107 0.76629,0.26214 1.16103,0.39719c1.28324,0.58053 1.28324,0.58053 2.26094,2.04708c0.06111,1.55823 0.06111,1.55823 0,2.93314c-0.32265,-0.16133 -0.64529,-0.32264 -0.9777,-0.48885c0,-0.32265 0,-0.64529 0,-0.97772c-0.32265,0 -0.64529,0 -0.97772,0c0,-0.64529 0,-1.29058 0,-1.95542c-0.32265,0 -0.64529,0 -0.97772,0c0,-0.32265 0,-0.64529 0,-0.97772c-0.32265,0 -0.64529,0 -0.97772,0c-0.48396,-0.96794 -0.96794,-1.93586 -1.46657,-2.93314z" fill="#760000"/><path d="M54.32202,145.16404c0.54043,0.45752 1.08005,0.91602 1.61934,1.3749c0.30059,0.25522 0.60117,0.51043 0.91088,0.77339c1.6346,1.43859 1.6346,1.43859 2.35833,2.2514c0,0.32265 0,0.64529 0,0.97772c0.46885,0.07562 0.46885,0.07562 0.94715,0.15276c0.49909,0.16636 0.49909,0.16636 1.00827,0.33609c0.16133,0.48396 0.32264,0.96794 0.48885,1.46657c-0.32265,0 -0.64529,0 -0.97772,0c0,-0.32265 0,-0.64529 0,-0.97772c-0.41339,-0.08067 -0.82678,-0.16133 -1.25269,-0.24443c-2.28804,-0.99842 -3.71973,-2.57826 -5.10243,-4.64413c0,-0.48396 0,-0.96794 0,-1.46657z" fill="#960000"/><path d="M-57.62588,54.72579c1.634,0.29178 2.67128,0.84868 3.91085,1.95542c0,0.32265 0,0.64529 0,0.97772c0.64529,0.32265 1.29058,0.64529 1.95542,0.97772c0,0.32265 0,0.64529 0,0.9777c0.32265,0 0.64529,0 0.97772,0c0,0.32265 0,0.64529 0,0.97772c0.48396,0 0.96794,0 1.46657,0c0.16133,0.48396 0.32264,0.96794 0.48885,1.46657c-0.32265,0 -0.64529,0 -0.97772,0c0,-0.32265 0,-0.64529 0,-0.9777c-0.48396,0 -0.96794,0 -1.46657,0c0,-0.32265 0,-0.64529 0,-0.97772c-0.48396,0 -0.96794,0 -1.46657,0c0,-0.32265 0,-0.64529 0,-0.97772c-0.32265,0 -0.64529,0 -0.97772,0c0,-0.32265 0,-0.64529 0,-0.97772c-0.48396,0 -0.96794,0 -1.46657,0c-0.13107,-0.29241 -0.26214,-0.5848 -0.39719,-0.88605c-0.57315,-1.0558 -1.16405,-1.7332 -2.04708,-2.53593z" fill="#6a0000"/><path d="M48.94462,353.41643c0.32265,0.16133 0.64529,0.32265 0.9777,0.48887c-0.16133,0.48396 -0.32264,0.96794 -0.48885,1.46657c-0.32265,0 -0.64529,0 -0.97772,0c0,0.48396 0,0.96794 0,1.46657c-0.32265,0 -0.64529,0 -0.97772,0c0,0.32265 0,0.64529 0,0.97772c-0.32265,0 -0.64529,0 -0.9777,0c0,0.48396 0,0.96794 0,1.46657c-0.32265,0 -0.64529,0 -0.97772,0c-0.04033,0.29241 -0.08067,0.5848 -0.12221,0.88605c-0.46665,1.36103 -1.13479,1.76995 -2.32206,2.53593c0.32265,-0.96794 0.64529,-1.93586 0.97772,-2.93314c0.32265,0 0.64529,0 0.9777,0c0,-0.48396 0,-0.96794 0,-1.46657c0.32265,0 0.64529,0 0.97772,0c0,-0.32265 0,-0.64529 0,-0.97772c0.32265,0 0.64529,0 0.97772,0c0,-0.48396 0,-0.96794 0,-1.46657c0.32265,0 0.64529,0 0.97772,0c0,-0.48396 0,-0.96794 0,-1.46657c0.32265,0 0.64529,0 0.97772,0c0,-0.32265 0,-0.64529 0,-0.97772z" fill="#5f0000"/><path d="M68.9877,342.17277c0.16133,0 0.32265,0 0.48887,0c0.01837,0.42506 0.01837,0.42506 0.03712,0.85872c0.05696,1.29246 0.11683,2.58475 0.17676,3.87706c0.01921,0.44583 0.03843,0.89168 0.05824,1.35104c0.02048,0.43323 0.04096,0.86648 0.06207,1.31285c0.01792,0.39681 0.03584,0.79361 0.0543,1.20244c0.10545,1.23436 0.32476,2.40984 0.58922,3.61927c-1.34454,-0.93535 -1.48122,-1.54116 -1.80266,-3.17756c-0.57398,-6.31365 -0.57398,-6.31365 0.33609,-9.04382z" fill="#af0000"/><path d="M85.60871,186.22789c0.48396,0.24198 0.48396,0.24198 0.97772,0.48885c0,0.48396 0,0.96794 0,1.46657c0.32265,0 0.64529,0 0.97772,0c0,0.64529 0,1.29058 0,1.95542c0.32265,0 0.64529,0 0.97772,0c0,0.64529 0,1.29058 0,1.95542c0.32265,0 0.64529,0 0.9777,0c0,0.64529 0,1.29058 0,1.95542c0.32265,0 0.64529,0 0.97772,0c0.16133,1.4519 0.32265,2.9038 0.48887,4.3997c-0.97772,-0.97772 -0.97772,-0.9777 -1.03883,-2.50538c0.02016,-0.4638 0.04033,-0.9276 0.06111,-1.40545c-0.32265,0 -0.64529,0 -0.97772,0c-0.33079,-0.60843 -0.65553,-1.22016 -0.97772,-1.83321c-0.18149,-0.34028 -0.36298,-0.68058 -0.54996,-1.03118c-0.42774,-1.04645 -0.42774,-1.04645 -0.42774,-3.00187c-0.32265,0 -0.64529,0 -0.9777,0c-0.16133,-0.80661 -0.32265,-1.61323 -0.48887,-2.44427z" fill="#c90000"/><path d="M-99.17858,21.48362c1.20992,0.48396 1.20992,0.48396 2.44427,0.9777c0,0.32265 0,0.64529 0,0.97772c0.64529,0.32265 1.29058,0.64529 1.95542,0.97772c0,0.48396 0,0.96794 0,1.46657c0.64529,0.16133 1.29058,0.32265 1.95542,0.48887c0.16133,0.64529 0.32264,1.29058 0.48885,1.95542c-1.68232,-0.7477 -3.04177,-1.68836 -4.3997,-2.93314c0,-0.48396 0,-0.96794 0,-1.46657c-0.32265,0 -0.64529,0 -0.97772,0c0,-0.32265 0,-0.64529 0,-0.97772c-0.48396,-0.16133 -0.96794,-0.32265 -1.46657,-0.48887c0,-0.32265 0,-0.64529 0,-0.9777z" fill="#900000"/><path d="M-4.82948,94.81192c1.20992,0.24198 1.20992,0.24198 2.44427,0.48885c0.16133,0.48396 0.32264,0.96794 0.48885,1.46657c0.32265,0.16133 0.64529,0.32265 0.97772,0.48887c0.32265,0.16133 0.64529,0.32264 0.97772,0.48885c0.16133,0.48396 0.32264,0.96794 0.48885,1.46657c0.48396,0.16133 0.96794,0.32265 1.46657,0.48887c0.16133,0.48396 0.32264,0.96794 0.48885,1.46657c-0.32265,0 -0.64529,0 -0.97772,0c0,-0.32265 0,-0.64529 0,-0.97772c-0.46885,-0.07562 -0.46885,-0.07561 -0.94715,-0.15276c-0.49909,-0.16636 -0.49909,-0.16636 -1.00827,-0.33609c-0.16133,-0.48396 -0.32265,-0.96794 -0.48887,-1.46657c-0.29241,-0.14116 -0.5848,-0.28231 -0.88605,-0.42774c-1.40718,-0.72369 -2.09645,-1.73435 -3.02478,-2.99423z" fill="#6f0000"/><path d="M-44.42678,65.48061c1.85424,0.48981 3.28285,0.88495 4.88855,1.95542c0,0.48396 0,0.96794 0,1.46657c0.48396,0 0.96794,0 1.46657,0c0,0.32265 0,0.64529 0,0.97772c0.31255,0.06049 0.62512,0.12098 0.94715,0.18331c0.33272,0.10083 0.66545,0.20165 1.00827,0.30554c0.16133,0.32265 0.32264,0.64529 0.48885,0.97772c-0.96794,-0.32265 -1.93586,-0.64529 -2.93314,-0.97772c0,-0.32265 0,-0.64529 0,-0.9777c-0.45372,-0.10587 -0.45373,-0.10587 -0.9166,-0.21388c-1.03882,-0.27498 -1.03882,-0.27499 -2.01653,-0.76384c0,-0.32265 0,-0.64529 0,-0.97772c-0.39322,-0.14116 -0.78645,-0.28231 -1.19158,-0.42774c-1.25269,-0.54996 -1.25269,-0.54996 -1.74154,-1.52768z" fill="#660000"/><path d="M73.38738,166.67367c0.32265,0 0.64529,0 0.97772,0c0,0.32265 0,0.64529 0,0.9777c0.32265,0 0.64529,0 0.97772,0c0.32265,0.96794 0.64529,1.93586 0.9777,2.93314c0.32265,0 0.64529,0 0.97772,0c0.32265,0.96794 0.64529,1.93586 0.97772,2.93314c-0.64529,-0.32265 -1.29058,-0.64529 -1.95542,-0.97772c0,-0.32265 0,-0.64529 0,-0.9777c-0.32265,0 -0.64529,0 -0.9777,0c0,-0.32265 0,-0.64529 0,-0.97772c-0.32265,0 -0.64529,0 -0.97772,0c-0.32265,-1.29058 -0.64529,-2.58115 -0.97772,-3.91085z" fill="#a10000"/><path d="M83.16442,298.17576c0.48885,1.46657 0.48887,1.46657 0.14323,2.36217c-0.17834,0.3195 -0.35667,0.63898 -0.54042,0.96816c-0.66937,1.24903 -1.16705,2.34009 -1.61934,3.69696c-0.42774,1.28324 -0.42774,1.28324 -1.40545,2.26096c-0.3141,1.01132 -0.3141,1.01132 -0.48885,1.95542c-0.32265,0 -0.64529,0 -0.97772,0c1.17182,-3.99797 2.97644,-7.56089 4.88855,-11.24368z" fill="#710000"/><path d="M21.56872,114.36614c1.90793,0.77566 3.09701,2.02068 4.5219,3.48309c0.43608,0.44489 0.87215,0.8898 1.32144,1.34817c0.3302,0.34156 0.6604,0.6831 1.00063,1.035c-0.48396,0.16133 -0.96794,0.32264 -1.46657,0.48885c-0.32265,-0.16133 -0.64529,-0.32264 -0.9777,-0.48885c0,-0.32265 0,-0.64529 0,-0.97772c-0.32265,0 -0.64529,0 -0.97772,0c-1.67486,-1.40472 -2.52384,-2.91264 -3.42199,-4.88855z" fill="#a60000"/><path d="M17.65787,112.89957c2.73114,0.62073 3.42638,1.59967 4.88855,3.91085c1.27113,0.91079 1.27113,0.91079 2.44427,1.46657c-0.16133,0.32265 -0.32265,0.64529 -0.48887,0.97772c-1.56668,-0.80572 -2.64513,-1.62564 -3.72751,-2.99423c-1.03689,-1.50802 -1.03688,-1.50801 -2.6276,-1.89432c-0.16133,-0.48396 -0.32264,-0.96794 -0.48885,-1.46657z" fill="#6c0000"/><path d="M101.25211,219.95891c0.32265,0 0.64529,0 0.97772,0c0.13328,0.4868 0.13328,0.4868 0.26925,0.98344c0.74852,2.70698 0.74852,2.70698 2.02226,5.18837c0.95104,1.72092 0.74065,3.12433 0.64163,5.07187c-0.16133,0 -0.32265,0 -0.48887,0c-0.05041,-0.51422 -0.10082,-1.02843 -0.15276,-1.55823c-0.32876,-1.82308 -0.8244,-2.77686 -1.80266,-4.30804c0,-0.48396 0,-0.96794 0,-1.46657c-0.32265,0 -0.64529,0 -0.9777,0c-0.16133,-1.29058 -0.32265,-2.58115 -0.48887,-3.91085z" fill="#9b0000"/><path d="M-20.96172,80.63513c0.64529,0.16133 1.29058,0.32264 1.95542,0.48885c0,0.32265 0,0.64529 0,0.97772c0.30249,0.121 0.60496,0.24198 0.9166,0.36664c1.03882,0.61108 1.03882,0.61108 1.49712,1.58878c0.71495,1.34579 1.57131,1.43327 2.96369,1.95542c0.48396,0.72594 0.48396,0.72594 0.9777,1.46657c-2.18418,-0.68645 -3.30923,-1.80111 -4.88855,-3.42199c-0.48396,-0.16133 -0.96794,-0.32265 -1.46657,-0.48887c0,-0.32265 0,-0.64529 0,-0.9777c-0.32265,0 -0.64529,0 -0.97772,0c0,-0.32265 0,-0.64529 0,-0.97772c-0.32265,0 -0.64529,0 -0.97772,0c0,-0.32265 0,-0.64529 0,-0.97772z" fill="#b40000"/><path d="M70.45425,337.77305c0.16133,0 0.32264,0 0.48885,0c0,0.96794 0,1.93586 0,2.93314c-0.32265,0 -0.64529,0 -0.97772,0c0,3.71041 0,7.42083 0,11.24368c-0.16133,0 -0.32264,0 -0.48885,0c-0.02839,-1.99612 -0.04577,-3.99222 -0.06111,-5.98847c-0.00819,-0.56651 -0.01637,-1.13302 -0.02482,-1.71672c-0.00315,-0.54509 -0.00631,-1.09018 -0.00955,-1.65179c-0.00512,-0.50177 -0.01024,-1.00354 -0.01552,-1.52052c0.1118,-1.35357 0.39243,-2.14766 1.0887,-3.2993z" fill="#4c0000"/><path d="M48.94462,141.74205c1.65759,0.71039 2.64617,1.66845 3.91085,2.93314c0.48396,0.16133 0.96794,0.32265 1.46657,0.48887c0.94926,1.40489 1.69123,2.8839 2.44427,4.3997c-2.75923,-2.28957 -5.38024,-4.70316 -7.82168,-7.33282c0,-0.16133 0,-0.32264 0,-0.48885z" fill="#630000"/><path d="M-30.24996,75.74657c2.54118,0.66554 3.9575,1.69501 5.86627,3.42199c-0.16133,0.32265 -0.32265,0.64529 -0.48887,0.9777c-0.48396,-0.16133 -0.96794,-0.32264 -1.46657,-0.48885c0,-0.32265 0,-0.64529 0,-0.97772c-0.28231,-0.121 -0.56463,-0.24198 -0.8555,-0.36664c-1.24673,-0.69263 -2.08637,-1.5283 -3.05535,-2.5665z" fill="#670000"/><path d="M60.18828,-2.95915c1.92843,1.28561 1.96845,2.16702 2.44427,4.3997c0.03619,1.1401 0.04652,2.28228 0,3.42199c-1.10666,-1.10666 -1.19755,-1.58812 -1.49712,-3.0859c-0.08003,-0.39071 -0.16007,-0.7814 -0.24252,-1.18394c-0.07121,-0.3655 -0.14242,-0.73099 -0.21579,-1.10757c-0.15123,-0.74107 -0.15123,-0.74107 -0.30554,-1.49712c-0.06049,-0.31255 -0.12098,-0.62512 -0.18331,-0.94715z" fill="#b00000"/><path d="M68.49884,162.76283c0.34281,0.36298 0.68562,0.72594 1.03882,1.09993c1.35408,1.38938 1.35408,1.38938 2.99423,2.32206c1.34436,0.97772 1.34436,0.97772 1.77209,2.32206c0.03025,0.54447 0.03025,0.54447 0.06111,1.09993c-0.32265,0 -0.64529,0 -0.97772,0c-0.121,-0.38314 -0.24198,-0.76629 -0.36664,-1.16103c-0.72181,-1.51579 -1.10386,-1.57267 -2.56648,-2.26096c-1.95542,-2.17269 -1.95542,-2.17269 -1.95542,-3.42199z" fill="#6c0000"/><path d="M64.09913,-17.62481c0.48396,0 0.96794,0 1.46657,0c0,2.58115 0,5.16231 0,7.82169c-0.16133,0 -0.32265,0 -0.48887,0c-0.02962,-0.31193 -0.05923,-0.62387 -0.08975,-0.94526c-0.04096,-0.40393 -0.08193,-0.80787 -0.12412,-1.22405c-0.03971,-0.40267 -0.0794,-0.80535 -0.1203,-1.22023c-0.05168,-1.00362 -0.05168,-1.00364 -0.64354,-1.49904c-0.01995,-0.97751 -0.0208,-1.95564 0,-2.93314z" fill="#780000"/><path d="M98.80781,277.64384c0.69697,1.39395 0.32021,2.46309 -0.05919,3.92231c-0.72063,1.62065 -1.82085,2.11718 -3.3628,2.92168c0.32265,-0.96794 0.64529,-1.93586 0.97772,-2.93314c0.32265,0 0.64529,0 0.97772,0c0.15123,-0.55455 0.30249,-1.10909 0.4583,-1.68043c0.51942,-1.74154 0.51942,-1.74154 1.00827,-2.23039z" fill="#670000"/><path d="M99.2967,289.37638c0.32265,0.16133 0.64529,0.32264 0.9777,0.48885c-0.31255,0.29241 -0.62512,0.5848 -0.94715,0.88605c-1.10755,1.02445 -1.10755,1.02445 -1.49712,2.53593c-0.32265,0 -0.64529,0 -0.9777,0c0,0.32265 0,0.64529 0,0.97772c-0.64529,-0.16133 -1.29058,-0.32264 -1.95542,-0.48885c1.4519,-1.4519 2.9038,-2.9038 4.3997,-4.3997z" fill="#6c0000"/><path d="M105.65184,273.733c0.32265,0 0.64529,0 0.97772,0c-0.05627,0.84565 -0.11857,1.69089 -0.18333,2.53593c-0.05105,0.70611 -0.05103,0.70611 -0.10312,1.42647c-0.20348,1.42239 -0.59288,2.55351 -1.18012,3.85929c-0.16133,0 -0.32265,0 -0.48887,0c-0.0208,-0.97749 -0.01995,-1.95562 0,-2.93314c0.16133,-0.16133 0.32265,-0.32265 0.48887,-0.48887c0.11337,-0.74047 0.20148,-1.48492 0.27498,-2.23039c0.04096,-0.40393 0.08193,-0.80787 0.12412,-1.22405c0.02962,-0.31193 0.05923,-0.62387 0.08975,-0.94524z" fill="#b40000"/><path d="M98.319,204.31554c1.64255,2.46381 2.09856,4.88714 1.95542,7.82168c-1.25939,-0.93525 -1.45873,-1.41847 -1.71672,-2.99996c-0.02835,-0.57282 -0.05672,-1.14564 -0.08594,-1.73581c-0.03213,-0.57659 -0.06428,-1.1532 -0.09738,-1.74729c-0.01827,-0.44174 -0.03655,-0.88349 -0.05537,-1.33863z" fill="#b10000"/><path d="M64.58798,11.21766c0.16133,0 0.32264,0 0.48885,0c0.14116,0.45372 0.28231,0.90743 0.42774,1.3749c0.49497,1.60608 0.49497,1.60609 1.52768,3.0248c0.03865,1.14001 0.04302,2.28213 0,3.42199c-0.16133,-0.64529 -0.32265,-1.29058 -0.48887,-1.95542c-0.32265,0 -0.64529,0 -0.9777,0c-0.77796,-2.04214 -1.08172,-3.68186 -0.97772,-5.86627z" fill="#c10000"/><path d="M59.21059,7.79566c0.16133,0.32265 0.32265,0.64529 0.48887,0.97772c0.32265,0 0.64529,0 0.9777,0c0,0.96794 0,1.93586 0,2.93314c0.32265,0 0.64529,0 0.97772,0c0.16133,1.29058 0.32265,2.58116 0.48887,3.91085c-0.97772,-0.48885 -0.97772,-0.48887 -1.37681,-1.52004c-0.12036,-0.42599 -0.24074,-0.85199 -0.36473,-1.29088c-0.12162,-0.42095 -0.24324,-0.84189 -0.36855,-1.2756c-0.32081,-1.23927 -0.58553,-2.47752 -0.82303,-3.73516z" fill="#a10000"/><path d="M98.319,226.80288c0.97772,0.48885 0.9777,0.48885 1.52767,1.61933c0.60743,2.55992 0.50402,5.0504 0.42774,7.66893c-0.16133,0 -0.32264,0 -0.48885,0c-0.03592,-0.4698 -0.03592,-0.46979 -0.07257,-0.94906c-0.22322,-2.58245 -0.62181,-4.89049 -1.394,-7.36148c0,-0.32265 0,-0.64529 0,-0.97772z" fill="#9a0000"/><path d="M7.3919,105.0779c1.19158,0.18331 1.19158,0.18333 2.44427,0.48887c0.16133,0.32265 0.32264,0.64529 0.48885,0.9777c0.39322,0.2319 0.78645,0.4638 1.19158,0.70273c1.25269,0.76384 1.25269,0.76384 2.23039,2.23039c-0.96794,-0.32265 -1.93586,-0.64529 -2.93314,-0.97772c0,-0.32265 0,-0.64529 0,-0.97772c-1.14008,-0.5897 -2.19809,-1.0586 -3.42199,-1.46657c0,-0.32265 0,-0.64529 0,-0.97772z" fill="#670000"/><path d="M50.90004,141.25318c0.96794,0.48396 0.96794,0.48396 1.95542,0.97772c0,0.32265 0,0.64529 0,0.97772c0.32265,0 0.64529,0 0.97772,0c0.16133,0.64529 0.32264,1.29058 0.48885,1.95542c-0.88605,-0.09166 -0.88605,-0.09166 -1.95542,-0.48887c-1.46657,-2.04271 -1.46657,-2.04273 -1.46657,-3.42199z" fill="#9f0000"/><path d="M-31.22767,73.30229c1.19158,0.39719 1.19158,0.39719 2.44427,0.97772c0.16133,0.48396 0.32264,0.96794 0.48885,1.46657c0.97779,0.59094 0.97779,0.59094 1.95542,0.97772c-1.56627,0 -2.49022,-0.3634 -3.91085,-0.97772c0,-0.48396 0,-0.96794 0,-1.46657c-0.32265,0 -0.64529,0 -0.97772,0c0,-0.32265 0,-0.64529 0,-0.97772z" fill="#a10000"/><path d="M67.52111,31.74958c0.16133,0.64529 0.32265,1.29058 0.48887,1.95542c0.32265,0 0.64529,0 0.9777,0c0.70974,2.21794 1.09264,3.99915 0.97772,6.35512c-0.16133,0 -0.32264,0 -0.48885,0c-0.1002,-0.34723 -0.20039,-0.69444 -0.30363,-1.05218c-0.1317,-0.4493 -0.26342,-0.89861 -0.39911,-1.36154c-0.19566,-0.67206 -0.19566,-0.67208 -0.39528,-1.35772c-0.26602,-1.08789 -0.26602,-1.08789 -0.85741,-1.60596c-0.01995,-0.97751 -0.0208,-1.95564 0,-2.93314z" fill="#800000"/><path d="M80.72021,305.99745c0.16133,0.32265 0.32265,0.64529 0.48887,0.97772c-0.45683,0.99308 -0.94459,1.97269 -1.46657,2.93314c-0.32265,0 -0.64529,0 -0.9777,0c-0.16133,0.80661 -0.32265,1.61323 -0.48887,2.44427c-0.60885,-1.2177 -0.37971,-1.66738 0,-2.93314c0.32265,0 0.64529,0 0.97772,0c0.06049,-0.38314 0.12098,-0.76629 0.18331,-1.16103c0.30554,-1.28324 0.30554,-1.28324 1.28324,-2.26094z" fill="#9c0000"/><path d="M99.78555,276.17729c0.32265,0 0.64529,0 0.97772,0c-0.22889,2.33466 -0.60781,3.93272 -1.95542,5.86627c-0.56687,-1.70059 -0.37866,-2.1227 0.21388,-3.75808c0.21079,-0.59266 0.21079,-0.59266 0.42584,-1.19732c0.11154,-0.30059 0.22308,-0.60117 0.338,-0.91088z" fill="#960000"/><path d="M-79.62437,30.28301c0.64529,0.16133 1.29058,0.32264 1.95542,0.48885c0,0.32265 0,0.64529 0,0.97772c0.31255,0.13107 0.62512,0.26214 0.94715,0.39719c1.00827,0.58053 1.00827,0.58053 1.49712,2.04708c-0.48396,0 -0.96794,0 -1.46657,0c0,-0.32265 0,-0.64529 0,-0.97772c-0.32265,0 -0.64529,0 -0.97772,0c0,-0.32265 0,-0.64529 0,-0.9777c-0.32265,0 -0.64529,0 -0.97772,0c0,-0.32265 0,-0.64529 0,-0.97772c-0.32265,0 -0.64529,0 -0.9777,0c0,-0.32265 0,-0.64529 0,-0.97772z" fill="#800000"/><path d="M70.45425,-17.62481c0.72596,0.48396 0.72596,0.48396 1.46657,0.97772c0.14323,1.37874 0.14323,1.37874 0.09166,2.99423c-0.01324,0.53563 -0.02646,1.07127 -0.04011,1.62315c-0.01701,0.41212 -0.03402,0.82426 -0.05157,1.24887c-0.16133,0 -0.32265,0 -0.48887,0c0,-1.29058 0,-2.58116 0,-3.91085c-0.32265,0 -0.64529,0 -0.9777,0c0,-0.96794 0,-1.93586 0,-2.93314z" fill="#490000"/><path d="M-42.47135,58.14777c1.63144,0.57321 2.82284,1.06994 3.91085,2.44427c0,0.32265 0,0.64529 0,0.97772c0.48396,0 0.96794,0 1.46657,0c-0.16133,0.32265 -0.32264,0.64529 -0.48885,0.97772c-1.46657,-0.48885 -1.46657,-0.48887 -2.44427,-1.95542c-0.48396,-0.16133 -0.96794,-0.32264 -1.46657,-0.48885c0,-0.32265 0,-0.64529 0,-0.97772c-0.32265,0 -0.64529,0 -0.97772,0c0,-0.32265 0,-0.64529 0,-0.97772z" fill="#5e0000"/><path d="M67.03225,19.03935c0.48396,0.24198 0.48396,0.24198 0.97772,0.48885c0,0.64529 0,1.29058 0,1.95542c0.32265,0 0.64529,0 0.9777,0c0,1.29058 0,2.58115 0,3.91085c-0.16133,-0.64529 -0.32264,-1.29058 -0.48885,-1.95542c-0.32265,0 -0.64529,0 -0.97772,0c-0.16133,-1.4519 -0.32264,-2.9038 -0.48885,-4.3997z" fill="#c70000"/><path d="M74.85394,318.21885c0,1.56243 -0.26727,2.15936 -0.97772,3.51365c-0.18149,0.34974 -0.36296,0.69947 -0.54996,1.05982c-0.14116,0.2653 -0.28231,0.5306 -0.42774,0.80394c-0.48885,-0.97772 -0.48887,-0.9777 -0.12221,-2.41372c0.56084,-1.37408 0.95181,-2.04255 2.07763,-2.96369z" fill="#b70000"/><path d="M82.67561,301.1089c0.32265,0 0.64529,0 0.97772,0c-0.34491,1.79351 -1.11329,3.27754 -1.95542,4.88855c-0.16133,0 -0.32264,0 -0.48885,0c-0.17776,-2.07384 0.2252,-3.21748 1.46657,-4.88855z" fill="#a40000"/><path d="M90.00846,291.82065c0,0.32265 0,0.64529 0,0.97772c-0.32265,0 -0.64529,0 -0.97772,0c0,0.32265 0,0.64529 0,0.97772c-0.32265,0 -0.64529,0 -0.97772,0c-0.32265,0.64529 -0.64529,1.29058 -0.97772,1.95542c-0.32265,0 -0.64529,0 -0.9777,0c0.16632,-1.5523 0.50091,-1.96656 1.68043,-3.05535c1.25269,-0.8555 1.25269,-0.8555 2.23039,-0.8555z" fill="#8f0000"/><path d="M101.25211,275.68842c0.45486,1.24728 0.53073,1.82835 0.10885,3.10881c-0.18716,0.38566 -0.37432,0.77132 -0.56715,1.16868c-0.27885,0.58605 -0.27885,0.58605 -0.56333,1.18394c-0.14683,0.29491 -0.29366,0.58984 -0.44494,0.89369c-0.32265,-0.16133 -0.64529,-0.32265 -0.97772,-0.48887c0.31404,-0.88665 0.63016,-1.77256 0.94715,-2.65815c0.17582,-0.49342 0.35164,-0.98684 0.53278,-1.49521c0.47549,-1.22405 0.47549,-1.22405 0.96434,-1.7129z" fill="#dc0000"/><path d="M-43.93792,64.01404c0.71527,0.37235 1.42763,0.75024 2.13875,1.13048c0.39701,0.20985 0.794,0.4197 1.20305,0.6359c1.05791,0.67791 1.05791,0.67791 2.03563,2.14447c-0.81476,-0.32591 -1.62951,-0.65181 -2.44427,-0.97772c-0.66545,-0.21174 -0.66545,-0.21174 -1.34436,-0.42774c-0.36298,-0.18149 -0.72596,-0.36296 -1.09993,-0.54996c-0.31318,-1.01208 -0.31318,-1.01208 -0.48887,-1.95542z" fill="#9d0000"/><path d="M72.40969,321.64083c0.16133,0.32265 0.32265,0.64529 0.48887,0.97772c-1.66786,3.27821 -1.66786,3.27821 -2.93314,3.91085c0.28151,-1.16624 0.59752,-2.28141 0.97772,-3.42199c0.32265,0 0.64529,0 0.97772,0c0.16133,-0.48396 0.32264,-0.96794 0.48885,-1.46657z" fill="#990000"/><path d="M82.18678,314.30799c0.3189,0.84785 0.3189,0.84785 0.48887,1.95542c-0.48694,1.04645 -0.48694,1.04645 -1.19158,2.07765c-0.23126,0.34533 -0.46254,0.69066 -0.70083,1.04645c-0.18211,0.25963 -0.36424,0.51926 -0.55187,0.78675c-0.48885,-0.97772 -0.48887,-0.97772 -0.21579,-1.92869c0.14178,-0.35164 0.28358,-0.70326 0.42966,-1.06555c0.14053,-0.35416 0.28105,-0.70831 0.42584,-1.0732c0.11154,-0.27097 0.22308,-0.54194 0.338,-0.82114c0.32265,0 0.64529,0 0.9777,0c0,-0.32265 0,-0.64529 0,-0.9777z" fill="#a10000"/><path d="M-7.27375,91.8788c2.81092,1.28324 2.81091,1.28326 3.91085,2.93314c-1.36005,-0.18379 -2.24283,-0.32909 -3.33034,-1.19158c-0.58053,-0.76384 -0.58051,-0.76384 -0.58051,-1.74154z" fill="#8c0000"/><path d="M88.05301,193.07186c0.48396,0.24198 0.48396,0.24198 0.97772,0.48885c0,0.32265 0,0.64529 0,0.97772c0.32265,0 0.64529,0 0.97772,0c0.16133,1.29058 0.32264,2.58115 0.48885,3.91085c-0.97772,-0.48885 -0.9777,-0.48887 -1.394,-1.60598c-0.12477,-0.44805 -0.24955,-0.89609 -0.37809,-1.35772c-0.12729,-0.4493 -0.25458,-0.89861 -0.38573,-1.36154c-0.09453,-0.34723 -0.18905,-0.69444 -0.28643,-1.05218z" fill="#920000"/><path d="M-48.33761,54.23693c1.9134,0.62057 2.83083,1.22784 3.91085,2.93314c-0.80661,-0.16133 -1.61323,-0.32264 -2.44427,-0.48885c0,-0.32265 0,-0.64529 0,-0.97772c-0.48396,0 -0.96794,0 -1.46657,0c0,-0.48396 0,-0.96794 0,-1.46657z" fill="#ad0000"/><path d="M71.43196,42.99326c0.16133,0.48396 0.32265,0.96794 0.48887,1.46657c0.32265,0 0.64529,0 0.97772,0c0.16133,1.4519 0.32264,2.9038 0.48885,4.3997c-0.32265,0 -0.64529,0 -0.97772,0c-0.63182,-2.0139 -1.10605,-3.74869 -0.97772,-5.86626z" fill="#ae0000"/><path d="M62.63256,4.86254c0.16133,0 0.32264,0 0.48885,0c0.85915,2.20158 1.07204,3.99706 0.97772,6.35512c-0.16133,0 -0.32264,0 -0.48885,0c0,-0.80661 0,-1.61323 0,-2.44427c-0.32265,0 -0.64529,0 -0.97772,0c0,-1.29058 0,-2.58115 0,-3.91085z" fill="#d50000"/><path d="M37.70094,368.08209c0.32265,0.16133 0.64529,0.32265 0.97772,0.48887c-0.96794,0.96794 -1.93586,1.93586 -2.93314,2.93314c-0.48396,-0.16133 -0.96794,-0.32264 -1.46657,-0.48885c1.12925,-0.96794 2.25851,-1.93586 3.42199,-2.93314z" fill="#620000"/><path d="M70.45425,162.76283c0.48396,0.24198 0.48396,0.24198 0.9777,0.48887c0,0.32265 0,0.64529 0,0.97772c0.32265,0 0.64529,0 0.97772,0c0.32265,0.80661 0.64529,1.61323 0.97772,2.44427c-0.48396,0 -0.96794,0 -1.46657,0c-1.46657,-2.81092 -1.46657,-2.81092 -1.46657,-3.91085z" fill="#a40000"/><path d="M-33.67194,72.81344c1.20992,0.24198 1.20992,0.24198 2.44427,0.48887c0,0.32265 0,0.64529 0,0.97772c0.32265,0 0.64529,0 0.97772,0c0,0.48396 0,0.96794 0,1.46657c-0.64529,-0.32265 -1.29058,-0.64529 -1.95542,-0.97772c0,-0.32265 0,-0.64529 0,-0.97772c-0.48396,-0.16133 -0.96794,-0.32264 -1.46657,-0.48885c0,-0.16133 0,-0.32265 0,-0.48887z" fill="#6d0000"/><path d="M68.9877,25.39447c0.48396,0.24198 0.48396,0.24198 0.97772,0.48885c0,0.64529 0,1.29058 0,1.95542c0.32265,0 0.64529,0 0.97772,0c0,0.96794 0,1.93586 0,2.93314c-1.53969,-1.67359 -1.74121,-3.14951 -1.95542,-5.37741z" fill="#b30000"/><path d="M69.47654,3.39597c0.32265,0 0.64529,0 0.97772,0c0,1.29058 0,2.58115 0,3.91085c-0.16133,-0.32265 -0.32265,-0.64529 -0.48887,-0.97772c-0.32265,0 -0.64529,0 -0.97772,0c0.16133,-0.96794 0.32265,-1.93586 0.48887,-2.93314z" fill="#a10000"/></g><path d="M-100.20319,378.24761v-396.97736h682.25463v396.97736z" fill="none" stroke="#000000" stroke-width="2.5"/></g></g></svg>