<svg width="256px" height="256px" viewBox="-102.4 -102.4 1228.80 1228.80" class="icon" version="1.1" xmlns="http://www.w3.org/2000/svg" fill="#000000" stroke="#000000" stroke-width="0.01024" transform="rotate(0)"><g id="SVGRepo_bgCarrier" stroke-width="0"></g><g id="SVGRepo_tracerCarrier" stroke-linecap="round" stroke-linejoin="round" stroke="#CCCCCC" stroke-width="71.67999999999999"><path d="M512 85.333333c-164.949333 0-298.666667 133.738667-298.666667 298.666667 0 164.949333 298.666667 554.666667 298.666667 554.666667s298.666667-389.717333 298.666667-554.666667c0-164.928-133.717333-298.666667-298.666667-298.666667z m0 448a149.333333 149.333333 0 1 1 0-298.666666 149.333333 149.333333 0 0 1 0 298.666666z" fill="#FF3D00"></path></g><g id="SVGRepo_iconCarrier"><path d="M512 85.333333c-164.949333 0-298.666667 133.738667-298.666667 298.666667 0 164.949333 298.666667 554.666667 298.666667 554.666667s298.666667-389.717333 298.666667-554.666667c0-164.928-133.717333-298.666667-298.666667-298.666667z m0 448a149.333333 149.333333 0 1 1 0-298.666666 149.333333 149.333333 0 0 1 0 298.666666z" fill="#FF3D00"></path></g></svg>